<mxfile host="Electron" modified="2024-08-31T12:33:49.903Z" agent="Mozilla/5.0 (X11; Linux x86_64) AppleWebKit/537.36 (KHTML, like Gecko) draw.io/24.6.4 Chrome/124.0.6367.207 Electron/30.0.6 Safari/537.36" etag="oQ2NAowbN9pJvXTzOOHx" version="24.6.4" type="device">
  <diagram name="Page-1" id="CJqiTK_onYxdcUO8KOhB">
    <mxGraphModel dx="1434" dy="847" grid="1" gridSize="10" guides="1" tooltips="1" connect="1" arrows="1" fold="1" page="1" pageScale="1" pageWidth="850" pageHeight="1100" math="0" shadow="0">
      <root>
        <mxCell id="0" />
        <mxCell id="1" parent="0" />
        <mxCell id="yVWfJAT9jEzw2ERcWEyI-9" value="" style="rounded=1;whiteSpace=wrap;html=1;dashed=1;fillColor=#FFB570;strokeColor=#d79b00;fillStyle=hatch;" parent="1" vertex="1">
          <mxGeometry x="182.38" y="270" width="155.25" height="370" as="geometry" />
        </mxCell>
        <mxCell id="OKPv6l8iK5C8od6a9RTo-6" value="" style="rounded=1;whiteSpace=wrap;html=1;dashed=1;fillColor=none;" parent="1" vertex="1">
          <mxGeometry x="160" y="300" width="570" height="380" as="geometry" />
        </mxCell>
        <mxCell id="OKPv6l8iK5C8od6a9RTo-13" value="" style="shape=image;verticalLabelPosition=bottom;labelBackgroundColor=default;verticalAlign=top;aspect=fixed;imageAspect=0;image=data:image/png,iVBORw0KGgoAAAANSUhEUgAAAoAAAABmCAYAAABbTyCVAAAABGdBTUEAALGPC/xhBQAAACBjSFJNAAB6JgAAgIQAAPoAAACA6AAAdTAAAOpgAAA6mAAAF3CculE8AAAABmJLR0QA/wD/AP+gvaeTAAAAB3RJTUUH6AYREDYSN6W1WAAAL8FJREFUeNrtnXl8VNX5/9/nThIkLoCAkplEpcpXq9b2V5daqxXrCoiiBcWKe8UVMgO4V03d6gLMBFwqLrUVqxYVBUQBxX2r1FrXWsUtmQmCYnBhCZk5vz/ORchkkszce85kMjnv1ysvZZK5y7nn3vucc57n8wGLxWKxWCwWi8VisVgsFovFYrFYLBaLxWKxFAkiz/vbDxji/ncQ0BcoB74FlgPvAc8DjwEfFnC7OcBg4HBgb2AXoDfQE1gFJIB3geeAR9x/WywWi8VisXSrIPM44H1AZvmTAhYCBxbYufQEwsCnOZxLsxsE7mO7gsVisVgslu7Az4FXcwiWMv08AgwogHM5BPjEx3mkgJlAP9stLBaLxWKxFCujgdU+g78NP3XATzrxXCYASY3n8gvbPSwWi8VisRQbI1AzXlLjTyPwmzyfRwCYrvk8JCrncYDtJhaLxWKxWIqJADDbQOC0Djg0j+dhIviTwETbRSwWi8VisRQjPYEXDARPq1C5haa5ylDwd73tGhaLxWKxWIqZXsCbBoKo5cD/GTzuswwFf/eSf+kdi8VisVgslrwTwl/1bFs/S4EKA8d7FEq6RffxzgVKbHewWCwWi8XSXdgJ+MJAUPUW0EfjcR4IrDFwnK8Cm9tuYLFYLBaLpbuxN6r6VXdw9TLKTcQvuwMrDRzfO8DW9vJbLBaLxWLprvwGWGsgyJqDv+XVSuBzA8dVB2xnL7vFYrFYLJZCIquChLoIWzspDhWCA6WaKRsI9BHQnIKvBHws4K0ULJaCxVVR1rSzudHAfSg/XZ3cC5ziBl650Bd4EeXnq5MvgQOA/7b1B8vOZ2BzKYcDvxKSXZEEEWwFrEWyHIePkPxLCJ6u6MVLooaU7bIWi8VisViMBoD1E9jXkUyQkqOAHllucJWEmTjcEJpKXRt/di5wi4HzuR64JIe/LwcWAftpPo7VKL3ClzP9MhHhMFJcLAWDyb4quB64K1DCrQMms9x2XYvFYrFYLFoDwLrxDBIOtQKGeN6yZK0Q3PR9kmsHTWddhr+4BrjMwDlNAqZk8XelwGP4OcfMrEdVEj+Z/otl5zMwWcJUlFOKV9YANzb15vqBNay1XdhisVgsFovvADBezfEI7kJT1aqAt5uTHLPddJZm2PftwJmaz0kCZwB/6eC87wJOM7Dv04C/pv+iPsw5QgWmPTXt6d8CRgRr+dx2Y4vFYrFYLJ4CQAkiEeZK4Ar0ixWvlA4jK6fyTNrnAeABYKTm/SWBUSg7ukzcCFxgoD0nANEWcdooAolKrkVykYH9fZmCUVUxnrVd2WKxWCwWS7ZsrJytQYhV7CqlEaeKrUWKJ+NhTg3FuD8tUDsR5Rii0+M3gCo0OQxV4LEp5xoK/q5ND/7eraEs0chDSIYbun69hWQLTdvaAjgbGI6qiu4KfAF8iNJZfBIlOK6bHYBqlEZkry7QJuuBBPA+8DywAGjM8zFsDhzuttmubn8q6+R2WQN8BvwHeBZ4xm0rY9SH+ZkDQ5BsJwUhlGbpWiR1UvAOsLgyxpuF2IlWXMiWTes4CPglgl2ArSQEBNQLyXLgjaTD/KooKzW8g8YAxwE/QqXmZMO3KEeofwMvoXK51xRQEw5032n7oXRwtybLPHrgO/ecptFOEaEPKoAjgF8BOwMD0F+UmStfocwdXgMWAu+Z3NmH4+ixeQkHIdlfQkhItpGCrZB8JwSfAG8QYFFwCp8V4v0Zr2ZnBIdI2EOod1S5gFVSsAxJnRAsrqjnZTGLZHvbEemNUh5gPkquRTsC1idTjKiaxvy0X23lPpT/n+ZdrnJfQv9x/22qAvlvwKlsUoEsa3ASjfwdON5QH5ASTq+McY+Gbe2BktLZvgsPZqQb8NS4fUkHxwH3oGvZvnNYCzwEXAl8bHhfA4DLgZPdAUUhswK4DZjsBhN63mLj2GptCRORnJLl/fQBkptXp7ijjVzpvNIQYTcpuVCqFZSO+n0zgucE3BiMstDD7oLuc2dPTc/6vwM3GRoIZstR7oDxIPyvpK0HxqFSpXTwc+CPqLz3QIHfn2+4kyqzyV3Zo6PA6XL3Om2ZxTv2eSSTK2uZ1+kvuFEE4pWMEZLx7rXsiC8FzEolua5yOvUdBoA/PMACPJPlDrywWsIhlTFeSfu8P2q2TrfHb8Id6QwEnshhFJYtc4FjUfZxGztamGnuzWsq3Lk4VMsNGra0rTuKrqB4eByIoGYHvbKfG0iWFkmbNLkvkj8A32jedhmq+n5SFwj80lnuDhr+7OdFI0EkqjkPwRXusyzX0fEnMsmZldN4ulOmX8ax1TqHG6RgrMcB8iInSbhietYzN2WomXvdg/61QMwNdPJZJLczStniYAMD2+HuM80rITcwHk3X86J/FQijZgY980mY3j3gOqlqDko83J9PC4czOmtGsC7CPo7kbmA3D19fg+DmQIA/DpjM9+0GgABfVLNts+BF1NS1CVY6SQ7I8LDYyQ0Ct9W8v6XANllE/LnyPGoqvcXSQ32Yy4SqcjYU+xGrjBHRtLmbgfMoPhqBE8hQjZ0lLwO/LMJ2eQ84GvhI0/b6Ag+jZtq7Mv9AFXCtzvWLyyaxeaqZe6T/XOaUEEwIRqnN54nHJ1CF5Ekku/rc1HcIxoSiPJbF354D3GrwtP6FmsXMx2zgKFRR4ZaGtv+hG2B6GaDsi5pFG9DFB6/num2cM8vOZ2CylHka+vcKkWJIcBr/yufJ10c425FMk/4nI94UkqM3LRzNONLbtpYvSgSHI1lm6Jy2TgVYkKhu5ZLxESpvolHz/nY0cHO+g5JzaRH8JcL8XsDVxnqD5O+h3kzUtDXhjgqLkd7APFReY65UFWnwByon7zX0aF/u4G7rwCJol+PcAV3fXL+YXM+dUk8hmyMlsUQ1k2WeZmrqIvyEFK9oeDkCbIHkkUSEvbJsb5Ps6Q7idja8n7OBBw0GfwCDgJ95+N5IVK7rgC5+b5YBd6JmMXN7XdZQkizRMrgB6C8dFjdE8ve8q48wUUhuk3pWon4mBU8tGbtxW21O9W8b5eOUw2EIvjZ0bpVS8NSySWyT9vnbwDFQ0Bp3dcBQaNk28QjDpcorMvPwFjy9OsXpGh1BtvbywutCBFAznEM9DBiKma2BR90AzvvLXuloFlNb7QnMIseHbcphEuhbGpKCiYkw0/MQ/O3kSBahlgh1MTkYZUkWf7dTHq7nAOBpd0Bngt+hln3zEaznmhq1L8oda7Miuj8nofIrs39l1tAsHU7Bw8x+G2yVksxPVLO/8eCvmpOFzD3obYcmJOftNWNj8Vu7uR5VUd524BiksWBsUHMz85af2ypv6FlU8URzAXbCL1GzlC1cTuonsC+SB/DnSdz2SwFeL13HCM2J4j0pfgKo5PBdbLu0HM26AZxXvc97UMVDxcZBpFXzd0RVlHgqxaGg1aHnvESES02d5OfnE3SDP23pNlIwMxjj4iz/PF+BSQiYif6ih12AGeSverZnjuc8u8iCvx8GGMAhuXyhciqvIhitMZ4oRzCvfgI/NXWS8WqOEkqPWdfgIinhxFAtizb9sMPOWxHlOZPBmIC91/fg0Q/HtSrOmEPh5aZ9i8r5+2DTD5eNZ3chmY+yljPBR6WS4dvcyndYvNALNRNoackeeJNEOgr4bRG3y7nuDEr2QeA0PnQkR4K+e1RKrk1UM173yS29iF6BEh7H3wxw+oN8XqgXpwmNFZsa+TVobUeBml3bvED77010/WXftihxA++cZKVCUeYKOB1N/VNCL5FifkNY4z3kUhdmMCqtQNdkkhRwdmWMh9J/kdXoJVTLHCEMBmOSg8sd7pE1rY5nBkqYuhBoQiX7tkgAjU+gKukwH0kfQ/tNOHDotrV8YeMVXxyM0qaztGRiji+LAHBdkbeJQInF50RFLa9LVWCjbZZeCqL1EX35cnURem62jrl4yylri1cCAUaLmoJcsdnApSi5MR0cB1nlOXYGP8Wc9FihMBBVRJQTwRj3CsEfNB5HMAWLvqjWN4teV80eDsxGaJ29vTgY485Mv8h6+joYZYY0GYwJRie+zpj3cjWqrL8zSQEnoUR1N0ZmE+lHkoUYyjERsErCsIoYn9o4RQtX2SZoxRaQk0vNKLxJEXQ1DsCDOH1ljMVCcAK0L8CaA46Q3Juo9j94kaMICMlM99x0PaPebl7HsHR5iQKkH0oaxi89gakFfJ7X0PmizvngMjwscQejXCf0Xr+dmgULPwnT2++GPh/Hjo6KMXprPL7poVjbg9mcOkpljKulyWBMcG4beS8TUGLLncUElEzExuBvLOUyyRxXJV8/krUIhheqU0AXZZ9uErzkyolkX/hwajdqF09e4cEos6VeDdAyKXgkPt575bYEkajkdqE0SzU9ovi4CQ7f/jZjhYK6ORP/RW+nogSsC5EKlMhzd6A/cKSnRooxScBfNR7LHj1g9ic13mftPj+fYKCERQh9S/duTm67RTM5jxRcCZIHTV1VKbkmEeb3rZ81/B7vmm5+uApa6nItGUup7MnDmJMKSQoYE4zygo1NtDPMNkHGh+k+Wc5+DO5G7eLZMaEyxm3omXHaQDkOjyXC/NjLlxMRbkByhsbjWYHDkB1iNHSh67k5HpYO096XkWLsr93pWS5AJlZzplTGELoGQ4PLGnlQ1uSet/dDTq5koLaWyTInN+cAUNSQaljdejlUI0LCn+vDrXS11qMSz1/JYwebgbLQajGSDpZzB4IjTMXAAs4O1vKwjUuMsL9tAs/tsif6nXQKmd7gXT8sFKNGolXUuZ+ERYmJuVk2xqs5H6nV//wbAUdUTuV/XfCanuejD49AafIVKvvRvfD8LN9rBuud1YxE8LLG4zkq3sjduWh4dnZOruO18crKGIUwpogdEHBfPNKq3Hs1qgLxv3noXBmrkBvCTJZwiqmdSri8rYRNixZ2sU3guV12tu2SYxDYmwnoXTEJyWT2ieeJMCcitAahTUhGBmO80UWv5wBgjMfvTizmvtoFGehnQBqcwWrZxFHA+7oOSMBJiTDXZ/WuH0XASXEfnZiT6zlZtP+NfCuc1pIoGilD8nB8QiuvyA06fJ8b7FjPkkH6JhHhYqnyAY0g4LbKGNfaWMQo29gm8Nwu29h2yfGeNrNiMmi9YO6KC9t3n6gPMwz4C/qKApJC8rt0LbEuyAUe2uRXFP4MW/9udm8GUKL2nqm8ha9kksM0xxMXxqvbn3GXIBIhZiA4RtdOveTk+hYZXHY+A1MlvCRVAqoJlkuHAzIsN+yGsm7aWvP+3kbpRjW2CP6qGSMFf8Oc6vuDwd78TqPLR1b9nzRBaw8P0m/ydKzboRw9/JrHN9NxwcMQYL6PfZwPG9XWDVKCWpI61m0fPzxHx/l9VwGX+9xPHfAQyqN1naF26YnS8RuGf4uui/AgCZNOYizlcnMWIbUGEYtXJxmaSRy+rppfOIKn0adVJwWM1bg6sQJVmeuFpSh1iOPxXvQwLMd7/BHw9LJe69435eBLguQ0lPh6R/dWpc/r8hqwEEiAsXdRP9QkzoEa3qf/h/JK9kXDOHZNBXhBYzwhkZwZqs3sX5yoZrIUWmeU24qTzAaAoISQkwGeN6WFJ2BpSSn7b3NTK2/iX4DWh9zH7kivxX7qqzlSCGZjyOVDSJ75PsUQzS4f+QgAB0De9QnPwJ8CfzKL6+g3ACwnzSPaMGXA7fir0H2ejj19r/b5EpuL0lDLl81jBfC4z0HDJZDdkk6HQeBE+skkz4O3Qo42eDQYZ6SYtVF2piHCbimpeXAsuThUyw0aj9tPADgemO4G+p/ibZZ2MUobNBsGodKOvDxzrkNJlgC8CZ7dI7IJAOvxZ+t3BSZ97DM/Zx/Bn2PJzqAnF7Uuwj6OZLHGeCIpYXS6AHMiwsVS8ieN7fgNDoNDU/l3rl/UsjQwYBrviBQjTFnGSdhx/XoWZNDaeQ19LiUr3A65LH0kLYQ5izfgrXWCYzsh+Ouq3AXcb5uhBU0oU/pCrshc7wbv+fT4bkDpdxaEO0VwCl8aWG4aEQ9xyw8RwDgqU8qVSF/wJ7hZc/Dnlw19aA1sPPcc+U0OA4MJHt+V69xAdQOF7OT0HkpDMJ88kdY+nUpVlH8iGOE+T3WgahmqN+qJJsKcJKVWIf01QjLcS/CnLQAECNbyPA7HYc6/ty2tncfdmQ8/D/lvUBZvLUYSDePY1RHMx5Dlj4ClJZLDBsZaLjdbOuRJ2wQZXzbPFfDxPe8OsvLNu+7MSEFQOZ16J8kQ4CuNz5GzEmGuSUyknwiwEP/pAJtyX7BX+1pincytqOJAL2SzBNcf70V/96VPKBQwj3XSQGlBITVCKMpTrmWcruXvMgQPJcazZ7yaoyTcjUZ/XwFjgrU873UDjubGmysk55q6OBIG92jkXjmqldbRfeTmZpA+ezISWla1JarZLhVgAfpzDDeczLKA4DBr8eYJ22Zdr13itl0UFdN5T8Jw0OeeIeEymeQNNC4vC3i8YTWn5TkvOVe+pOOl0bY4jo5dnM5FLTV7uCQF7RiSTsLem4pgjPuk4EKNm9xKOjyBZn9fKTgjGOMRPxvRbhkTrOUOKX0nird3V43cdMljE24CJue4uRRKEqBFVVv9efSVgifxn1DbFt8QYOi2UT62MYtF7+1hj60rtEtljFfc5SadqR9VGlvsVaeE4/eakZdiJr9MwZv1Xikqn7AtepJBCixL5qNmny1dkMooUxDcpHGT/TX7+15YGfXvZmLEM7CylmtMWsYJOCseyaiyfyFqijVbwsCsFsOgsZSLUh5Db6L2pjQhGel1zd5isRQHoShPoZL7C2qGTcI7KadL+Ptu4GPgUY/fPQvo1cbvTsW7tMoU28O7NsEoFyEyV/F28g16fSiW82RX/gJAgFCMCcKkf6/kikSkVW6KBMYCs7PYwhWkJaAuGUtpqpyHUJXAJkhJyZgi0NGyWCx6npP3I7T6BvulTjgMrYqysos1pdcilS2hlfXohnejV9u3/wDP2N7dtREgg/WcJfG3zKr5mP4WrOVSXdtzTDZeYjW/x2CSp5RMjVdzfNrHSZS5/YvtfPXPpJW7SxAVPbldGDTTFpJIZW3LGUeLxdLNg8AotwoKQgB+BZJDQ1N9SUN1Fq8DL3n8bpjW2qAj8G77dqPt1UUSBM4iKQVjgBcK4HDmVPTmDKExpcUxebR7zWC9WM2xmPPvdYTg3kQ1h6d9vgY40h2JpfMoSqi3BYkwNyI4zWBz1ARrmWZvKYvFkk4wxh/oXEmMb0WKIaFaY85O+cDrslglMCrtM68ivZ+DHeQXE1VR1qztwfA24on8BKLwbFNvjs/G37dgAkBQfnsiwFEYsoyTUCoFj9SH+WXar1ahnCM+3eSzZ4DRpCUMu7Ytk0y1gYTbQ7GMOYsWi0762ybowkFgb8JCdErw0CQEI4PTjHm754s5eBcF3jTg2w/vtm/ToEsUzlhyYMcbWJVsbhVP5Iu31sExA2v0a6g6+Tj64BS+xOFQMLa0UC5gTmJiKzPsBMpy5gvgLZRlVouqO9cs/XqDp/9YKO65ksxiyZZSaDUTbulCiBpSX/diDMqKK18kpWRMMJrXfZoihXfplZ+jxKHTg8FcWAXcYXtycbLdzSRS4od4Ij/PBFhaWsrhprSCnXydSGgqdYEUQxHZGxXnSD+ZZGF8QisphI9QM4GHkubvG49wiCvM6Bi6eM829Wb0pjZNFoshrse7tRbp94alc9ithqayMkYi8jIbJ4XknCLLS/4b3gXHJ6Ly/kZ4/P4d5M8b3dIJVEX5SAiOJD+uLgmnmUMzWOBqoySfjTdgGu/UT2CokDyN8kvVfn1kivl1EQ5Mq2J7I/0P6yLsg2Q2ykfVRPD3tqlpW4s2JXVTHIs+O6GOBnAhd39+K9etuHaB0P9Gvk1M5AjZzAuIVqsa+m4iwR+CsaKbsdpgD1fj4btDUDPpXiYE1oPN8e4OBKMsqQ9ztFBajz0MveBWpWDYgJv5xOS5lOS78Sqn8mo8wmgkj5jYv4DdRYrHl03ikLZ0rOrGM8iRzAW2MDKsho/XY27a1sJOBX58M7tgm9bbblVAL5kpfBmfwGGkeAmdAs8bH1K3BmNaPUkLiVtQmrC5TjII2OjbmiP/gC5ZPW3xEsfEWByPcCqS+9C/grgGyZGVtbyZjxmEvBOKMldg0FxcsG9yfeZSfDmKgOMwD9jG0N4lDsfuEKPB3ibGOM5ffG7JwHO2CQqL0FTqhORMA5v+T7BPQWkP6uZL8O+SkCNW+Lm73Z9RHpAGcj6l4LJgbbsydl07AKyLsJPMLL6pi0QgmVkSQMwiieQC0FtOvekuhGTKh+PMTA1buAA40Mf3v7dN2IrvMCfVZPHI0ovoJYWRgfJP442Ei7z5ppI/h5WnwTo7dTcS1fxaSE7RHkBILo1Xs3M+ziHvS8Cfn0/QkSwCtjW0i29kB2vnoVrmJCKcJyW3GzkCycHlAf4iaxhT4Ebqfjmf/CTDgpI4GQzs6XM7NtetNQ+Rn5xFS/aD5J7OOuYCPzUySoXJ9RG+0uEnWqB8hNJ8PTYP+7Kzf92MZePZPenwKFKrv+8G+iFYFJ/Ar0yLsuc1AFx6Eb0C65gP7GAo8ForYHio9dp5BbCSTSRgglFmxMMEgSsNne4JiUZWkkF0uoj4Qxc85v/ax1cLUljngoJCjiIQl8wEDjC4G+FI7khE+CIY5ckibcrJeQgA34GibT9LBurHUZl0mI+kj8HdVMkU8z87h19vf5sx5ZT8LQHXRei52TrmmRrRAkkBY4K1PJ/2eS/gCeBBILDpL0IxahBGK7fOi1dzkb1lCooXbRO04AHgfdsMBRL8gUhUcrvIw8yVhFIpeTiDiH6x8Are7eGyZSo2r7j7BH/n0Vc4LMJEYVb6CA12LyljfmKsEcWU/AWAchQBJ8V9wP6mdiHg7GAtD6d93hN+CDqPRlWHtSDYi4hR9X3Bn+LVnGFvnYJhnm2CH2gAqm0zFA7xMNci8/q8aEtEv1iYYvj++bvttd2DxFjKRRlzTEozZYgf9pXlPCBrzKzWGg8AJYhEiBkIjjEYKV8WjHFn2scB9+bcNOg8izR9qE3U9xcZOzzB7YlwXnJRLO3zKna2awPNwGmoiklLIQR/Ec4VcEkn7LotEf1i4DHgQ0Pbnk6as5SlOFkyltJUOQ8hPVsE+mF4vJG7pQH9W+MBYCLMjcDpBiPMW4Mx/tQ6JuQOMiu6XwmM3/SD3Wpo2izJSKSxSq6AhJmJiNGcHkvHXG6bAFBe2KcCC2xTFEzwNxrJ9E48hA05R32KrGn92MO1x/fADNtzix8JoqIntwslFN4pCDipIczVXSoAjIcZB0wyeGUeaEPP6kbU7EZbRIFRm37QdzrfBEo5wuBosSeSufUTjOVAWtpnEfCUbQa+BUYD99mmKAzqw/wGyT10kizXJi8Z4zlHncRf8W4P1xZ3A1/Z3lv8JMJcj2g3nshXIHpZfYRIlwgAE2FOBGoNtsfi1SlOzSCzckEWQaeDcmtoofo+YDLLk0mGYEgqREIvkWJ+Q9hQFbSlLRop7mrsbFmCMr1/yDZFgbxcIuwl1DJlYeiGGs456iQ22MPpIgnEbO8tfuIRzkW5yhTG7SmZUl/NyQUdANaHGSbhHgx5tkp4vbSJowdNb5V/cSLZO4yUuS/Cn2/64XbTWeqaPX9r6BoGU7Bo2SRjTiSWlqSAMcD/unEbfIzKf/0lSh/NUgB8Po4dpWQehiwpfTC8oZG7ZOF7bufCdPSJwD/s3lOW4g7+OjstI2MM6AjuTEQ4oiADwPh49hPKF9HUCPKDQJJh29zaSoB4GLkHnVuhNJz+r0WEFmWJEIzEnDjuTqlm5iybxOb2NjNKsxv4PN4d4wt3luJgYBAqX6nZdonC4NMwFYES7YL42kTnJZzcEOGqImrylcDfNG1rqu3BRR/8HYLkrxpjJJ33ZqmUzGqoZu+CCgAbIuyGw1wwlkOScOCIiumt8jl+gdL58xJ09kfpBA5ICwIXIjgFQ3ZCEn6RTPKYtYwz+sAfAq2qw/NBuTsQ8fMz2ucxLEctXSyGgnCj6d2J+y6owoavxrFVKcxHMlDjZhc7kn0FrNL2jJL8IREuKsu4qIZ74UXgtSJ8Xvay96airpo9hOQh1Cqhptc9Z0paFav6YYuUYL5f+SZtAWD9OCpTkvnA1iYuioBV0mFoRYxP0361KzAffM2m/QhYmP6SCkV5AGHQNH2jZZyDRSePAnvTtYs+HkTlqXplL9IkjzqZPaFT8sp2BHYqlEZ4t4aytQEeBn6mcbNLysoYUVHL6ymHY9AoTSJhSn2E44rkufAhKt/SD5OL9Jm5dyft95BCaoQvIvzIgQVSZ0AsuSQU4+5QjMsQ3KXxcPvJJIv8yDdpCTzqz6OvCLAQ2M7QdVmDYHjlVP6T9nklavZOR9D5E2A2tPT2C0W5Fcn1BvvcCYlGo24k3YUUypR9f+AYiiNH53zgMx/fvwgKRnqokvwnUzvAtYVyMeUoAn0auU/nS0/A0hLJkf1vVDnLlVN5BsGp6Jv1dYTk3kQ1hxfJc8JPAPc/YG6RPj+PBA7K8z6DwDmF0gAN4+jfLHkC0XI10Gfwd2uoVtUlCJDBes6S8IjW52qKJ+oi3mIg3yPyxFjKZRlzkPzY0HVRFm9RXkj7vC9oDzoHo6yxfouq9FK9tJZLExH6G1ToPy9eTd2GjtKF+GzTdsozzShphw9Qlk8LwKxxdiewCjgZeMbjYC2Aynv6GRqXBn1wLaro6l7gbYP7KUHN+o0H34GLNpuvRCUxJCM1nueKZIohwWktVQtCUR6IR9gaqa3ytUwKZiXGc1BwGv/q4vfUy+6PF0FfHUvIhUoAtZJ2K6o48guD+ypHpW1djkrB6nRWXMiWTU2t6wF8PjlaydSJWSTrIowRkgUaB+e7OSkeXzaJQwZMzq3QyVeV15KxlFb0ZA5CT0VKxiaUnBmqbTVtWo7SdTOlyn07cHb66D0RZJZBR5O2ztX0rIyfoKkX8E0RPgyHuA9DrwFDieYXxfXgy1N6JnCShuO4HIqqMCAbwmiQs0qEuUrqFSL/BofBoalti9fHI1yP1OpFvgLJAaFaPtCyLejn8bsn4S894hhyn4VZAWyPkpTxytPAbzx+9zRUkWN7LEWlM3UntvM78F8yltKKcuYBh+k6KCF55vsUQzIolagLdRG9NlvHc6BRF1gwL9iLY0RN9sV+npeAJYhgOXcYDP4ALs4QEJW6IxSTlixnoRxDWkTuKYcTUUnAJuhqlnHroVUltkXNtOmeJbgCfLnUjMF/UQnA193wevo+5/oIZ2sO/pqQjGwv+AMIRrkEJVisi/5SMP/TMBVd/Jp4sYe71WfwB0qP1CSN3fD+9HXOEsSAcu7SGfwBb63ZjGPaCv4AdryBVclmhkKrmgY/J3NkfBV/yUW+yXMA2FDNFAmnGLywt4Ri3NgqSFIWb/mwZKkhzTKuKsqatT04EnjL0D67kmXcxxTvcogfTDjJNKE0Lv28gG5zZzD8XvPuhi/dxESYEUJys8bjSUnJmFBtx97lAmQwzlhUUZSmUSo/KoMFn4Q7tarb7z2WQi3nZsta9/7p1L5UANsvNJbhU6+3oZopQs/qyIb7Y2mJ5LAdb+g45Wa7m0mkBIeiFBv07F8yJlHNdUYDwPowl0mh15IkLZL9e7B3y+DLZTJmg850WlnG7XgDq1KCofhLzm+PrmIZ94KN9TLyT0PbfR9/y8C9Ubl3AR/beJXupSXYBK0Kz7KmLsxgqXKKA7oOSAgmVNYyK+u/n0UyJfgd8JK+xzM/6QGzP6lpWTCXJxpRS51++QvZ57ndg56cuBcNt82Sbvasfd3n4OwSzXHMipTD0G1rs+8rVVE+ciRHonM1TXBxfZgJRgLA+mpOFug3Jd6Epxr7cFoGi7dLILuT0khGy7iqKHEnyVCU1pyB+LdLWMbNsbFeRhYY3PbNPrd/AP68uVfqDCS6AC/j0T2irpo9HKUqoE3nU8DVwWju+YhVUdbI9RztDiJ0PaMGlzXygBylL7jNkoXoKTxbC/w5i79Loc/27SlgteG26U4s8vrFRDVjpF6FgG8EHFE5NXfHqYpaXpcpRqBRvknA5PpIx5NlOQWA8QjDhdKxMWIRJOCfpU0cs1tNKweOk+g8OYeMlnEV03kvJRmKPnuhdIIpWPRFtVanAF18R9fW2DPFl4YDQAmc7u7HK1el92Ub+LfJfV6+tEFLDI3i1xLurYi1zEvOhcpb+MpdbvpcY/scHQ9p9dg1dk3a4BY6TquYB1qKXnD3ZTJI+w/wTje5N5tRjmM5Ux9mmBT8RWMc04RkZDDGG57vz2k8jSr00ZVWJRzJHQ3h9tPlnBwa7ZdIHsCcmOuHTgnDM1i8DUclMnemL2VGy7iqWl6TcDzmlsV2Wi+Yu/zcgvMKnY7/hOhi5CbM2Qf+MHgFzvQ5oJmJd7eeuzE0811gxIG/5/olI1pignmh3pwufErSVEWJO0LvyoWAs+Jh74FpjrzlBmS6WAH8tYO/0S38fAMapYUy8Ce6B3fiYVm+LsI+wrtrWCZSUnBSNjm5HRGKcT9kTH3zOmgsTcFD8fFtF8w6WTbaT4TgccxZvMVFgEMHTG6VDLkvcD+d4yCQTkbLuMoYjwvJaaZuagF7r+/BowVkGfcVtCrOsaiZlXwZhz+KymHyyo/dYNULjd3k+l9Ojst1X41jq1RAr5aYgNcCAUbnIu3QHhVR3jWwclGTqNb34mqHC9FfeDYZtRyciefQn+v8quYgNp0H8KcY0BX4Hg9yVHXjGeRI5uLPNazl/SmYUBn1NhPZRhB4i+bnazkOcxLhzDrNHQaAy85nYECyAGnGs0/AqpRkaHBKq6KK3fFv8aabjJZxwVpmCrjM2F4LyzLuMrqn3EBHTCS/s6LV+Kv6OwcY5vG70zBT7Vwo/BMloJ01rsVbq1QRn7ybFAzNVdy1I6pqeQ3BCWhcuZCCaH11y4I5A4MeE+kVS4HzaJ1X+DHmCg4vwlzqUAqlXVnMxVrXAg05jc7PJ+g4LAK20Rj8XeMlJ7cjgjEuRq98U18JCxPVrU0z2g0oGsbRP1nCExJjuk9rkBxZVdtKVqXKDf76FGDny2gZF4zxJyFzkhbIlRMSX+dthqkt7kKJZFtacj0qTzSffAsc6+NFItzruY2n+xaOpjhFwBvcds260EDW4PRZ1bpYzCdxIRlaFTWz3B6KMleofFJdKxeOEMyMV2ttgw28h1n1h7tR3tk3o/LKLnQDeVNKD++DuVUj4Hn8FXsVMg+7z9vsI/yL6BUoYT7+ZbA23vNwb0WUK0yc4A/yTZLZGjdbKQXz0y3j2gwAN1nO2NnQhWyWMCpY26o0vh9qlq2qgDvhYDLIO1T0YRJqydoMgnMTES7upHN+DjjXxnqteASTs7/t8zbKtnCtx+9v6waBXvJr30dpE64vomv5nRv8xXOK1BqZKqXW2a/lAg4N1mot2Mg003Cv5pWLMiGY1RBhN43b/AI4Kg+DjTeBcaic7pswb504C6U1a4paYEaRPWv/5Q4Esg6cZQ0lm61jLhodN4Rglo6c3Hb3MYukWMMY9EoH7eZI5iwZS2m7AeCH4+ixNsBs9C5ntLguUvD7yhiPp32+JSrPbhfN+1tjYLR1NGk5X6KGVGNvTgX/CaFtNxzXxSOclucbbyZwBOYLHLoaUeA4OlcQewGqUMqrO8KRKOcbL8xDee0WQ1HIZ8D+qBytnHAkD6FPzLXOEfwmGNMn2dJBEPgn1JKkluejhCeb9QmGv4nyjF1apM+Pq1CpGKYGUWejXIRkEbTVbHfiJTev2xqahWAmupbEJbdW1HOCrpzcdu/NGazeLMkw9OWhNgm4Z68ZG/ubkyFidjYv4V68exZm04gXVUZbVV+VuqOivTTvbT3K+/FSA2dyDmmWcbvV0FRWxm8xJ8opkMyIRxieh5vue1Ru20l4n2UqRlYCp6J0KZMFcDxPAfsAr3j8/hQfg65n3Jf06134es5328+T6HOwlhdFgH2QuQeP6cF8iWTviijv5vPkQzFuRDLCZxC7TgguC8Y4oSrqOxc2hRJf3h9zy7CFwp/dwbWJ85Qozd5jUa4ZXZE1qIKs3+JRLDkYZYYQDEP6aAPJWimYFKrlPDErf8/8vtP5ZnWSQ4VyovETyH8mJAcHY9zZYvCa/lcNjdyseTmjZfQimRKqbVWB6KBcCg43cAP83p0luR6YauCUakgr3e5/I98GShiGuUT5EiQPJqrZ39D2m1HLB4MMtRld+GF0A7AjHctH5JuP3BfmmR5mTFLud/3s+xfACXQtu7g3gENQxTC+ZvCCU/gsWMt+CE6QubfB/xCcEIpxRC4uAlqDwFrmiAC7SahF5jTYk8D9DuwSjHKdhmWxRcDeqBy577vJc2WxOwC7ADN+248CO6FmA7/tIm2SRCkd7Axc4zP4IRhlYel6BrkmFqtz6t8qF+9nlVGmdEZDDJrOumCMcx3BQR4GmSulYNLqJDtnSLdrmfsTD1MD5jSdBPytIsapGR4SUVTlkm4m0NLzUbidSndCcQoYDS0tmpadz8BUCS8ZK6IRfB1I8usB0zyLf1YCde7/f4eqfnwSlcdY340DvSHurBDuA/kl99//QMngFDoBdzB1DPBr9+GfPthbiZq1e0zzeZW4+/4tcCAwkM7V8Ewf2HwAPO3eqy9hYHlM1lCSWMVgUhyDYBitk88lsBTBMwIequjFUxmcjzqN+vPoK0r5HTBMwL4SeqX9SRPwmoRHS5qZPeBmPvGwmxWofO8mlL7fU+5z5y26N+Xu/TPC/e8GI4DTULOifunl3pvD3EHfNgV07hveQQvcvlBnYiefnUOf0h4cmYIRDhycqX8LeFMKnkzBvVXRwvJYrouwj5CcIFTR2c60lslbLmGBA486JSxoT0XghwfzkrGUDihnkVAPbRPB318r4pyRYfr0cjxo+mTBdWROcC5FuRkcoXl/Tah8qhb5f3XjGeSWn29v4BxTSMaGarnL4/fLUJplK1ECw5aND8kgynFjRRGcT0+UfmVvd/TbCHmbaSpHDYB6d+L5p9xAPkEn5LEuvYhem61lgJBs0SxpLFlHQ3CGUUswrXwapqJHkj7JAGWOZGVFHxIacqB2c2ej4hRGGkWhsjVKg/ZLQ4PPDdvvTLOBtZvcn3ln+QUMSDbTNykpdQJ8XbEl8Xzk+Ong3RrK+n5JKFVCH2BNaj3LK2/Jvp+0GJl/UsNmPRq5XcLJmoOUPwZruTrDzN9YzMiKzESdg2znpfQU8EvN+/0GOAhaWsIsv4AB69fzD5QXqy6+lXB6ZSzv8iMWi8VisVi6OBmXZuIRRiO5Hv+zVh86gjMrojyX4XdHoTR9dLt8zEMtfXUUwfdDlVjrlrlZgZpab2EKLWsoaVjFJJniSkRLDcFckfCckJwVqtXmUWmxWCwWi6W7B4CgZgPLGhkPXELuyzcJIbnh+xS3D5rOugy/PxCVa7aZ5vN5DTiY7JOHq1B5QLo1Bz8GfkWGyqtENdtJweWoytrc7N0k/xaCaypizBbFUdpvsVgsFoulkALAHwKWsZRTzm8RDJeSA2k7aTQuYbEjmF3Ri7ntrKH/BCUqrNvl411UwnuummS7o5TTdR/P2+7xNGb65bJJbNPczBghGIpkP1SeVjpJBB9IyUIpeaCqltdsl7VYLBaLxWI8AExnxYVsuXY9Oziwg0whA/BFUxMfbX9bVuXrP0Itu+quiq1Hzbh5Vc43NSP5LKqitF1ZBVmDU/cVA0tLqJQp+gErhODz+Grim4o2WiwWi8VisXQ1+gP/RS1d6vz5EvixhuM7CiUarfv4HiXNMs5isVgsFoulO7AlysdPd3C1GjXzp4uxBo5RotTeLRaLxWKxWLoNZShhR91BVRMw1MDxXmkoCLzCdgWLxWKxWCzdAQflMqA7mEqhlNFNUWsoCBxvu4TFYrFYLJZix1QgNamLBq5JMOezbLFYLBaLxdLZ/NFQ8Dc9T8dfBiw0cPzrUB5+FovFYrFYLEXF0YaCv9vJr7F8L5SUi+7zaGSjybfFYrFYLBZLUVAC3IzepdMr8xz8baAHcL/Gc/keGG27iMVisVgslmLlDOBrnwHTJ8BhnXweAmWJt9bnufwX+LntFhaLxWKxWIqdfqjZwKYcg6WVwGXA5gV0LjsDD6OqkHM5lwQwAZVXaLFYLBaLxdJtqAIuQvkAtzWTtgx4ADiBzN64hcJA4FLgBWBNG+fyBfAgquq3h738FovFYrFYCgXRSfsNADsAfVAzfN8AdShbt65GANge6AuUA9+iPIm/tN3LYrFYLBaLxWKxWCwWi8VisVgsFovFYrFYLBaLxWKxWCwG+f/XbF/te3kVagAAACV0RVh0ZGF0ZTpjcmVhdGUAMjAyNC0wNi0xN1QxNjo1NDoxOCswMDowMA2tsb0AAAAldEVYdGRhdGU6bW9kaWZ5ADIwMjQtMDYtMTdUMTY6NTQ6MTgrMDA6MDB88AkBAAAAAElFTkSuQmCC;" parent="1" vertex="1">
          <mxGeometry x="196.38" y="645" width="127.25" height="20.28" as="geometry" />
        </mxCell>
        <mxCell id="yVWfJAT9jEzw2ERcWEyI-5" style="edgeStyle=orthogonalEdgeStyle;rounded=0;orthogonalLoop=1;jettySize=auto;html=1;entryX=0.5;entryY=0;entryDx=0;entryDy=0;endArrow=none;endFill=0;" parent="1" source="OKPv6l8iK5C8od6a9RTo-21" target="OKPv6l8iK5C8od6a9RTo-2" edge="1">
          <mxGeometry relative="1" as="geometry" />
        </mxCell>
        <mxCell id="OKPv6l8iK5C8od6a9RTo-21" value="" style="sketch=0;points=[[0.5,0,0],[1,0.5,0],[0.5,1,0],[0,0.5,0],[0.145,0.145,0],[0.8555,0.145,0],[0.855,0.8555,0],[0.145,0.855,0]];verticalLabelPosition=bottom;html=1;verticalAlign=top;aspect=fixed;align=center;pointerEvents=1;shape=mxgraph.cisco19.rect;prIcon=router;fillColor=#FAFAFA;strokeColor=#005073;" parent="1" vertex="1">
          <mxGeometry x="220" y="80" width="80" height="80" as="geometry" />
        </mxCell>
        <mxCell id="yVWfJAT9jEzw2ERcWEyI-12" style="edgeStyle=orthogonalEdgeStyle;rounded=0;orthogonalLoop=1;jettySize=auto;html=1;endArrow=none;endFill=0;" parent="1" source="OKPv6l8iK5C8od6a9RTo-22" target="OKPv6l8iK5C8od6a9RTo-15" edge="1">
          <mxGeometry relative="1" as="geometry" />
        </mxCell>
        <mxCell id="yVWfJAT9jEzw2ERcWEyI-14" style="edgeStyle=orthogonalEdgeStyle;rounded=0;orthogonalLoop=1;jettySize=auto;html=1;exitX=0;exitY=0.75;exitDx=0;exitDy=0;exitPerimeter=0;entryX=1;entryY=0.5;entryDx=0;entryDy=0;startArrow=none;startFill=0;endArrow=none;endFill=0;" parent="1" source="OKPv6l8iK5C8od6a9RTo-22" target="OKPv6l8iK5C8od6a9RTo-4" edge="1">
          <mxGeometry relative="1" as="geometry" />
        </mxCell>
        <mxCell id="OKPv6l8iK5C8od6a9RTo-22" value="" style="sketch=0;points=[[0.015,0.015,0],[0.985,0.015,0],[0.985,0.985,0],[0.015,0.985,0],[0.25,0,0],[0.5,0,0],[0.75,0,0],[1,0.25,0],[1,0.5,0],[1,0.75,0],[0.75,1,0],[0.5,1,0],[0.25,1,0],[0,0.75,0],[0,0.5,0],[0,0.25,0]];verticalLabelPosition=bottom;html=1;verticalAlign=top;aspect=fixed;align=center;pointerEvents=1;shape=mxgraph.cisco19.rect;prIcon=l2_switch;fillColor=#FAFAFA;strokeColor=#005073;" parent="1" vertex="1">
          <mxGeometry x="480" y="320" width="80" height="80" as="geometry" />
        </mxCell>
        <mxCell id="yVWfJAT9jEzw2ERcWEyI-1" value="" style="group" parent="1" vertex="1" connectable="0">
          <mxGeometry x="200" y="470" width="120" height="150" as="geometry" />
        </mxCell>
        <mxCell id="OKPv6l8iK5C8od6a9RTo-4" value="&lt;b&gt;Lenovo T460&lt;/b&gt;" style="rounded=1;whiteSpace=wrap;html=1;" parent="yVWfJAT9jEzw2ERcWEyI-1" vertex="1">
          <mxGeometry y="30" width="120" height="120" as="geometry" />
        </mxCell>
        <mxCell id="OKPv6l8iK5C8od6a9RTo-9" value="" style="fontColor=#0066CC;verticalAlign=top;verticalLabelPosition=bottom;labelPosition=center;align=center;html=1;outlineConnect=0;fillColor=#CCCCCC;strokeColor=#6881B3;gradientColor=none;gradientDirection=north;strokeWidth=2;shape=mxgraph.networks.desktop_pc;" parent="yVWfJAT9jEzw2ERcWEyI-1" vertex="1">
          <mxGeometry x="10" width="30" height="50" as="geometry" />
        </mxCell>
        <mxCell id="yVWfJAT9jEzw2ERcWEyI-25" value="" style="shape=image;verticalLabelPosition=bottom;labelBackgroundColor=default;verticalAlign=top;aspect=fixed;imageAspect=0;image=https://upload.wikimedia.org/wikipedia/commons/thumb/0/03/Lenovo_Global_Corporate_Logo.png/800px-Lenovo_Global_Corporate_Logo.png;" parent="yVWfJAT9jEzw2ERcWEyI-1" vertex="1">
          <mxGeometry x="71" y="36" width="40" height="13.35" as="geometry" />
        </mxCell>
        <mxCell id="yVWfJAT9jEzw2ERcWEyI-2" value="" style="group" parent="1" vertex="1" connectable="0">
          <mxGeometry x="200" y="250" width="120" height="150" as="geometry" />
        </mxCell>
        <mxCell id="OKPv6l8iK5C8od6a9RTo-2" value="&lt;b&gt;Beelink EQ12&lt;/b&gt;" style="rounded=1;whiteSpace=wrap;html=1;" parent="yVWfJAT9jEzw2ERcWEyI-2" vertex="1">
          <mxGeometry y="30" width="120" height="120" as="geometry" />
        </mxCell>
        <mxCell id="OKPv6l8iK5C8od6a9RTo-5" value="" style="fontColor=#0066CC;verticalAlign=top;verticalLabelPosition=bottom;labelPosition=center;align=center;html=1;outlineConnect=0;fillColor=#CCCCCC;strokeColor=#6881B3;gradientColor=none;gradientDirection=north;strokeWidth=2;shape=mxgraph.networks.desktop_pc;" parent="yVWfJAT9jEzw2ERcWEyI-2" vertex="1">
          <mxGeometry x="10" width="30" height="50" as="geometry" />
        </mxCell>
        <mxCell id="yVWfJAT9jEzw2ERcWEyI-24" value="" style="shape=image;verticalLabelPosition=bottom;labelBackgroundColor=default;verticalAlign=top;aspect=fixed;imageAspect=0;image=https://m.media-amazon.com/images/S/stores-image-uploads-na-prod/4/AmazonStores/ATVPDKIKX0DER/8c53da29ddab62e0da7ef2c7041b6178.w500.h500._RO249,1,0,0,0,0,0,0,0,0,15_FMpng_.jpg;" parent="yVWfJAT9jEzw2ERcWEyI-2" vertex="1">
          <mxGeometry x="94" y="35" width="21" height="21" as="geometry" />
        </mxCell>
        <mxCell id="yVWfJAT9jEzw2ERcWEyI-3" value="&lt;b&gt;Router&lt;/b&gt;" style="text;html=1;align=center;verticalAlign=middle;whiteSpace=wrap;rounded=0;" parent="1" vertex="1">
          <mxGeometry x="230" y="56" width="60" height="30" as="geometry" />
        </mxCell>
        <mxCell id="yVWfJAT9jEzw2ERcWEyI-6" value="192.168.1.0/24" style="text;html=1;align=center;verticalAlign=middle;whiteSpace=wrap;rounded=0;" parent="1" vertex="1">
          <mxGeometry x="170" y="200" width="84" height="20" as="geometry" />
        </mxCell>
        <mxCell id="yVWfJAT9jEzw2ERcWEyI-11" style="edgeStyle=orthogonalEdgeStyle;rounded=0;orthogonalLoop=1;jettySize=auto;html=1;entryX=0;entryY=0.25;entryDx=0;entryDy=0;entryPerimeter=0;endArrow=none;endFill=0;" parent="1" source="OKPv6l8iK5C8od6a9RTo-2" target="OKPv6l8iK5C8od6a9RTo-22" edge="1">
          <mxGeometry relative="1" as="geometry" />
        </mxCell>
        <mxCell id="yVWfJAT9jEzw2ERcWEyI-15" value="10.2.2.0/24" style="text;html=1;align=center;verticalAlign=middle;whiteSpace=wrap;rounded=0;" parent="1" vertex="1">
          <mxGeometry x="600" y="280" width="84" height="20" as="geometry" />
        </mxCell>
        <mxCell id="yVWfJAT9jEzw2ERcWEyI-16" value="&lt;b&gt;lan0:&lt;/b&gt; 192.168.1.250" style="text;html=1;align=center;verticalAlign=middle;whiteSpace=wrap;rounded=0;" parent="1" vertex="1">
          <mxGeometry x="260" y="244" width="120" height="30" as="geometry" />
        </mxCell>
        <mxCell id="yVWfJAT9jEzw2ERcWEyI-17" value="&lt;b style=&quot;forced-color-adjust: none; color: rgb(0, 0, 0); font-family: Helvetica; font-size: 12px; font-style: normal; font-variant-ligatures: normal; font-variant-caps: normal; letter-spacing: normal; orphans: 2; text-align: center; text-indent: 0px; text-transform: none; widows: 2; word-spacing: 0px; -webkit-text-stroke-width: 0px; white-space: normal; background-color: rgb(251, 251, 251); text-decoration-thickness: initial; text-decoration-style: initial; text-decoration-color: initial;&quot;&gt;lan1:&lt;/b&gt;&lt;span style=&quot;color: rgb(0, 0, 0); font-family: Helvetica; font-size: 12px; font-style: normal; font-variant-ligatures: normal; font-variant-caps: normal; font-weight: 400; letter-spacing: normal; orphans: 2; text-align: center; text-indent: 0px; text-transform: none; widows: 2; word-spacing: 0px; -webkit-text-stroke-width: 0px; white-space: normal; background-color: rgb(251, 251, 251); text-decoration-thickness: initial; text-decoration-style: initial; text-decoration-color: initial; display: inline !important; float: none;&quot;&gt;&lt;span&gt;&amp;nbsp;&lt;/span&gt;10.2.2.250&lt;/span&gt;" style="text;whiteSpace=wrap;html=1;" parent="1" vertex="1">
          <mxGeometry x="323.63" y="317" width="140" height="40" as="geometry" />
        </mxCell>
        <mxCell id="yVWfJAT9jEzw2ERcWEyI-18" value="&lt;b&gt;Switch&lt;/b&gt;" style="text;html=1;align=center;verticalAlign=middle;whiteSpace=wrap;rounded=0;" parent="1" vertex="1">
          <mxGeometry x="490" y="297" width="60" height="30" as="geometry" />
        </mxCell>
        <mxCell id="yVWfJAT9jEzw2ERcWEyI-19" value="&lt;b style=&quot;forced-color-adjust: none; color: rgb(0, 0, 0); font-family: Helvetica; font-size: 12px; font-style: normal; font-variant-ligatures: normal; font-variant-caps: normal; letter-spacing: normal; orphans: 2; text-align: center; text-indent: 0px; text-transform: none; widows: 2; word-spacing: 0px; -webkit-text-stroke-width: 0px; white-space: normal; background-color: rgb(251, 251, 251); text-decoration-thickness: initial; text-decoration-style: initial; text-decoration-color: initial;&quot;&gt;lan0:&lt;/b&gt;&lt;span style=&quot;color: rgb(0, 0, 0); font-family: Helvetica; font-size: 12px; font-style: normal; font-variant-ligatures: normal; font-variant-caps: normal; font-weight: 400; letter-spacing: normal; orphans: 2; text-align: center; text-indent: 0px; text-transform: none; widows: 2; word-spacing: 0px; -webkit-text-stroke-width: 0px; white-space: normal; background-color: rgb(251, 251, 251); text-decoration-thickness: initial; text-decoration-style: initial; text-decoration-color: initial; display: inline !important; float: none;&quot;&gt;&lt;span&gt;&amp;nbsp;&lt;/span&gt;10.2.2.251&lt;/span&gt;" style="text;whiteSpace=wrap;html=1;" parent="1" vertex="1">
          <mxGeometry x="326" y="560" width="140" height="40" as="geometry" />
        </mxCell>
        <mxCell id="OKPv6l8iK5C8od6a9RTo-15" value="&lt;b&gt;Raspberry Pi 4&lt;/b&gt;" style="rounded=1;whiteSpace=wrap;html=1;" parent="1" vertex="1">
          <mxGeometry x="460" y="500" width="120" height="120" as="geometry" />
        </mxCell>
        <mxCell id="OKPv6l8iK5C8od6a9RTo-20" value="" style="shape=image;verticalLabelPosition=bottom;labelBackgroundColor=default;verticalAlign=top;aspect=fixed;imageAspect=0;image=data:image/png,iVBORw0KGgoAAAANSUhEUgAAC7gAAAfQCAMAAABlzOIIAAAABGdBTUEAALGPC/xhBQAAAAFzUkdCAK7OHOkAAAGnUExURUdwTAAAAAAAAAAAAAAAAAAAAAAAAAAAAAAAAAAAAAAAAAAAAAAAAAAAAAAAAAAAAAAAAAAAAAAAAAAAAAAAAAAAAAAAAAAAAAAAAAAAAAAAAAAAAAAAAAAAAAAAAAAAAAAAAAAAAAAAAAAAAAAAAAAAAAAAAAAAAAAAAAAAAAAAAAAAAAAAAAAAAAAAALwRQnWpKAUAAbsRQbgRQAEAAQEBAAkBA64QPQMFAXSnJxMCBkAGFnGkJrIQPmUJI0sHGmoJJUYGGIsMMA0BBC8EEBcCCI8NMl8IIScDDQ8BBXwLKysEDxsCCYcMLzsFFKsPPKgPO6IOODMFEncLKXIKKFAHHAoPA1QHHT5aFU5xGjcFE2qZJKUPOp4ON5kONQgLA22dJbYQQB4sChciCIALLVgIH4MMLhAXBVmBHpMNMx8DC0ZlGCMDDFsIIG4KJm+gJpYNNFJ2HLUQPw0TBEprGVV7HQYJAmWTI0JgFhsnCV6IICc4DSQ0DBQdB2GMITdPEmiWIyEwCy9EEDNLEVyFHzpUEyo9DhIaBmOQIiEDDDFHES1CDyw/D2BqlNwAAAAudFJOUwAH8i33/fsBA+2Z5x93DBhEiUuzJtQQq+FSftuRuaQUcDNlwzlfWb5qPcmezoNlXvkfAAAgAElEQVR42uzBAQEAAACAkP6v7ggKAAAAAAAAAAAAAAAAAAAAAAAAAAAAAAAAAAAAAAAAAAAAAAAAAAAAAAAAAAAAAAAAAAAAAAAAAAAAAAAAAAAAAAAAAAAAAAAAAAAAAAAAAAAAAAAAAAAAAAAAAAAAAAAAAAAAAAAAAAAAAAAAAAAAAAAAAAAAAAAAAAAAAAAAAAAAAAAAAAAAAAAAAAAAAAAAAAAAAAAAAAAAAAAAAAAAAAAAAAAAAAAAAAAAAAAAAAAAAAAAAAAAAAAAAAAAAAAAAAAAAAAAAAAAAAAAAAAAAAAAAAAAAAAAAAAAAAAAAAAAAAAAAAAAAAAAAAAAAAAAAAAAAAAAAAAAAAAAAAAAAAAAAAAAAAAAAAAAAAAAAAAAAAAAAAAAAAAAAAAAAAAAAAAAAAAAAAAAAAAAAAAAAAAAAAAAAAAAAAAAAAAAAAAAAAAAAAAAAAAAAAAAAAAAAAAAAAAAAAAAAAAAAAAAAAAAAAAAAAAAAAAAAAAAAAAAAAAAAAAAAAAAAAAAAAAAAAAAAAAAAAAAAAAAAAAAAAAAAAAAAAAAAAAAAAAAAAAAAAAAAAAAAAAAAAAAAAAAAAAAAAAAAAAAAAAAAAAAAAAAAAAAAAAAAAAAAAAAAAAAAAAAAAAAAAAAAAAAAAAAAAAAAAAAAAAAAAAAAAAAAAAAAAAAAAAAAAAAAAAAgNm3l52EoSgKoAFSJOVhWx4tpQjyUBHtiP//NtGJhkAdyMCStca9k33OYN/kFgAAAAAAAAAAAAAAAAAAAAAAAAAAAAAAAAAAAAAAAAAAAAAAAAAAAAAAAAAAAAAAAAAAAAAAAAAAAAAAAAAAAAAAAAAAAAAAAAAAAAAAAAAAAAAAAAAAAAAAAAAAAAAAAAAAAAAAAAAAAAAAAAAAAAAAAAAAAAAAAAAAAAAAAAAAAAAAAAAAAAAAAAAAAAAAAAAAAAAAAAAAAAAAAAAAAAAAAAAAAAAAAAAAAAAAAAAAAAAAAAAAAAAAAAAAAAAAAAAAAAAAAAAAAAAAAAAAAAAAAAAAAAAAAAAAAAAAAAAAAAAAAAAAAAAAAAAAAAAAAAAAAAAAAAAAAAAAAAAAAAAAAAAAAAAAAAAAAAAAAAAAAAAAAAAAAAAAAAAAAAAAAAAAAAAAAAAAAAAAAAAAAAAAAAAAAAAAAAAAAAAAAAAAAAAAAAAAAAAAAAAAAAAAAAAAAAAAAAAAAAAAAAAAAAAAAAAAAAAAAAAAAAAAAAAAAAAAAAAAAAAAAAAAAAAAAAAAAAAAAAAAAAAAAAAAAAAAAAAAAAAAAAAAAAAAAAAAAAAAAAAAAAAAAAAAAAAAAAAAAAAAAAAAAAAAAAAAAAAAAAAAAAAAAACAPxo8bvPiIU3D95fNQBy3ZRGtjsMNwzifthriAACorU5UvAXlt8MsXfbEchtay2H2Y7Zl+zV/vBMLAEAdm13RLc8Yxzv9ru43sl2RnZttN3YvAwD4D3rRqh+Hn+L+KhlVPo5I5ofyklmu39V5DeLs4miDdFd1tDFKvlZon+6PKxRZAwCAqxsk8bp5UtLaWZoni7Ofb9ZlpWA+7Qi1jjrJMKie7XPr7MH7JB9mp0eb6zjx5wMAwNVMtvP2xZ42Dp9Oy3svLX83W04kWzcf7N1bTxpdFIDhj5NyVA5SUQ6KiKjgZC4gkYTfQSRcaPRCEy6MUSueaytKrD/6g9pWBOZAhZmBeZ+rXgxIZ+2ZrNmz9tpLvohyZB3u7gExu+aOSh4+FU+TuwMAAAxDct6ulKltLibfj3euWwVVrO45zu5YjYSEXWVk19+XMUwnt3J5hePtiSRnFwAA4HOmgyl1uVp063cW7lX5gV9tZuJBFqqOCefCAIEVQr8n3W2BiLoPZIKcYgAAgE9IDpKs5dq9HoMuYRCOPhUzsxvprUQokwvnMnG3b4FpeQ3Mrfmy8VT7lIcSW+nVnpULX3yRgeIqePytZzhfeIBPSNTGAwAAQNls1jFYtubIZIWB2d3vdRIzG775niaSnvk05fAj9GWl95xH5pdX37sGrWbtA4c1n03lBxw97iWCAQAA8C8WXIJGwr52Y8C55bhUfmgPBelCMxLOYEhq4bE9vt4Oi3c5rNU48FAvAwAAMLiZQafbP8WRiUXl/1503UJQhs2yrFABE45ltBwGeTcNZgAAAAY0FxWMJkLqPuy03WO4IIdZ0gAAADAQv0swoOgCkRlijMNGjLHLT2QAAAB6WWxrW9lQLuqyCsKUyxUJZ0LZxRW/bX1KMKY4E7JDYssYNMRT67bgymI2lApHXO3HR2trWLZG5ZqN9y0AAMCsnBtbKbswbqZitB4ZgiW3Y+xCb89srbJEGQAAmI8t5hHGk2uZqddPsvisYxr8SIxXLgAAwFz8GWGMReka+CkLEcf4Bj8f3yCCAADANGxjnba3pfyd/59Zm98fXFgIrs4tUUrxl3N2brV9Vvx+W2d10XRwc9yjz0IHAABgEpatKWH8baYtrYw96EukIp2F+vZcwuc3fSnNTHAxEf5wWiKp1nmZbQV/JTcBwbcv8oAGAABMwLspTAZXxiW5z+ryrIkDLL0BrfQpG7tXLrNcyQAAYNLZPIIZTIWCppyUtSyEHKYIsMfGtQwAACZb0iWYRWTFdKm7JR01TXhdq1zNAABgkm1YBRMx2Uar02tRM0XXSuYOAAAmmM1UeXtLxkT9R+biJguulWoZAAAwsWYjgtnYl6fNEVvnot10wY2wQhUAAIw5i3djIb28GAjE3G53ILC4nF7wJ+eWnDObggmFlkzxTJYxYWgdmxbn0lzSv7DSHu3uv6N9w8veugAAwOi8QV9i09PZVqTz31bBlCIm2GnT7zFnbKXeMuQ9mwlf0MsdAQAAGJFz1RcyaWaumN2lJz3461NEuW/nmZAvyVZNAADAUL6skLTL2ZroQndnjAjLLGENpb9whwAAAAbJ2tMhO/mZvMQEz7ta5omvwiuXUHqG+wQAANCdN+AiM1OxRHVilyvOxImuinl39xz3CgAAoKvVeQdJmSqZCZ1znUkRW3UtaObZsAkAAOgnmSEfUy01kZk7efsA4knuGQAAQBezifz45EwHP7/qnrZNYLWMIfL28o/DcZl1zy5x3wAAAJqbXh+v2vba8dklmfuw83b9X7kUbirFlzFqELnCrQMAAGhsKaRb7rN/UPiXBO9cFK9+bpO5D5FF97x99/5CFGv/8smvlwc6DYJZ7h4AAEBLfh2n20+bpaP608DVEbtNURT3dsr0lhla3q53P5nn2nErpueDPscVbn/WropHetVOeVikCgAANLSs606ZpxdiOwc/aTzsDpTm7bU/Vqqf6vjT5yeon7slpG/aflsptgPaHGgQnF7vHLWzffFIvzUPdsplAACAVqYDOs+0vmXuLcXHnX311S/7vxI9sVQ7JHP/PKe++y4dnLwNgb1n9dUxN/W73wNHz7y9JTbNXQQAAGiSsSX07yNyJf51fP7jVuXHXv7k+2fPuv30rJNR8HmX539C+aCyPOaycVR8HzQnOvcYcju5jwAAgNGbzhqgOcfXI7FT9exaVSZWEf+m7moKZgYrxVGbuU/EbOu0e0QvU9S0/jk4/xv5HVXPed9Pjj+Ml7OC3gM4y5w7AAAYPbdgBNsV8aNS5Uk5d9+9eD++oXz4bfV1+L/cEZuEURAbTW/H+2/Kz0rl2vvU+VFBRdZ+XuwaKzv6j9/JGAUAAMDYlg3SELtQE7uVThRz98uOHK76qpj1nYlHtyOYbfX5AoFAzO3Ozs/Px+PxzZyx9+VZyuY2Wz+z9WOzbnes9dN9vtHUyezfifeKT2z3HZPnx0rvTcovR8WecXJviAG8zr0EAACMVtAhGMWO2KtUeZDPxj+k+1dKdRm3oljc0aIc2rVi2NIJ54pGrT/LZ61MXOlkX190BlB+56Xtpz5Zu1h8NcbwnfJzNwEAAKPkNdJ2qT/Efi4actOw5a5iZ4XKjHYx9cW+Fv+ZlM2YEbelNIrma7tbZ13+mMPzD9Fryj2kPdf3+g2P0o1Rhq+LnZgAAMAwzXhtG/62pM1r+e8/56iyuMIQM3exeCIz7d41T1+9lv0LN78Oqmsx6W5fNGCnEcuiRh37y2/dHWW7/RR+fHzqEl/lJtslxsY/5e2FkSxmjbcCbvHaVn9dYBs27wz3GwAA8C+ctnQgFLZ+nCIM50bWJebs8azxdDBogtwQJVy8SH3VYfehFbm9VLffUsWLSy2S103DTbrbchrNPl+/zY5fyR3z3J2L70m18C839iTGRfF60AeKy587lbud0XShyXVdYNZwKJC20SkSAAAMkq/54latCwfqbxPg5/XXA/VbKvWtc/89ld6QqIK56j5y70m5gWSxvq3BObD7DJW0OX12bWK/+6dFUEOu4Uyp55FLoqNk/VhyVAxQ3757+VJ722S1+KLplWAN+WzcgwAAgBpzgaguJb/f/y4kLDYr92pbqJ9I5mji8c6p9BPCxwxQ+o/92bNJvNNkz6aMgeqevVpVt+9X/5xk6dUEh4+9YeubT9+eFaWHhMo+kKc3Oyff3sfRg/YXQzQwx50IAADIc66lBL3cfJxSvajc7yuXznz9Jp2miaV6nzKY+36VNZKlMAfv+duTFifBEzTKUAhqtA650HjPtCXjfd1vEr1PufpzRSZtV9X1/aFxUv346uZAl6shn1mjZgYAAMik7emooKP9nuyseFW/Lgsqlo9Kzrr3brP00rf2+V4ip9vtOKgmXy4znOYz+YDFCEPBEssPKarb8uel3NEopir1FbW+we354nKtJDcYSgovTQ5fa83eZ7pn3a6HMKk7AACQktzUuUHeQbVfvtU8e5Vr8Pgom7mL1e8FVQtazyUeEDqPkS+XqVSGUwefMkC5zOzQXrzsHjXUlcm0z2//Y27v+oes6xXI18ax/FA4k/kdty+V/oPvVM8LIrfKXQkAAPQx484LeruV6gbSrN9I1aG/igqaD6qq4quXiom7eCzXTLAmHpWHchYiuqdrG55hRfS5KbtR6cuHypZm32OepPLxD03fCz+rSgNBqual/Hom9dlmWd8LIu+mRyQAAOiRjAoGcCk9aVp8bPTNvE5FRSeHHfOykn+hb/OQcndJjWxfnCHVVdhX9B0L60Nr3r7fehL7Ll3e3lUCs9fvmLr0E1nny5pHxVFw3K8aqrBfv5P+yLdT3a+IMB1mAABAlwW7wwiJu/AgW6Vcrd301KwXlBN3sdTYllubKlPEftlTbyFZD9P+5r0h7bLq1rG62RkbWjRfS/3XkP6uojn/n71760ljC8M4rhZPrW2tWmt3D/bc2r07mQtJmITPQSBeQOBCEi4M4aQCIgfFIB96V9CKOIe1YM0Inf/vlr2N5Z1ZeWZ817uGv9yIwH9jtjs1njGcL4LS/R/ejdl21yTaE3BHBL6xOgEAgEFPd7UJ0XDK4NnLuOX2UZvUdh3yIgm7/6p1Lzne74i37Ifp9eyEu2q+hvUHa5HYfKesllHbDpX2hVPXuqZVS3blOuk/RAUbCZFLYGjra66Wdkj7RnIi7oj5D6xPAABgILdrkyPmmMCMwmB2L+tiYjm7Dner2X8XuvCckWT/46aiFomVh7kUVpQdlnrTCGPRbnJkkrazwyODHLab9rrcq2nBK6A6kNqbzq01olPf3feUFQoAANz4MUG5XYufCmSwgewuGtv0g07Q5qRV8+2nFaF0f/122Pn4T6ktqg/S3PxR2bbU4M0TmHlvUcWsJ8q4+0zUdGyAudRCUUP0AsjLpHZdbwUn5p74xBoFAAD6VucnKbiLvkIPx+pBgdaaO1EsKvBIMPjGPGS+cfHAdABNxHTayeiWH2C4zM6cqiqGsjY7TjXt3DxuZ222rppW6+xCov5XrS+h84JY0jeqk3NLLKyySgEAgCsr7hyRGakmK+VGT7ecTLWLwv/niWgQ2zus1g1dtUxwqEnb5KHBbMNl8M+vklfzrjbg+SmqawFV1S+mbWc8dqy+/NstAsWs8soepI4yB6L/cUziSj+q9670TrNRriSrcfU30/IK6xQAAJiZWfquOGTs12v5dOl+J0S4lM6fdY+cY01TIoupz+26nr15xjiy/OnGucnvfZsJFR3FtODxQJFPyv70Er9tRjk2+fjMOlvfdMTnjl2orMzVUnf8R+aSjWisdWqYXemZZl3pKMnvHKIKAADUNriHkmcFx1eae9louW33TrqqP7DjfuaK2HTbG2W74K4X1CT3+a/TmdsjA380acnk9t/fff+bq54+8DVg2FUwWO1G046jbBLZ2lFI0Tc6T5s7AACY2VbZKHMo3rWQPjy3eiUZeujgrp9e9TcHbbe9miT3wSSXVZPYdn94+ASnbCRofPBtect04L3DFtL6wUNfAiWrf1y7kT8OC/+YjrJmmW3WKgAAfO+tyj/oaxm5cJTv7k9kcNcP6o5PIeG6zRv338k9OGXJ/YPmSm6/3yrj1AnV1LSGoU9kcK92YntSP6Wmbpr7C9YqAAD8bjugNLgH89Ivt/Pd4RONUg8f3HWj0XUcazOU3IdOgopNV3JXl9uLLbtzj5zHABnJ6CRcAMN7MfY72YTsDzlTeGvNbbJaAQDgc78U70yVT+5XL2WjR8GRGm5cTW7Or+XvToU80l1J7t70uavrkykOD0mPiMyBdHvDsbzBJpdi/fBihB9xpvTW4hgmAAB8bmlL9eC6YGykmJSIXd4EvHZYnxJ7+7at24qmQs57MFvm64L6OZA37ozOPJqa4p7evHLfbxZG+6UVn7z6hsEyAAD425r6kdMjJnddN9K1q4Mz4yf61LgY7Ke4fxxnRs036v4899fK5smECpYHlvYeyhLTU9zeZKBUdOTLMar6ztphvQIAwNceu3DyUnCMk3MuovUpyu26ng7ZduYrym4Bl89Q3Qm4+dQWvu2ViZSmqbiFemaMoZSHym+st6xXAAD42eKWC8H99rT7v59xe75m1mJCigpPXD04c0PdRNCMbYQNtXxzYaj6a8udXhkWLAAA/GxDc4VJv8Rf62YD4rn5x+eKMpuLU7y33ygrvPk4GCN1/XGe3D6WFVYsAAB87KtGch/3nXt/KGTK4sQgo6LmG/0869Y1MPtTWdk7Vpt4c7Yf/4UU7Use8poVCwAAH3vrUnA3mS3y1+ql0uqe4MzIkb1fdOcSWFpXVvRzy+/o5Oo7SoXJ7ePhDCYAAPxsXSO5j60V0pI2w1IS7YlObeqe3ZI2wbxU1eKnvrkiYu7kdu0VKxYAAD72RnMvuftnI2ImantkUCmi5hv95MYV8FRZwasHdl9CuFkgt4/rP1YsAAB8bNm94K7Fj3X0X8kXLb6iSEjmC11YVX8BSA9wj1v9yrlTCt2XDbl1Sz1hxQIAwL+WdjWSuxdRzuIVbKMglfGWlU8V2ZiTrmnS4g8sFPtawbXcrgVYsgAA8K9NzVWRE2Lc0CTzu/KSb2d/Kh4t8+ylbG4/0WvmBy8VKLLruV3TZlmzAAAguLvxvr1aaRLcb5jH3QvZvorHauv/7wh/Q8laPIKgL92pV4sEdwAA8ADBvRj/LbLfV031Jfsq5b5GT61Wi0YPM5lYtnB8cXpAhBtklM1ysHxH9FeV5f8wSu9TwuyTMyp8dwbo6cVxIRvLZA6j0bNardO7QS6vb5f69e1zfTO1r2+uqxutSHAHAAAWBHrcG6QwJcImveEV+RkkgY/qqv8lMNKEz7bMAHdIPd4lHbYnL7JmAQDgXwJ7E7PkKSVMxrlH+5/kZdLz1raq2j/fGu003K7UAHdIiDJVBgAAWBLIbpE9ApUS98e5p+23rppbX1JT+qXvcrk9GLv+bTP3BrgnKK4SJ05dUy9ZsQAA8LHPAomtTqJS43iog7kYtt+6auGpmtL/kmxw/7P9tMQAd5e6qapONXjHigUAgI8JjRXJkKnUGBrnXr795FKmzf2Risp/kTx56fD2cNi7+bLI6CBFml4PFQIAAFNF6MD74gWhSo2M1QhFoyKRoV8qmC3y7I1cbu8M/CvOGODuhrTzJuUPrFgAAPjYqlBqSxnEKjUGM29wsDX8ICWRot+OX3jJCe6VwSugxQB3NzYv55zLsMOKBQCAj22L5TbGdKsyMJIleeeDvX3xGL2wOm7dX8vl9tTdqfy5e4NxMLaycxnmn7FiAQDgZ2IdE8EWwUoNo27WNX7lIi4xE3JzzOe1J1K5vT00NqZh2kGDceQFzuH6j/UKAABfeywY3TgIVZE/PTGh4TGbBYmDmF6NVfTFdbkDU4f3OLRMO2gwhtO4Ny1SAABgion2TDTJVorc9MSU730iM8792zhF/yE3wP3+9tOUaQcNRlcXqcQa6xUAAL72TPDYe5pllLnuiTH5QjviaXr5+eg1X5mTCu6HJn0dph00GL1RRqQQc7OsVwAA+Jto10SbY+1VaV0dxFQxa4BPisfp9+6XvO/S7Be9GuUeYUqosr/CxN3vjwIAANPvm2iAY7KMMrGgViyZfZBoiwfqNdcr3p99Y9rGnv79LzimkKqUhUrxmtUKAACfm10WbXXmhExlDoMW489PiuKTZUacDbgpNVEmt2f+i0aDWcqo7EFOrDuKThkAAHzvsWiGOyJhKXM8XobreeFyvXujb6y2Nhg8xilzkBOqBTNlAADAo13RFMchmR5oih/D9HGUcu/sygT3DAVx35lQKXY3WKsAAMB30RQXYfqf+yQ2qP5cki/27EuZ3N6lHu4rhYRqsc5KBQAAZtaEc1yNlOXBhJGccD0+yBf7H5ncnmKSkAcqYsVYZaUCAAAziz+FO54ZAOiBtPAJqnPSw9w3AhK5PV6iGO4riBXjMwsVAACYkXnlXiFnTUzP85V/ZUu9Pi8R3GOUwoPWqDYv3AEAgLhF8QGBnJ86UW3u85L7U1dlGmU6VMIDebFibC2yTgEAgN8+iYe5OknLizb3iGg9PkvluaWXEi/cqzS4e/GQti9Yjq+sUwAAYGZme1niNWyarOVF37Nwm/s3mUr/kCh0kf0MXsiI1mN5m5UKAADMvJLpe+YUJk/U3Dg/dVPmCY2h/V4Ii48Qes9KBQAA1jQpBdKWFx0UKdF6/CNe6bcSZS5TAy8cSpRkjbUKAAC/e7YlF9x55e6Jk5BgPcRHQm4siFc5l6AEXjyf5STuPJk/rgAAgL/SC00Sg2Um612s8EjIdf6uMmnyMjfe/C9WKwAA/E3qRJ6eLnnLE3XRPLchVumPu0yCnDQpqTsvsMF6BQCAr63L5nYttEfg8sJpXLAgr8Qq/U68xG0mQXoiLXnrvWK9AgDAz3Y0eWckronqo9h9pLjSwWO+fE+UZW+9L6xYAAD42PcRgnuE97HeqAgWZF2k0p/FC1z7n707601b68I4nnRI2zTtyemczmn7dq7FxUECic+BjLgAwQVIXCBECDMECCFK8qHfBkImDCwMwdve/98HqKh3vPXYXmttLv1yvqn4Z731vrFjAQCgr03DDkZ8K1YsI3gR+4RCGeU0Zw7uxg/2LAAAtPXOVnBPkLmWQ3qs5uepC33vt7xQhsNxlyQ1+633lD0LAABd3f7PVnD37xG6lkM6WWZz2kp/ZaKM61tT+/0MDJYBAEBX64Y9JVLXchR3F/PK/f5z+dFLWS77chzbufXesmsBAKCn1Qd37QX3JKlrSUqLqX3e4ugl5YRidm69h/fZtwAA0NKWYVeD3LUcQeERPe8mr7S8wr3KNV+SiL1b7wn7FgAAWvplO7gzyn1Z9oWTR7YnLbR8pMwu7QvLUrV3662zbwEAoKVXtoN7ity1LO0FHKr5me4F5WQDtu68u2/YtwAA0NEzw75DkteSxMOyQDfh+FT5oan1IBdc7UoZw9hg5wIAQENf5wjuvJldmh3Zivwav9BPxXM+97ncin1JGbXFzgUAgIZezxHcWySvpSmLVmRt7JtY+bT+Nhd7afJ2b71H7FwAAGjo/RzBPbDoad/B4j5lGtYqsv7Ut3OvcyzKxbauR08XF/1PHtq+9X6xcwEAoKFvcwR3I7f4Ym7zKE1GtCI7qefWY+tl/meN+qe5HikLR+biD6Uq2b7z3rFzAQCgoZ/zBPejG4hIe+1Up0JSHBGVnZ/60XqZ/4hHBYW41COpPd1JNeM38A+3bN95n9m5AADQ0PN5gnvvRnJSse2vd5lYc50pWpJXlodqrj507iOK2zW6qUD7RuqHQgHbd95Pdi4AAAjuluMBmyetZNiqxrp+Q69nKy3DKJcotr4a81L25418kgbCBNf5ahV6t2f4j/du5h/fsxry6c8na8fdaV2rv9m5AADQkOBYnt1+gg5GK4VIyeyc1MrJZD2VTByY6ZvrJE0n/kaY1k6W6HhBNvT7m+Xj2V3hKMgGl/lSsDaTfy9J9eY+/oRy3WoimUomk4nqcdPMRAqNwdPqPjXuAABg1EtBnOs4kZoKydO5NbUINdfnkqLwbXEI06b0hfsJF3konulP4Kw50m8xtfj9PTsXAAAaWpeMfdxzJDoV6v3xhG3GzAw/Q9idFCg9fClQ5CIP2lELJ/1e4HI6qOZCv2XnAgBAQx+dmh4jiU+RQVl3r0ug7EtIFuvOi+trvCEslHHm04qC7ajNQfF5PaLsOn9i5wIAQEM/lC59DmYGXXr+coZyd5+vIorf36+vsfR03F3agX2+aOmsIqnnVGz35aYv1TY7FwAAGnosehtbdixHhTJnozcC1RynqtYki/X82hLffyUM7l3tr28oUjubnpTPOPbXJhgftLbKzgUAgI5kg9wjzoWprDk8eiiv/clMh37JYn25usJPhLk9Ftf9g0Z7+JcWNh3sie4yxh0AAFiTnamZd7JSJd4ZnlQTSJb0TpcnNtpTpa2ppt7PRN3zF90xJ2O771BwLNNr9i0AALS0LUt1R46mquLB+avmQLWgccmM6JX71fZUaWtqTOMuguxO+WK0TtPRZ8OgpAP5NvsWAABauiesgM45PGZ/ux4AACAASURBVOmjeun1f1PfKTPVmdtTX1PhPq1EphO76MOuOvy3VRIs1Ru2LQAANPWvLNeFnR45ki5fGnOj7ZQZ0WCZnzYezHY1rUGKZy6fa5VwuouiISiUMf6wawEAoClpKUXN8YyV612u7Gjr2akqGizz7GJ5fwhfuDd1vJjB9Hk/6qmk42d9heqCpVrbYNcCAEBX0ubFkvM5azgb8ixn6dipum/M9kp2Xba4AQ1nuEfNK4MXexHnf1JbslYv2bMAANDWpjC4+9POB5uL2ZDDTlXt4qakefHV/eHirj5wQ/OxEw+BheqVRl8HB7df2BGt1Rf2LAAAtHXvt3TQtwo9ofHm1SrgnqnZu+KCZKl+DBd3S/hQplm772EzfLXCv6lCz8S+pMDd+MyWBQCAxqSv3I2kEh2hl2ZDnr12T2sVOiVl0Oej3IV1UFWdLmDo0vDHwV9QR4maq728aK022bEAANDZN2lyb6kxQr1xfShiz9So2j0jWKhbq4OV/bAmW1iNHn32uuFrXxuqanxuyNZFS/WU/QoAAK1t/ydN7geKpK90+XpzpT6v3UMxwUJtDVb2u/BTiq6V7SpMgBwua0K0VHc5fAkAAM29lwZ3daYGRlIj6XMnpEf6bArW6f1gYYXfUnb0uHBRc6QYJanK816wJluqX+xWAABo7p8H7kvu12ZD9lsM2w0t8mdAWisjrJTJa/HEU2mPXLe8Mk8swQPZ7ffgA7sVAAC6+yQO7kZXmSQW74wm2EQk6P0IeiCtlRFWypjev2TZ0mgFeawUcltuN76yVwEAoL1779yY3H3FqsXr4+6e11NoWlorI6uU8Xt+oGblygGpSo2SmS2305kKAABWVjZuyZN7W6GX2vtliyDq+UbVnqxWRlgpU/N4Q+pO2WoA5qFCnwNawjvv1gY7FQAAWFn5KA/uRk2lmuhcyuIX9kpZL2dRU7BIT8QFUDnNGlJV6kntl3yVpTfeJ/YpAABw6uUMyb0cV+mN6miX6mkBc8fDFTNR//Q1WpeevhT2cFeAVY2MSj2p/XqvnvS2e8kuBQAA+l68miG515VKxfGm1ZwVf63g2UAqmB348N6qrPyp6dWLFMxZjkbf7So1RKeRl950bx6zSwEAgIHtOzMk97xagxetulRPKyK8OmMmJ1ii7SeypTz05iWKmynLTtyjuFI/s7ArveXubLNHAQCAoUczBHdjN6LYpBXrQuGw6cmRKcHw9BX6sy4re/JkbD88sg7ENcUeU0p+8R33nR0KAACc+2LMRLUSC8suVcMIVPc9GEyPpq/Pb1ntU8aDV6cwppQoqdi4odDxDPcbL9wBAMCFl7MFd6Oq2OSWUClm/UM9eCpT2lgQ7w1xz5bGdHumFPtI5IuWZ1kpWlMBAMC5Z3dnDX1J1Qa3xDtjKg9SmZDH4ml+QcE94bHrEm2OeXrbNUM+tZ7fKrOt4RpD3AEAwNCf2VNfWLkqlMNx81ZiTW+9Wu4sKLh7q1Km2AmM+X+eKLf88rbUM6/ZowAAwJk3NmJfIKJcdivUx/3WEy/NT9lfUKVM3EPXpHIyrtUzqV6fwwxtqWees0cBAICB2/aSX1e9iSuZ2LiUWvNQn2pqIcG95ZnrEcyNrRhX68Clwa89srFYt9mlAABA3yOb0e9EvcbPeHvs28xEzitBtUmlzOXG5MzY80cVO3Bp0ECbsLNYH9mlAABA31PbL20V7Ps8bI39ub2SN/pUCwsJ7nueuBbZ0vg+z2pRvd8bT9paLObKAACAgQf2B5OomIQj40tJ8mbWA2E1tLuA3J70REfq0fhLkVSxOCras7daD9mlAADAqQ9zxL+aimPSQ+b4OLfb8cCb5toCgnvT/ZehUh3f5algcfvp+/a63eV6wT4FAABWZj429apjJSNd9GR8pAu0i25PrJkFBPe02y/CfmvCyKOukl9Wggnby8XhqQAA4NTXuQLgjqJvYyccTemvunw65N78uX3X5SfKpid9dagp+mg2R1fxFvsUAAD469N8CVDV99eR/KTo3nB1bK3PHdyrrv7/58qTqvdV/ZgwT1Px/9inAADAXx89GgGz3UlNnK4e7D7/4akuHgYZjEyazBLOqPotITjP49Z39ikAALAiGuM+6ajHWFzdoSPVicMs3VvmHZk7uLv2i0NwZ1L+9R+p+9fYCNi8wxjkDgAAhr5Pj3n5ijnuLWdN6SkthYnj98oFl6bX6Ly5PebSEvdQZuKxseWKyj++MabAx58opQOUygAAAAFJc2rJ5ytmDsIjkaOm+lvrSaMhT+uhXXqcamrO4N5yZ2wv5ScF3PCO6v+ByGh0Tx3vRH2+Ns2pAABAYlMQ9MKD8XqNnU5imN799YNM1A0jWCbWyxj1iBtfPp/MGdxNF/6fs2Z4YjlXxw2Hax2a1eFDlz/fakYGrd3FaZUyxg/2KQAA8NeGJOl1L1UZRxuFSqUYck3iS9enRHf3hdh5J7m7r7w/VApPPsTXPVX72WJlP92IXnpgrP6fvTv7ceLY4jguYCADiSAQlhAYCDvk5pbq4bbklvx3WLb8YMt+sCU/WJb3bbzMYmuYP/qyBC5XLH2qu213V30//0A8VOXo19WnTgcu2A3qFAAAeGd/T5D0Mikefe77g96Po3vqGmYOo+X2TNay2N4u6BQLnhN5kTIFAAA++NverujPtzkDekvSduruZyIF92nK/trOj3v609El8/2nklXggj2jSgEAgA8eisJeqs80A/tl0jZhphopuJ/aFNvVIuUfwj0JXrCbVCkAAPDBfdkEwWK645HfKVkU3c9duZvqFwLOo9uddO9LPRK8PblFlQIAAB88vixKe5OUByRdPgoY3jFMz53NfKTgnp6e/lbAi5JMurtk3jfKCD6oeuUuVQoAAHz0Shb30n60qfVxUIfJYpSWQBspuPctie1q0U/9njwSrNcBNQoAAPzjtXAWySj1Kclv9AL+yEo6/sh+lNzeS8mwlaDHrHb6HyVlT2B8NxUAAHxy44os8K2a6Q9KxaCZ2d44FXcdexGCezUVt4mHQQt1ZMF27JcE67VHpwwAAPjsnjDxjbUFurWgRHiWgnu40wjBPQXLeLgIfPoYWbAXs6LpQI+oUAAA4LNfpZFvZkNyz54EzfHozRJ/mLuIENyPkv7HzZde0AoNfAt2oj8WrddzKhQAAPjspzvSzNewIbnrdSVw+GU+4R8XfRshuA+S/aeVZ4EDEidzK/bhkWi5/qZAAQCAL7yQZj6va0Vi0p1c0F/abiT6TPckQnBP9Le0soPAtu+aJZuwIVuu+9QnAADwhf0H4okkIztCU+BQd6WmrfSHvm9K8Lh6v1BTLlxKfa/liVbrzj71CQAAfOmlOPW17ehS0LoefL8zwbMhowxyT+7w827wmgwPLdl/ox4H7gAAIIx9cZe7mpYtSU7ZfGAvtXea1JA7ihDck9q+HzgBUqlcx5LNp9c52WL99RPVCQAA/L83/5GPAbcluet+8GwWb5nM2ZDr8LndS2iSFYxYObdn67Vli3WZkTIAAOAr9+TJr9q0JT7pQvC5Zy+RA2bmln04tbgM7vie1rVruV39i8oEAAC+8stFefQb2pPcy0tBW38C+zPK4YN7LoF3UgfBDd/eLGvNrpvXhGt19QaVCQAAfO21cjK56/pK8I7hOGm/uhk+uNeSd9NWkGOrI+1eblcvqEsAAOAb9l85mtybwZMhlfc2aa3uXujgvkraPduKoL3Hii+lfsrtK+lSHXAzFQAAfNPtPYP0Z88N1ffRsSqIjifJ6tTohQ7u1WT1/Agem1RlbdFu64vP2y/+QlUCAADf9tQk/k2LFmUpP3gypFK1AsE9btm84O8odSzaavqwLV6pl9QkAADwPY+MWqX7NsWpfkWlq9U9fKvMNF3N7Wpi0yOiHpXEC8VEGQAA8H13fzcJgG2b+he0bkjOsMfzpBxVW3A5VdLcrnIFq3ZZXf6m5MF1KhIAAPi+5yZt7io3sipTFQVfAFK9WTKu5aZ/HKSouV0tm1btsVZGvEx7l6hHAADgR14YRcBS3apUJfkck1LtRBwBF1P+ASZ/IImwK8s2WEee25kECQAAglwzyoCZll3Bqnwu+asXCegR6ocP7pkkdIxMBT/UO8natb0GBqt0k1oEAAACXHhmFAK9jl3RSrckMz8yu0+Uh+GDu9r5SPTiqegS7ciyvTUzWKODfWoRAAAI8viBWQo8sSxdNZeii7m7fmDpRgjuO75g6w8kFzS9mWXH7f7SYInu3KUSAQCAYLd/NouBZ75l0b0rGrS9428CNSIE9902jh9XRcftx5btquzYYIWu3qYOAQAAiSd7Zjnw3LLk7pdFnRy77ZeZRQjuu3xbUBTdIrDuuF03KwYLtPecKgQAAGReGwbBiW0pS9bprmo7vJp7GiG453f3TNQRfX6oVrdtQxWrJgv0lBoEAAA2FNzVsGlb0JKNl1GTnX09dhghuC939aNHsvi6tG479VeK4A4AADbhmnEUnBZti1q6UEp0v0w7QnBf7OhhSPTFJQuP2/XacLUeUoMAAIDQX+ZZcNW3Lm0VJ7K/vLuTlmkvQnBv76RLpiF6ElJn1h236+OS4QI9owYBAAChi2HC4KF1eUvLGrLVeXkHWVBFsYP3I2tZb4+Fx+262zNdn6vUIAAAIPM4VBjMWZjchYfupcbWf1kjUnDf+qVaP59xtLv9XW7PmC/QdaoQAAAQuRQuDZZG9oUu3ZGdli623Sm0jBTct/3RrPpU9tama+EOaoXI7Yox7gAAQOZWyDhYOrYwd/VlLR6Z/HaH2a8iBfft3k5tzmQN+eMyuf0fv1KFAACAyIuwebBnY3KXdnlMt/nCoRwpt6vSVqOrbKRKr2Hh5tGFcJeIX1KFAACAyNPQgbBXtzF8HcuOt7f5tc9WtOCu1tu7JjAWfgqgT27/nxdUIQAAIPI6dB6srG1MX7op7Civba1HexkxuA+2dolWNpjH23Kn0dae+abh1ocvMAEAAJk/Qx63j608b/94wp2T/RtsazJkO2Jw31KT+7oi/ArAsa0bx28twjS5v6YKAQAAkeATd+9kdlqZ5j5FEi83Hee7WW2x4kI4FLOwjV9zGDG3q8w2xi5KbwdYOQTyi/c1rZPJ6vOLh15uujifndEqAwAAYvEyOGpVP0Ytv9zv94tl7YKG8DM6i/nmf8tJ1OCutvB8MRK2ieRaLmwfvzx/9/9K+WNHUD/ojcl9qhAAABCRjIMcNrVr1lVhy9Dmx6NMIwf3SWKO2xdF53bSvMY4SAAAEI8nonuoWefyli+cR64mG86ikTtllMps+DWJ9LjdziGQAW1XwVOKLlGFAACAyF3ZSal7yV3XhZdCS52N/oyj6MFdbTQwi4/bq2v3NlE5+Jnm8gWqEAAAkPlZdq7sOxi6JsJcPN7goXu2FENwr27yjYCwqUidOfjwVxb84/xODQIAAEKvhB0hDsYuPRCeJW9wvExHxWFjExjFx+2lgia3f9Nv1CAAACB0UzoN3MXkPqpJD9031UZejSW4jzf06/pD6Zl/38HdUxT1/v9BDQIAAEK3pOHPwdkyWjdP1U4P3bux5HblbSY3S6dmqiOf3P49b6hBAABA6PoVknss4XQjH1JdxBPc1dkuj9tzXRc3zlz2tmaPu6kAAEDsQH7HsexiADuUDlJvx59P6zHldpWZ7+6JplJ0cdv0hUOJaHEHAAByT+Xxbzp3MYI130r/fZZxv5MYxhXc1TLu8+SKtEsn72KbjB7lhP8+L6lAAABA7PEVefxrH7oYwnRBerhci3d8Syu23K68eIeoF6RTKtt1J3dMV7pj9q5TgQAAgNwjg/xXcjOH9au7OF/OruIL7moR5zuIc+l/deJkd5UuZKT/QNeoPwAAwMATo2bpgpNJLCv+gOkwvgEueRWnVmy/61j6QOGdOLlZ9MATr8ol6g8AADDxzCi5N9wMYx1p80Nsnxqa92IN7rWYGvD9vDSW5tx8PaNn8kV5RfUBAABG3pglQCeHcmu9FjeuxPQ1poWK19F2b6WqoZPTZHT21GBNnlN9AACAmQOzBDh2cqC7bo7Fh9txHDV3Ys7tyovjV4lvpapl1sldUjaZBMQsSAAAYOrJZbMIWJ272QMhbhKJ4Y5qvxR3cI+hWUZ+K7Xn5l0IPWobLMjebWoPAAAw9dAwAraP3Yxl9Zy4TyTiHVV/qOI3jppKxd1CKzfnhsrHQH7wbyoPAAAwdv2BYQR09UB1Ls7TEe+oztQmRLpYLL+V6mozlR4YrcaDC1QeAABg7s1l0ww4c/OKqi9P1FHuqBY2kttVJsKbEvmtVC/vZmzPnhstxt4T6g4AAAjjD/Mv+pTdjGfiuZCqNgrdk9LbTHBX7dCTXlrinntXp0Cup2Zr8SdVBwAAhLJ/YB4CR24GtMPapmfeF9tqU6rhmlh88QeoXJ0CafBk89G9n6g6/2Xv3nbTSLYwjss2PiS2E3vHSSbHcRLPZCY7KXHhlkDiOaxGXIDMBUhcIAubg8HGGB+Qw0PvnYx3Ejx7QlV1NzS1/r8HiKIqa+nrYtUqAABg58Fj88YLoW8xFbSbRlTHJidXiyo6+zZTGvVb+9WVzCmQ+hOHbj1+Qs0BAAC21lbNU6DQWd3pG+0VshivkmmpKF1ZzErRPkz2mkK/5Uxfy1pdo+IAAAB7b+bNU+DJQGZQq2ifr6YOTXN7R0XrJrr7uPkjmX8OZdPepnsL1BsAABDEjkVyTwk9YtWf6K6G1VjldqXOjQYC5fQbg65lfsalLz3T3M5AGQAAMIXkrq5kzuxunETys0Smp1SskvuR/mFyrypyROiZcWsTuR0AAAT3xqLPXeozqtV2BLd4Cy01CR3tuwkGdy7PZU72N50mo9QqfTIAACAEay8sYmDKlxnZLkO/xdu4VpOxXwi7Tca4l98NmRvjtX+xRZ0BAABhePjOJge2GiJTW7YebrvMRU1NyonOjhncudyT+bPLhfmX1vtfqTIAACAcc/dtcmBd5kj3Y/1kW8+O/dcOU2pyNAbAGLTJFM+4larn/hw1BgAAhOaPhE0Q7Il8MDNn8FZS/+cNRQaPk4Zi3Mj1qsF4m47IC8qn5g9lJX6jvgAAgDAtPLY6ws1KDG9Vgykw+z/7tmkU1aR1ftboPigZTIaXeMch7Zv/QPKYa6kAACBkD57aBUGJ/RIGr6j+bP5ONq8mr1b+51kp+u376lLkcbvF/J+nD6gtAAAgbG/tgqDMTneDVvB/Gr1SGKqp8LqZwANzUhJ/aclc2txHoE8GAACEb902CbYkvp2ZNQhx/3fY+VFNTUupHLC9PV8WuOPlE6vF3qayAACA0G1aB0GRM93LBn0uf5+gnrtSU+T1/3axdGAw4/Ba4CDQ6o1nt9afqCwAACBGwV2pzwJPYE1uctaOR3vkm3U1XbWsfXt7qyDwVoP167YEdwAAEL6X9ifuNyInA+YMwtxIo3u5qKZv/8dvCZPZ5O2MyM1uW564b1JZAABA6D5Ztl0UfZHT3L/cVmwbrNO3ie6nHRUL3vDMor1ddYVudrLRv7ZZ5udUFgAAEDrjy6n10v65f1BNypU+Nzni/tph0vjsqbhIdb/+lwYmty6bgrc7mcv6w1bNrM1pm8oCAABCpzEOsuhXKpVs9uCofNzIpZNIdk2GuRwnG+cpFSf1bi55YHDL1jtky5PJzNnguHyUzWYrlaY/7qbD71QWAAAQug2N3NYktd3RNInJ7XjF9r/+Twa/AKQO2PA7+uPWbIfKAgAAQrelc+J6SVS749BTUtSP2O47vVKfxy7aQyoLAAAI3co8dxNtZFNCcnv+gs02vp18b5nKAgAAwveOaYBWynURuX3vlK0eVdgfv2qvqCsAACACmoPcWzki26jjvIDcXmqw0XfmQ+qMh+T9JQAAEIV/6b54PyC0jTqtOZ/bi3yu3f2hZU9n3TaoKwAAIAIPErqXFBkucvfwteR4bm9V2eQ744S0LiXPz1FXAABAFJ7qP5/JEPdRuRNyu6hrqZ/1Fu41VQUAAETimX6S6xUIb6PJ/drh3L5Pbh81KGqu3AZVBQAARGLunsGMEWZ6izlz57z97gRQ3dvIqytUFQAAEI2XBmnOu6RdRsaZO+fto6pD7aXbpKYAAICIbC2aBLqTY0KcgDN3cvudaTL6H2hLa9QUAAAQlddGkc7r8hiT88m9xx6PHLd3Pf21+zcVBQAARGXZ7MidQ3f3kzu5ffS43WTuJwfuAAAgSq8Ncx2H7m4nd3L7yHH7udHiceAOAACitJUwjXYcujuc3MntPzoweyB3ngN3AAAQqXXjcOcNc2S678ndpTdUmQP5g0bbcPW2qSYAACBSKx/N812+yWTI7/luz5ncflJgO791yVymDFfvAzPcAQBAxHYWLSLeNc8xfXOadyS3l/gl5YcuGdPcvvSGWgIAAKL2ySrldRqku1sXdSdye40d/Z9Bz3z51qkkAAAgciuvrHJe/ZKG6FtHKQdye/6Ujby9tnDumS/fIxplAADABDxctYx6PjNIbhsrvJnP7XWGBd02t/s2P6D88it1BAAATMKfCdvuigq3VL86nPXknuLSwleZitVd48QOVQQAAEzG77vWg0iyhL0vmrOd2z228Yt01m645+IzaggAAJiUdfvMt39B4EsmC7N95F5jB790PNm+prVNBQEAAJNzP0Dq26c9Opmd8VYZbqYmj4q2i7dJ/QAAABO0HCS5E92TwxkP7r70DSzvW6/d/WXqBwAAmKhAyV21B7Kbo2f9+dSW7Nh+0VHkdgAAMDOCnbkrbyj5/Z6LWZ8G6RUE795xL8DKvaR0AACAySf354robuly5ue4yx0rc9oOsGy7zykcAABgGt4uEd3tFGc+uA+lxvZhkHlAS2+pGgAAYDqezQd9x+cmJzH95Wb/5dQ9kU9pDdqBdm5+g5oBAACmZeGXwE9w9gVGd1/NvgN529YYBvvgerFAxQAAANPz5H3gBFjvirvoeOJAcG+L+5mkmwq2Yo+eUC8AAMA0rWzuBs6Aeb/KTJlZk5L1uVUIGtsXn69QLQAAwJRtrIbQMe1nBIXAGxeCu2oK2rGqnw+4Wvc2qBQAAGD61t6HEAOLcg7dM3kngntRTm4/qwVdrFcPqRMAACAOlt8mAk8XFHRFNavccCroWmov0Eol1mmTAQAAcbH1IdjhbVlSu3TPkeDel7Rp2ZL9Qn3YokIAAIDYWF5Ztz90b8maLDjwHAnudVHXU9MHlq9mLXErFQAAxMybx1axptQ/FjZW8Eq5whe2c+XPe+aL9JHh7QAAIHbmdA7dvfz38+Z867w5kPeKj+dMcN/LSNu89IU/LNa/j8TMj9vMpc05KgMAAIihhY/jg7ufTFYLjf8qJGW6Ue6oyNzC9Jc/4LNCNZkZt5kfOG4HAAAxtaMR9jpSE/tfcimHgnspLXovz1rjFugNNQEAAMTU3LxO2itLDntd5ZJDyVuZHTuPf55rqQAAILa0nmLyuhmxYa9Qdyq4n8g9ci9oXDJ+REUAAACx9Vwz74k9dL9RbqmIPW7XGTCzTkUAAACxtaEb+DpnIuPewHMsuOdl3lgY6D2i9ScVAQAAxNaDJe3Xe/yqwMDXU67pC9zF3I3e91eCUZAAACDG3hkc1vriWt0PnMvtyhM3ib/q695TeEU9AAAAMbZtNE2wIiu6p6/dC+6qI+xOqq//euof1AMAABBjW4Zvb/qSeqSbykVHkia39w2mAu2uUQ8AAECcfTSMffW+mGuqjbqTwb0m5ttr0Dd6Pesd1QAAAMTatnHwSw2PZTTKtJSbhjK276hjuC5vqQYAACDWniRs3vGR0DHjK1dlBQyS8Uumq5J4QjUAAADx9toq+6XarrdKn6acDe57BdcP29sW8/fvUwsAAEDMLexaxr+TZs7l8FdU7rpy+mrCZc1mTRa3qAUAACDuXtnPBO8dOvsqU1e57NDZFpmm7c2Ep1QCAAAQezu7ARJgquNmdj9wOrerlJP3i6uHHc92RRYXqAQAACD+XgcLgfXhgXPvMp3W3Q7uquRcm3v1P+zd/1cTVxrH8YYv8v1LABEBRUGktjixmghURFHXHtFaFl1MihpOWCR17GLMQAJJCEmI0MAfvdXdbZeqkMncgbm579c5/Exm5jw5n7l57nMDSSu7EuhwBwAAMmisshoDV8ts3X15Wyt3obFyemDzRsLaq1ZFC98DAABABk0imi+SRvks4ia08pcuo9SetDwB6Gu+BQAAgBRqB8Q0Tmf08pgzk9dUUB7T3GPxNZ/1ezFUw7cAAACQQ0eVoDDoW8hvSJ8FDSVyuzYq/yT+jbyYoZ0VjXwHAAAAWZz2iguES7mw1P3TEU0Rq1KPlhkLp5cE3YjqNr4BAACAPC6LPZpT4kEzK6OqBHctuCPt7uFIdlbcfWii/gEAgERqT4lezpV0s+rWqqaOaEzJETJ/8W0t9Q8AAKRK7u3im6gzunRDIjeCmkpS0u0mnvOL2Iy678hUcjsAAJCMS3xy17Zla5hZn9XUsr0pW3AX/WZFbgcAABIm97OiU6FvS7Y+maCmmiXZ+twDYq+/ntwOAAAkVNNULTYU6bLtS13V1BOVbX5nQeDFe7spewAAIKeLFSqfzRkZ1VQUlOx3kbGksEuvO03NAwAAWTUOiAuEBcmmues+TU2rkp3EtJwRdOHfcO4SAACQWG23oHYZX1yyddyCpiw1n9WJbtrbAQCA3M4LWXRPSdZ/MR/SVLYr2fifSNTyJQ9UUusAAEB2NYMNlkeV6JIFwY0lTW1rkg10X/ZbG9zZMFhDpQMAgDLQ6baySXU0EZGsu/1KZFVTXXRdsme2bIRK3pRQ0d1MlQMAgDLR111idF/KBqQ7LXU8p0Ebjcv23K7MGe9LWXevcHdS4QAAoJyi+2XzDTOhwNwV+ewskNo/ysj49GJGytxVdnUT2wEAQLlxnT5jOrlvyZf8DNpk/mc2It/jC5vbVTxw2kVlTasmIwAAIABJREFUAwCAclTZa3bZPSlZq/R8grz+f3KSbSpeWTO12O7uoKYBAEDZqr3UW2cu+y3oEjW5B2YJ6/v3KEh0GNO8bqZLpu5sG3PbAQBAmXO11XeZO4kzK8myeyxDUv90pPu8HIcwrSRGi7+ont5WUjsAAFBD47kzVeaGyzh/JORYnO72z3a6G86fA7SSK/4EphMDTeepYAAAoJJ+k/kvuGfEHL2rkWEyXxwvs+Pow7L0hKk3rkFqFwAAKKaxlFN93uvrztzuuMOm1AP4Cs7sl1neiieDJq/F20LtAgAA1fSUGAJT7/0rO85qnJnPjZLOD96n4HfWC9f4RsSfWCrlqNRhKhcAACin19Ia7lKmkDci604442c8HiSZH75NIeCAl62xza2Ins+Gor6Sr8NN5QIAAOW0ienCiC4kd9N+PRLemBs/ntgeJZUXJXU80X15cz0c0P3pvUxKxLDOVioXAAAop7ZBfEPG0loym49HwptHlgrjTG4v3rZxVNF9LBYOxPO7yYWo4CamLsZAAgAABbnt7KlOJeJh21fgl/2stpuN7vY/lJV8ctu2PQfd1C0AAFBQh9fmlDiaNOw8dTWWY3B7CWPd/XbuS5iLr/ns/PTeRuoWAACoaMj+mBi0bZrJ+p6PFF7a+9Tehl2L7Xm7p/u0U7UAAEBJl44iJgZsSYg6xy1ZEQrY8j6Vt/2DX6BqAQCAmo5gyT1qw3bI9Sw9MpZ/Csmu29Aow4I7AACAPS7YHxDjwsOhf5vYLcSaLnwHwq69n9hbSc0CAABVfWv77HCxC+7zRpLOdgfvHp63dzhnPRULAACU1dllbzL0bYlsbDcypHbhczsTQtvdDTs/a1czFQsAANTVZm8s1MXNfoxnRonZNmV3Q9yEyIKNjTKt1CsAAFBYTa+dkTAt6BjOcDpFvrb1l5E1v6ARkWNJ2z6km3IFAABKq223Lw4WRDS4x/REkGR9BGYTekzA8xpP2DVRppZqBQAAauvssSsJ+q2HdmMvSqI+QtuFgOWumTF7RssM0+AOAACU13LSnkHhEWvxbz1OaD8W0UQ8bO2nEsOGMfsnW6hUAAAAW5J7aNNCZjcKa+xEPdb9qqF0YKf09L4ufEvCcB91CgAA8NVXfQPCl9tLHCczH9azC2R2p6T3nL5V2pz38bzYhzjUSZUCAAB8UOsWO6Nk13Sj9FhsJV4IzZKWndc5k8npYfM/n+wInC7j7XVRowAAAP91sUJczsqYmCy4vBM2/IXMNicrOdtoKpmLB8IxE4c1hRcE/e+609QnAADAn1pEjYVMHn5Y6vLmRjii5/cyqVUisWSCqcxuXo9s7cwd3kSzsiZkDCTbUgEAAPa72CVmJsn7bC7tj+u6Hvgo8vufrsf9/nQ6t5sILSwFWV0vk1X42e2FTCKbTuf9H573fx717wz9w/NOF7KJpPUXsy6W2wEAAD7R3FRHGoWT1DXR3Q4AAPA5fZeJ7nCMhm6GyQAAAHxJ87keAiOc4GQ/q+0AAAAHOl9fRWos3t3fZiYXbz/58ZeXfx+56fnTzZGR5y/vv3ryr8XJmdd3uU/mVJ1qraEUAQAADtPXP1RNdjw0sd+bnJh6O+IpyruXUxO37j3grhXjxJlBemQAAACK1PJ1O+vuX+J9fWPix+eeEvx0Z2LyzXfcwQNUnOrvo/4AAADMcLX2dpEj/+r6w8VXIx5Lrr29PfmIO/k5XfVtNLYDAACUorJpiIX3Pzy48fTFVY8Y01O3CO/729rPnOug4gAAAErnanUP0/GufTcz8VZUaP8jvD+Z/J47+0H1sLuVpXYAAADrOk4qvtQ+OXXTY48XEw+9TH5spMYAAABEaFO61/3R4i9XPXb66elj1fer1p2rpcwAAACsqhxQOFH+7dl9zxF492ryutrR/ZvzVBoAAIAlnb0nlA2T3//D5rX2fdl9Su119+qzTIEEAAAoXc1gg6pB0jszdc1ztG4+fUi/DAAAAEqgbpfMo4lpz3F4sajynBn6ZQAAAEqibJeM9/Gdq57jcu2fM+qOmaFfBgAAoASqdslcf/bcc7ymf3igbHRvGKTyAAAATGlpV/PUpddP33mO37Unb5SN7mcY6g4AAFC8mv4KJUPjmydXPQ5x/4aqHTNVTWxSBQAAKFLHkJKJceaOx0le3FJ1PuRAJTUIAABQBFdTlYpp8ee3HqeZfqbosUwn3C7qEAAA4DCVwypGxYf3PU408sNdNaP7yQtUIgAAwIFcbhU3pd5zZmz/GN1/VXPVvbq+mWoEAAD4sks9Kk6SmfI42ciimr3uXa3UIwAAwBc01ys4yeTB7Wseh5u+peSEGS+L7gAAAJ93QcHl9uu/3vRI4MXPai66X6IqAQAAPuHqVrC7/fG/2bsbnjaOLYzjSQgQCilN0pBA0iYttAlJy4g1siUjv2JsbAN+wQgJ2UiRMBKIWJa/Bd/6Vjf33hJyVe/Mzq7P7v5/n2BYM6vH43POdFVIFG9iWen+mvEyAAAAd8RxmMz+gaNCwzmqxnK8zC/sTQAAgFtm38Zvdnsym1ChkjmOY6n7zAoXqQIAAPzPm2fBdh2mr9uH27mTfjbfqd3SyVf6ue3T0t5+AIfL7a4KneFeHA/df1pkhwIAAHzxw3wgASxdL5xkjw7OGi4KVBLNy4tBJXd6nfbnlHmn46gQcgZxvJBp/il7FAAA4F4QXanVeqFSGxqOb0n0LvK50q7lptSGCqnGYRwHQ9KjCgAAcO/ewgc/E9dVIV+2MnBxdHaeLaQtfZGoqRCrxbFJ9cMCOxUAAMTd0zm/MvtNYXA5shxaD64srOy0oUIttW23SfeqtJ3rV/KdWvGy1039VyKRaraG5WLtqJP9XDjdS0/2/tYHy+xVAAAQa4/8KZPZrH8ujnwJrRnP48yTA0eF3bmFQ/d0qdDP18ot959To1c8yhZK6ckkd8plAABArC2u+hCw6v2DkX+ZtexxeXstFQGNtqeOg2ztzMNHlBnWsoV68F2yq0yXAQAAsbVufZrM7slBxufMuu9pgccJFQlO1qRyJbnduUzZWkGr1m8Hm97n19mzAAAgnn6dsZur9ipnAURWD2fNGzvnKjKG+uX+h03rq+ie99vJ4C5jesyuBQAAMXT/o9UCmdIgoAuNTj18s+iqCBnp9qi2ffq1IXGZDSy8/0yhOwAAiJ1Fm1MgS51UYHnV/PLQwicVLQO9cpmhj0sJLLz/wVxIAAAQM2v2ytv3K0EeZCdMpxJuDlTkXOpMeEn7/tEUj3f9T+7za+xeAAAQJ8sPLcWonVw52OmKplNlqmUVQY2SRqFQEAs6q1z7ndwf/s7+BQAAsTH72NL09lJtFHRU7Zut9KqrIimRc/0IbgJaUjdf2vI3uq/MsocBAEA8WGpL3SycBR9UHbPrf9oZFVVZtym5GuAPAXl/z91f0KIKAABiYemdjeyUrjQmEVMPzNpSEyq6Ltw2hQZ69dTZiZ83rK6+YR8DAIDoW3hlY2T70YSicMlktRUVaWcuI3In4Cqei+1N35L7K4bLAACAyJt66T01tSfW6Dk0GTE/UBHXcjfMpR34wlL5fb+S+/wUexkAAETb+gPPkalenFxENbg2detIRV7DVUn5VjP4lTnFQ5+S+9w6uxkAAESZ9zGQpUmOVSzqrzd5oGIgVZdbMnSW86diZmaZ/QwAAKLr/XSYY7ty9G9NTRZVLIzcFP9XRxP6WlHxpVF1+ld2NAAAiKrHHudr7004BQ/0R1bGJLe7TO4Tq/ZPDPy4U3XrLXsaAABENLd7i0nVvDPZbNrY0c7tB0qR3G99hJMbZ5/o+HHqvsKuBgAAUbTi7bql/sTvMDokt/+TTF1qlfsXnwY+RPcn7GsAABA5s689BaTT1sSD6bl2JUVNxUrmZnzJf3OSCxzl0yR3AAAAX3P7lYCj64x26BuomGmOLyQ/nHA9TzZpO7m/ZnMDAIBoeeKlSiabEJBKc7rL/qxip1cd+1TOJ/3lokByBwAA+Ad/erlwqSchk17oLrugYuhy7Mj09MRbFS73LCd3OlQBAECErHg5bnckJNJmVXPde6M4Bnd1NPbBHE98jU7N8mzIx+xwAAAQFW/DftyunJLmutNNFU/9sS275ckvclTZJLkDAAB8673xvUubeUdGHK3oLnwY09yunPbYTmMJv0X0rNbLbHGHKgAAiITlaeObUltC0mhZ96tHR8VWan/cw8mJ+IKRtXnoPr3MPgcAAOG3/tA0DeUSUrKobk30toqx4dhELGO+fatkMbk/XGenAwCAsJuaM4xCO2KuL3J0r0y9ysQ5uKvs2I+2K+NztXno/mCKvQ4AAMJt4WXYy2T0C9y3hrHO7S46eetCfktp1e0l9/kFdjsAAAizN88NY9BxQkwOvdAtcP+sYq65E5ZH5FS2rCX350vsdwAAEF7335lloGRNTgrtJTUXf5OIe3BXnbE/ShSlLLWctpbcV++z4wEAQGh9Z5aAdntyMmhmn0IZ/YPssSUo6YaUtTbatoL79Ed2PAAACCvDi5fqDUER9FR7Fg65XaneZljK3P/6iPPWelTfs+cBAEA4/WA2wH37k6AE2tdd/U6K2P6Xz2H6gmOtXGb6KbseAACE0Y8PjMJPxRGUP2vay88T2v9dYVQd+6QGclbbsDXSnaGQAAAgjJZemSSfzSNJ8fMyqV2eT2fqF4Pxz6osZ7WJnKUj91ffs/MBAEDYzL4wCT7VsqTw2dIvoRgQ2f8Thcc39Va7gtabtTQX8tksex8AAITMY5PUk+5Jyp6pqw0O3I0djX9a1yNB6z1P2knub9n7AAAgXNZNGlN3W6LOjA0Kn6lw/3tYy66LPmRJ/QxDOy2qM+vsfgAAECaL8ya5vSsqeBYMKvQZKfO3vJtOZEkLbu5ZSe7zi+x/AAAQHvdXDQLPVUNU7uwb/AkF4vqtwTJuak9E9SJnTq0k93ePeAMAAIDQ+NMg7lzLOq0emES2MnH9lhM3v1EURVVHbVtJ7iu8AQAAQFisGRS478nK7QcmQ0aqDmn9lp6bZ5Y8C3t91P8pc1/jHQAAAMJh6aVBbs+IypyXRiNGqJT52o2rzoamqORuZaA709wBAEBI/GxQ3y7rvL1XNcpr52T1r2Td1UiJ+s7mnNhI7h95CwAAgDBYNpjfLmqejGrumsW1Bln9K113j+1U1vD7io3k/jvvAQAAIN/CnH5tuKh7l0wuXvry9YOofofLB5lTkUvucwu8CQAAgHg/aYec5FDWGEPTcd6nJPU7jl0+uUr0kvsz3gQAAEC63/RvLToQldoSbdOsdkxSv+M8pDfOnlAsAwAAom9Ru1BmqyYqsznmo7wrJPW7RUeuh2oeyfonsDAVco4LVAEAgGwvtAPOQFZk8zAOME9Sv2s/rD+7WLhD9QVvAwAAIJn+RBlhjYn9DYK7RYfuGx1k3To7qntP7su8DwAAgFxL87rhph6hUYBZgrqHYvEdUVeoqsy15+A+v8QbAQAAiPWd9gTFhqi0lvUU1Khx/0ZH53+hJWrppsP8b3nNGwEAAEj1y7TuQBlZgyDz3nLaCUH9rqLO89uX9S2ul/Qa3KeneCcAAACZZj/oJhtZs0QGHnPaIUH9rkutB3iTkjXMcstrcl+d5a0AAABE+i3cR9RHXnPaHkH9m1NrvSd4LSu5e7+IiWHuAABApO91O1NLjqSUVvN8vrpDUL+rq9urnJG0eufQ678E/akAAECk15qhptqMVl3ExkaTpH5HSvcRlkaiRsvceP2XeMJ7AQAAyDM1o5lpRN2YerBp4Zb7Gknd44n7xkb7k6j1Vz3+S8z8yJsBAACI8yzMNy9Zye2MlfnGmUGLr6jJ/kWvP8RwfyoAABBnTTPhXI0il9s36iR1T1NlvtgWldyzHv8nttZ4NwAAAGFWQzzB3VJu39hKEdW/dmHyGAuSmpadkteRkLwbAACALMuacSYbwdy+sdEhqts4rxaV3Jtey9yf8nYAAACSPHqu2YLoRDG3cwXTXcdmzzEnKbmfe/yneP6I9wMAAP9i705Y27jWMI5zkya2697EwamT1E2cpFmb9hQtSCCh0b4vtmQJgbAMBkkgIQujb+Fv3fSGy82FlM52lpn5/z7BnGPz8szoPe+BQV47yzIpgwYnLvzL7SJGr8z/G4gQJPc8tzABAIDw+NdTZ1GmEMrv7WYtzIgGcddtJiZ1y2xX3v4pjvnkDgAAzOHwg3sjHtLcLlaE9a9N3f92YVJyv4nxyR0AAITE7rGz4SvmTJSZ+ZvbhaiR1r8y9LCTJiV3iy53AAAQEu+Cek+R77ldTEjrXymKcCT3eMPbf8UzagQAADDDjrORMtWcKXmslRS+uyGu+9DibtpNTJfe/lN+26FKAAAAIzic4b4wppFDQm5nIuRXSh730qDkPmaWOwAACIPfgplsC0KKJYH9v0Ze9zJrTLdMrsondwAAEHwHzsaFXITjwOHfasdJ7F9cNT1vpjnf3BfeFvKROgEAAAxw6CjBzA0JYnUhyzmR/YtzPw77Xpmymp6ndRxSJwAAgH6P7zkJMGUz7haNj6XldpHJkdn/o+3Hbg62hqzmLOVlGfd+oFIAAADtvncU3C0zcnteSFQks/9l6c9uVkx5D9p4WsbPVAoAAKDb0R1HoyCN6HyIF4VUM1L7ZxOfdrNhxo80f8RXXlZx5wG1AgAAaPbv4PV/J3pyc7vIpIntfn1w/2xtyHZ6O5/6gVoBAAD02n3qKIKZMHFlOxCy9Zgs84ePu7w6M2NJFS+LON6lWgAAAK2eOepwLxmQvtJtIZ8V+dw+83M7q/0Q/IhwQLUAAABaOZoFWTFhOMhKQW4XyVrEc/u2KkKY3D31WD2hWgAAAJ0e3g/YB/d+VSiRuYh2cJ/7vZ9TE1bVj3lYwncn1AsAAKCRo6OpDf3Ja5oRiqwifUD1Jub3fqaWJgyWGXlZwkvqBQAA0GfnOFhTEpdNoUwlEeFGmY7/+5nqmnBAwsstTD9SMAAAgD4fneSWjvZRK92UUKgY3dEyUu63irUMWNm1lxW8oWIAAABtXjiJLUPdoasVE4LkrsC5pBO/w4B/cv+eigEAAHQ5+s7J8ULdrSObpFBsFM3cfinth426/sV56XLn9lQAAKDN2yCNNq8L9eZRzO2nEg8Az7X/iHHh5fXvHTUDAABo8txBZinn9M4DyQsdRtHrlsk1wt1+VHT/8PcOqRkAAECPk/uB+fi87Qk9slGbLZOoyN3Qnu4NvfQyyv2IqgEAALR47SSzaL36Mt0Wuky2kcrtcelvSJWc5iVOPDz8W6oGAADQ4r2DxDLQ2pe8Evo0zqL0vb2oYENP9a6x5uHZ6ZUBAABaPLznILHonME9rQqdMjfRye1ZFRta7etdpYefb+6fUDcAAIAGLx0ElqbGzuRaWeiVakUkt19NIvEq1PLw6K+pGwAAQINfgnE0dRYT2s0jcUQ1XVH2KtTV+ruCh3mXz6kbAABAvRMnnTL6mhvUX7v0zROVEWh07ys8SaD3EtW5h14Z5soAAAD1nNy+VNE25ORamCFTCntuV9yRpPM+r76H535G5QAAAMo9CcDRVBVDTuwah7tdZqi6I0nn3VYeeoI+UTkAAIBqu3vmH01V13Rtx+1leGN7TsMFVxrvtvJwPHVvl9oBAAAUO3AQVvIRHN/+DTErHtLcftnRcnBA21VMiab7p35D7QAAAIo9cpBV9MwAuckI0zRC+dE9bmka3LPWduTXw/HUR9QOAACg2LH9qFLW0tPQTQnzJMe50OX2C30NSRldL0Iejqf+SO0AAABqPXYQVYrRHQP5jWs/FyH73F7Q+YKU0jWsx8PtqT9QPQAAgFIfzO6UideFsSph6pe5bGj+CWOjZ90FLk8FAABB4WAYpIZOmausMFhylA7LMJmR/t81rrWc+D1zv/AXVA8AAKDSzr7JnTLptjBb2dqGILYnNk0TNrOo5QiF+3+xfcoHAABQ6a7JnTL9lTBe0wr8fUylW1N6j3Qc+PXQK/OY+gEAABR6aXCnTKksgqB6HujovhyYs5WrCw29MjS5AwCAYDh0cMGl4kQ1jImA6GwCG92XE6N2MnMTpF6ZJ9QPAACgzu6e/ZgyVDtOZiwCJGPliO2+jIVUP2TTfa/M/g4VBAAAKPPKQUxR2saQ64lgKc/PApba4zMTj/4mC8rvnXL/sHepIAAAQBkHLe4rpWFqLQInma0FKLZvNx1D9zGvuu/I/fvLByoIAABQxsEU95HKFo6MCKTGMCDTIadjgw/+DhS3Hbm/4+sTFQQAACjz1H5ImalLUq2YCKpUfmn+2PZWxexNXPXVdvq7ftBjKggAAFDloYNGEGWfQeN1EWi3hVOjD6SOmsZvYVNp01HC9a8PySNqCAAAUOSZ/YzSVtZ8nRVBl5ycGzpk5sJaBWIHY+cqd8X9QegDaggAAFDkkf2IUld1H05DhEEsOzOu3b1vtYOzgfO4uo3ZuH7Kn6ghAABAkff2I4qi5oWgHkv9Vrt77zxt0HHUesAG9fTUvfhMXT/kITUEAACosXvH/hdkNTP6hjERJslKYWrC6MdFvhrAET3qBuO73p09rmACAABq3DWsxT0xFuFTzc90NrzHb6xBQN+GMsoG9BRdP+NjqggAAFDirVlT3NMDEU7J9nVXR3iPTwu9coD3TdkR1ZbrR3xHFQEAAEo4OJuqIEJNOyLEko3xQmXLe65Un5QDv2uKjqieun7A36kiAABAief2A4r8Vu1uSoReJ1uoyT9zmVtu8rfJcOzYRM0vFa6HZHI6FQAAqLFvf0KK7C+fcSspoiG5LlpdSecu4/2FlV2FaifV3KLqusmdu1MBAIASJ/bzSYVbl/zVrIw23Qv/XofSy1Y9u46FcKfKXRXTjFy/hj2gjgAAAAUOHPQaS74aaCUiKbbqjQuzm1P3n9jPlrPNvLcOc5tR0jJ5kvsb6ggAAFDgpf140pLb3l4W0RbrVLKj+nBR66f/eV7+9rS/XJxb82KvnYlGf1HxSvr8Hdf/ga+pIwAAQIFP9uPJhczQVE8K/C/ENzuNSi+bzefH82vrev5FPp/NTgbtdaccxc1qS7+LqeL20X6mjgAAAAV+td+RLXMGSo+wjn+QqUkO7nO3T/aeOgIAAOTbuWP/i6fE7uIVsRTaG91dX8G0RyEBAADyPbSfTvLSAtMiRSiFrUb3rZmnU4+oJAAAQLqP9sOJrM+d8TmBFDatpR60cP0C+YpKAgAApHtrP5ws5KSldIU4GhzlVWWQLebndeuz+Xw+LvYGjU5T3WHZZklicm+7fap3VBIAACDd7/bDyVRKVrqpkoYDoDoYFVq1/t91qiTOaq3CWMnlT8m6vAt8Xd+d+hOVBAAASPfCfmBKyIhKwxih2GzNSb11abe1PN5fWMWG5CMLvZys4G65faRPVBIAACCd/WmQHRlTILMEY4PF2uNW38WfNXG5Ka4kds+sppKCe9ftE/1CJQEAANLt2c4mE/9z0mWHcGyq5Hpe8nRXaa5Ub8sK7+WZnOB+4faB9qkkAABAthP72WRMm0x02mOKrbQvv6gsRpIm9I+lNG65HyvzgFoCAAAke2U/mgx9DklXeQKymak9X/IzFZ8NJzJe0BpS5kLeun0c5kECAADZntmPJj6P4evfGpRVy9V144s/2bvz3zSON47jSuLUuZzTzd3cTdMcHgErkIzMfRgwN5YlC5AsBSRQEln8F/mv26j5od9+03qZnZmd2X2//gCzmawefRieeWZZLXtxTu1ltan9+8Z7M6v+vKqWuZAd2ae5TS0BAACaPfMfTdQeCGyGfllqotrKzgofF5PeP4eUpDL9WrMwK1aqccvwleGJnuZxcTIvqv4f1zEXUvousDfUEgAAoNkt/9EkozLGHYW6q9wq5tp9P6lvNW3WjQwnt2OzXdewlu+L2Ryo/p7RVf2MX2Qf5QO1BAAAaPbE/wa1wu3NyTK0cDr4PO+tPd1wUShGfv7Np2ZKaDeuq13H6kLxA5Zkn4RB7gAAQLeX/jOSunQ0DKdNZnk4nMh/+8i0j5bRje2VtjAjWeqo7D/ycmrbZfqyD/ILtQQAAGj2yHcyaTl96dJudtQL/ujdZn43gqnd6yyEQb16Q+HDq71GdSX7GD9TSwAAgF6bG/4DkqJodGq86SQxKKhr3k4ujqKW3TsTYdhqpHCkULWm8tHKkk9xnmICAAD0WuP+pbya3FswfNIz0Rnuqc6dk3qEOt4rCxGGUsXO6TLS3yi4gQkAAOh1wX8wqauIRd1js0dRi/OVnk7tWjEao2aWTRGWWkfdl4+esqeSfkG3qSYAAECr2/6DiYqLU9sNg5nUGwxXGnPn3uir87G9MUyKEJ0qi+4NZWdrpa/zvUk1AQAAWv3qP5jMg3c2mxzevsx19e8Zu73t7uUzImRTZdH9SNEwy8+yD/CaagIAALRa4+LUwK3QC3ON4en8qaEBKUdpZ3P714WwwEJVr/t+X8nzFGQ/n6tTAQCAXh/8B5NpsECUyhnbnT7IGdxJ3iu4OWQmXUgJO3xUNB4/raRdvyn78Q+pJgAAQKsr/oNJsA3NcctUIh3MDfdtr1yM7or2p9Wc9G1W1fyjsgq+sElfnfqYagIAALS65z+YBGoZHxnqKEnkJyEkz726Yw0z3iwlbLKqq/k5RsFI96nsZ7+jmgAAAK1+8R9MAkxoyXRMxfZeSMkzM3PpmOpBTdimr2ZOqBf4jOpY9qPvUE0AAIBW7/0HE/kGlI9mWknSs26YyTPrTG7Pr4SFFPXL7Af8ySUj+8FvqSYAAECr+/5jsXQSypuJ7fWwZxuW3LhONd0Udlqp+dUikQt0xmEl+7mPqCYAAECr8/6vuJHdSDVy51Ii3w0/eRocnBOgTWYqrDXZV3M8OVDDlCf5qZepJgAAQKdza5z7k0pBXTMNJFlLZqQo6tTW6DgjLKboq095GOAZZM8ZX7xEPQEAABo99Z9LljIhaGhku31g0SbysGymZQVrAAAgAElEQVR1bp8lhd0UbboHGAwpfSDjOvUEAABodM1/LGlJbLcbGSazbFuVPHsVe2N7oimsp2jTvSG96S59UuEG9QQAAGi07T+WVNa+VmdkYvM5XU9ZljyTI1uHupdrwgUTNTepZiVPPXyS/cBt6gkAANDoub7g3h+YyKKdcXTbPVTbnQo3nByp+Z4ykvp06St+L1BPAACARr/rCu6qrsI8o0umZGm7x6GFuX05Fs6YqzkbcSwzXkb6C+cr6gkAANDotqbg3q4aSKIJ67pk/nZG1bp2mcqecIiikwIym+7SBzNuUk8AAIBGD7QE956RQ6lfT21OnlPLbmOqrJIuBXeRrHtqNt3X/p1BeoDpbeoJAADQ6FcNU2VSBRO7zYlZyu7kudexKbe3nNpv/+tXm3I4v8tIB/fX1BMAAKDRG/XBvfTVRBDdn9i/ZzwjtwcyVnTGd1kzE9xfUE8AAIBGW6qD+8TITalePeVC8vzikdsDTZcpKvr3F7smgvsz6gkAANDoodrgnpmZmCWzU605kjznaXJ7IDlFX33KhaT+4L5FPQEAABp9WKM55ewN0pyZnNrJOBM8Fw0LcvtBRjirpOoSr5bvIfbSZxMeUk8AAIBGt9QF92SzaiSGpkcuBc9++MNlGn3hMGUL6OW7BHcAAEBw/zO2zw3dFvpp4lbw7IWd3NML4bRMS9lK1Fdag/sH6gkAALAjuB/852770lAMLa5cC57dZai53ZsLx52oO+9cbSYJ7gAAwFGP10iAqfBju5dzMHiGm9xHwnnJI4VjRGv6gvst6gkAALAjuO/8S8vFychYM0ij5GTwDDO550UUFBSuSPasXqtjgjsAAHA9uBd/2MJdNzc3pdVzNHd2Q+tzb6UiEdzFUOFEfK8z1RPcH1NPAACARlfWuTv+/7bcU81jg1cM5d0Nof3dcHL7bk9ExFzlBQFe9r+i+z7BHQAAuB7cd6r/E3dS7XzZZAitu5w7p+UwcrtXE5FRUntHQOf0Xzvq0wR3AABgo3drJZPE5/H30H5a6Ji9FDTRdDx3JkII7gURITXF332OSz+eMFOT/otXqCcAAMCa4P5t132QzQ4OjKfQhvN7x03PeG7viEg5VX2aYvll7wcfIz988h31BAAA6HP38o4Tln33c2fO+JedbrSCu4Z+o0R2/s+DE3P5v3b5LhUFAABoc8uN3F7JRCB2JrOGV20uBMn97PO7+fbfs/swQAfYReZBAgAAba5tOJHbj1eRiJ2rfaOrlhfRs9BysCI9qLf7f6b3ZH9YCfSHNrapKQAAQJN7TuT2bERmkYtxw+CqHexFMLiLmrYj0V65HPzkxj1qCgAA0OOV50JuL6YiEztL5hbcW4hICmU6j/9V/52qAgAAdNh86UJuP0pGKHaaO6B6KCKqbXVyf7tJXQEAABq8diG3zyKVOpPHpq5M3YtqcBdDq9/X19QVAACg3rlHDuT2XMRSZ3fXzLo1RXTlbH5h75+jsgAAAOW2HMjt9eh1ehhZt4GIsiObX9ktKgsAAFDt6XkH+tsjmDoPDaxboh/p4G58Iv46zt+gtgAAAMWuXCS3h+HkKz9UBF7DisVv7RVqCwAAUGv7J+tz+2Eykqlzqn0m5O4q4sFdZA7sfW0vXqC6AAAApe5Yn9vzyYimzpnulRuJyJuU7X1x71BdAACASjetz+2dVFRD50rzdvEyFf3gLtoWXx52k/oCAADUufTe9tzeinC7h+bJMnMRBxYPhfz5EhUGAAAo88L23L7MRDl0FnUuXUXEQ97et/cFFQYAAKhy46rluX13HO2zlQ2Na7eISXBPtax9fa8yEhIAACjy4LLluT09jXjo/MKGe3CmbqGVGeb+YpMyAwAAgrth/UCZRC3yu8VLbYtXik1wFzWLD6i+3KbSAACAgDZf2H9j6pfoZ865rrXbFzFSt3ia+8YWR1QBAEAg279ZH9t3DuOQOQeMlAkueWzze8ymOwAACOLNhv25fRCHMeS67k9dJuMU3EWmavObvPGGTncAACDp+hP7Y/vOQSYemVPPSMihiBeb29y/XaJ6l6oDAABkPH/kQG5PT2ISOccJDavXSMUsuNt8D9M3919RdwAAwNo2nznQJrPjtWMTOXVsuX+OW24XyYrdL/RPDzmjCgAA1vT0zo4LYpQ8++q7PLxx7IK76JUtf6V/4zYmAACwluf3ncjtlTi1eqjfcu+IGBrZ/lLff079AQAA/j3YcCK3N3pxSpzqt9zbcQzuImv7a73xmgoEAAB82ty66ERu90okzkADeZKxDO6ZXetf7Fs0ugMAAF/OPdlxQz1miXPK+ikxt//VvnedOgQAAM52460juX0Quw3jltoF7Mc0uGuaia/U+2tUIgAAcJbnVx3J7eVe7AJnU+kCtuKa20XmD/buxaWNLIrj+Gqtj1aru2jtSrFi232024Q8SCDi26hR81QRRIWCEQxWxP/C/3pru92qyejce86YzNzv5x8YOTO5/jI599xC5z/ez9miCgAAHjDSHZLcHttwL3CmVLuzz50N7vHtEDzf3b+xGgEAgPuEZJzMV4suBs41zR2QZXeDe7wWgiec4TIAAOA+73vDkttzWSd7PBJ6Fdx3OLfHq4kQPONPp1mRAACAl6l0WHJ7bMnNwKk4EXLb5eCu+ttFcGMhJ1iTAABAS30ToYntsV1H82ZRLxRmnQ7uqUYonvPXfaxLAACgWf+z8OT2rUtH82ZSbXvqZtxtS+F40p9xFBMAAGjSF6Lc7mqjzFd1rRLOOR7c46VwPOofSe4AACDMuX3R3bh5qFXDQ9eDeyj2p5LcAQBAc25/HaLcXnC5PftMqdko7rx6SB73Z/S5AwCAm34NUW53ex7KnE4N9wjuszndxzK9+aV4VJ6tHBbnSsuqO1RZnwAAwE+fwpTba07HzYpOEYsE9/iO5lOZ2Tu4+aVgL01yBwAAzuf2RNXtuLmu8nZ4ltweT67rvW3fvVvQoxXFk5g+sUYBAIDvhlTSxfLW+mYjE3xwX3M8bqocHbRObI8rTsXPr7b4WrCt2IozxCoFAACu/ZFW6BM4/q9RoLy9GGx4z186njaPaHFXo/RW/KrSuoler18m/Z51CgAA/PLLSI84VszcCi6zc7kAg/uG82kzr1DFE0L7tVWVR3LF87vkqtr5rL0jrFQAAODJgDRTNJo2Ol7W00Hl9s2k82lzV6GMWUL7NzWN9+337BdIzWlNi+9+wloFAIDrhl9JW9vPUy0Cy9JyMLk9fUHYXFLImlTxuwuF3q3y/Z1NSoP3Y88HWa0AAHDbizFhnNhv3d4brzYCCe7zZM14KkEZ1ZTEXyVXH7pdWi/dx16yXgEA4LKuP2VZInfsmVfKWwHk9kyZqKmxpfKcIv54IS5t6vIx5OhU6Uvs2y5WLAAA3NU3KXxxe9808GoAW1TXSJoqAyFPKaLSK/d1P3suLud1Hv/JPtYsAACcJRvgnnvg9M2LhHZuL3BskMoslPQlRfz/dbislKv+rnKss+eDce4AADhr5KloBuSDk0nmtIP7HDnzW9e0dFJ+gxoqNR4t+r3KwabKEaq/sWoBAOCmQckgyMLxw2Elua+b23O8KNZpcl+khD9Jjk9NVPx/26prfAQGRlm3AABwkWigTM3XLtED3UNU2VKp1OS+QAlvfL0UzGvcNbnQiUa7zNgLVi4AANzTNy7okV5LPk7CvD0wO0XK/E46yb1ICW/YsH/hfmB0IZURqeNsUAUAwD2Cjal530NJPmvOhNwmY/4nK6xklRLebGLJP1bL0ewMG1QBAIA5wcbUUtZ/VNnWy+1bSTLmD3lRJRP8dKGzidp4qmZSYb82G1QBAHCNYGNq3SRAJ/VeudPh/pNs+PgWBbz9ItxyK8aZxbWO5ds+BoZZvwAAcEm/9Ympy4b90TtqM9wZKaPwjvibfQp42+IjfpW8kJ9L9rafFQwAAIdM2GaGswPDnJIqMMO9s0YYxmJ7FPBOmLbrOLI7DqxyJv4sTLCCAQDgjne9tu3t5q+96zq5PcOhqWq7U2k6usvqdKSSbWdOTfph6H3HGgYAgCtevrJ9VWuxP7SaVgnuddLlTaJ+ixPqp7GHesN6jI14uMyrl6xiAAA4YtJyGIndPMaaRm43OKLSCaKzU0+p3x2fC4/WKfNty/aueJo7qxgAAG6YttyWuvqIbzOlE7Ojbl5SzAPqd9eexeHBkuuJTyabZh0DAMAFo91WSSF3ZNvSm1AI7hdkS72xMoxxb3JkXsWF9t3Ar3pGWckAAIi+/g9WQaFh/5q2JM/t60TL244lgzUpX7Orxz5+9ly49+OfLtYyAAAib8gqJmxm7SOKQq/MNsnytkNBMa8on8Ib8Lz0ijvC5D7EWgYAQNSN9tiEhJrk9KOyeK5M4TPJ8s5gEkFNa5RP4SGV77oQJveeJ6xmAABEW/9bq6M2ZcF5nVmQ6vL21Zyhei3sG1ZxR35J4anCHzhAFQCAaJuyyu3C3YxfhLk9zRgUzS9D81SvhY3HbXH/ZkH2uZhiPQMAIMoGbSbKzEinkKwKg/s+sVJzx+8e1WvhMmM2ZEnlorKpkEyWAQAgyqwaZUri6YGpjCy4bxArmwgGua9RvVbMjjMt6Vx0T/TBeEuzDAAA0TX19PH7ZK6JzvmMZS5JlZrvaueonrxXRunbT3JR9NH4izUNAICosmmUqWkMdJE1udOTrbux8ZzqtWJ2UNiJ0lVTNclHo3uQVQ0AgIgaN08GKypvu4ui4L5KqGx2QudRW+fKVNR66zcln41JVjUAAKLpb/O50VezKuEkK8km+SSZstmpfUGPqZ74RwzF02fLecmnY4R1DQCAKOofM8/MZaVwIskm7KVs5ZDgri1r8MV2RfG6R5K922NdrGwAAESQ+Qj3QlUrmwiGF8aqRMoWKgR3dQZ7qHc1r1uUHKE6xcoGAED0DBvvTM2cqkWTOftgckagbLmV0r6iJ1RP/JSet+vCzftTh1nbAACInI/G55Uqvpkt0imjLElwV3fkv4ZLuleeEST3j6xtAABEzTvjn+M1x30f2OeSQwJlSxmCu/qXodzjD5X57rJh/wFJv2N1AwAgWvo/mOaBGc1hLknrmLlFnmytYJ30ihTPg+/TkBLak46qy/bJ/R/OTwUAIFqmTdPAZko1mJzZppI6cbK1Ld64q9v2W8KG+qUFc/lj71nfAACIkq5Xhlkgp9wLYN3Ee0qcbM2+uYIDmLyU/ZZwX//adfvg/oqRkAAARMmQYRRIaJ9WumaZSXKcvqQe3HconperdkyD/C4lOEF1ihUOAIDoeDlgmAQW2taEcMc8YVI9uJ9TPC97bdi4/X+bu/1244EXrHEAAETGJ9ONqeqpZJXDgjomuM9RPC8bPku43c6LtzDBGgcAQFS8MTx7aWtWPZRYHvSZzhIm1YM7k/HFj2kwg3kWrW8ppzABABAZzwwb3APYEJpMWAWSTbKkfnBnUI+3vL8SHgVy8dm89T19zSoHAEA0DPa0ucH92hYvhzsluLNvwJvP6UeVQC6eXLK+pz2DrHMAAETCpFkG2A9kkIvdzIxVoqR+cJ+heJ4W/JUwFdDl561v6iTrHAAAUfDkqVECKJQDiSQlmzSSSRElhU0dLaxQPE8Xviq4HNTl7Ztlno6y0gEA4N4L940OepdYIkl6KlgH9wbF85RKtLeCReu7+pGVDgCA8Bvs7Yg+ii8MLtSVsI54BYrnbb3Nv1mUbO9qL13uAACE3+tOaJTx3TxMi7vfjYz2Q79jNCAJfxkKcJdAeZnBMgAAOOuN2UiZwA48sjldJvGZIOnZDS0I7mXK5+ncTwF32/0HtBws84bVDgCAkPvVbKJMYHnEZtIdU9y9VQTB/YjyefJ1xO+XIH9KObO9rZ9Y7QAACLcXA0ZTXCqB5ZFDiySyR470VBUE9yLlk/2SEejei1Pr41Nfst4BABBqQ0b/+s+DiyNZiyRyTI7Uj3fB3ubw8zOQcSHQv2DG9r4Osd4BABBmXc9N/vGvJ4NLI8k0vdiaTgTBnV8y7uFnrMtOsF1QGcv7+ryLFQ8AgBD7q3OGuJhPy8iRIgPYw8h4/PvV23fWwQ9rtjd2mhUPAIAQGzP5t78YaBrJGceQfVJkAOHuqzPKJ/tGdBJwn33O8saO9bHkAQAQWiMdsjP12pZxDKmTIr3NC4L7MuXz5mf80VKn/pzyN2seAAChNd5Bx5ReGaeQDVKkrBXbU5b6eTrwUb/TgP+GVMPyxo6z5gEAEFbDvQb/8/MBn3a0aZxCDkmRmuW84YL6eUomOmAQ/oblje0dZtUDACCkPpn8z98OOIusGJ+bmiJFanYePeK9jnplq4F/e7iyvLMTrHoAAIST0SzIq2TAWcS4t2OdDHlPM0VCEtyZB3mP2sP1qwT+R9i+cmciJAAAIfVHR52maXyszCIZ0pvk4NRYrEYBRdt+g98jkLTtcv+ddQ/4l7178Wnj2OI4Lp5pkgaluRfaPJqblpY0JF3LD9mSLd7m/TIvISFAigRIILAQ/wX/dXPTJIoDS2fOro/PdL+fv2A1Y5357XrmDAAEadhjvV9uexSZ8o0g82TIeKuJgjsd8u8wbyG4iz+5v6buAQAQoh6f9X667Ulkh6YyKWomCu60lbnDtonhK0gPMfRQ+QAACNADUx/cnW6kVO25F7TdZMF9mhGMdWLjvUf6avaCygcAQHi67tsKchd8Fe7kUd9Wk4xgrFMbP833wutTOZ4KAECAntr64O4d3MtEyDtcJwvuHPyNt2/knXJeOLdPqH0AAATH59bUE4PB/ZwIGS9ZN8goWmEI4z91GwnuFeEcv6T2AQAQmqFe96X+rGAwuNeIkPEOooTWGcNYM0Z2cU3JprZ3iOoHAEBgfvVY6rdzBoM7lwTdYSlpcD9hDGPNGgnuh8K5/Z3qBwBAYDyauFeLFoP7OAky3nHS4H7MGMY6MxLcc8u0cgcAIBO+L1mLyL5n7bZJkPH2kgb3OmMYa8FKcBf+r9L3PfUPAICgPHNf5/PrJoP7KgkyXjVpcC8XGcQ4dSvBvbgom9xH1D8AAIIyaK41oG9wvyRBxqpEiTG8sdasBHf/24b/Nkj9AwAgJD32bij1De4NEmSs6eTBnSMEsWpmfpvS46k9VEAAAALisVNmIWczuLOXI72xvMUmoxhn4h8Hb0PrUc5lk/uMCggAQEDeuS/yTZthk4tT77CZPLjnrxhG8QaVQ61Hacomd5QKCABAODx6yuTHlDKIZzvIKgEyVmEmeXCPphnHGLtWdpflcpWSaG5L9JUBACAcr8wdTXWJQy1WCJCpb32mk3tKX9znrP+38gc1EACAYLw2+OF1wi96LBAg095AwQCnFdz1WpVuySb3Z2ogAAChGOp1XuFnC1oRZIobgjo0lDHbKSoMpDS4H6k9y1heNLn9Q1RBAAACMWJxw0TNL3rsESBjraQR3KMtBlIa3Jf0HkZ4R+4IVRAAgED86L7Aq/XHcLjWpkWNABmnkUpuj9YYSWlw3za/LeolVRAAgDB0dTuv72d6CcTzmN0UATLOdjrBnYaQ4uDe1HsY4Vtadxd1EACAIDx2X9/n9RLIsl/ymCBAprTpyMBO7bD88zFqzWtnhXcwvaEOAgAQhB8s7pTJLRDc01FYTCm486eG9MVI8X3X9/6Dz/6kDgIAEIRRgz1lcrkzgns6TlPK7dFMkcGUnQfdtT/dw9RBAABCMNDvvLrvKAaQWT4Hp2M+reDO5am3q5v6cRaqorntHaASAgAQgCfuq/uqYgCpEty1ciX/arR5U5dqQx5h1/7HVEIAAALgvsW9rNlXpExwT4XwSh72yqS4qUv1drAj2eT+QCUEACAA7lvcNT8cFjk5mY6tKD30lZH9N3St+qZWEs3tKJUQAAD7hvqc13bFe2RyFYJ7OtZSDO7cwST7b6iq+jyyhpD9bHIHAMA+jy3uDcX0sUGmTMVVOcXgnq8woDe/cDvsMVN9oB3Z5D6hFgIAYN4L55V9QTN9+Ha12yRB3mopSlOTARW9YhYDmHI2uQMAYN8755X9WDN9rHrGjmUS5K1qqQZ3RvmmOYdxW9d8oIZsbt9RCwEAsM6ji/uJ5c+GZyTIW8/4zqQa3KMNhlTySz1QfaJZ0dT2sckdAADr3riv7KobnJuesWOWBJnGHxeW7gANxKTDsJ2qPpGwk/tvVEMAAIx7ZfSbtu99nzMkyPbvlPkwzFeM6TeOjd1c5v/S+8kfVEMAAIx7afTezGPP1JEnQd5irJxycI+2GFTB923dUTuQTe1bqiEAAMYNGo1s3n/306nwFttp53bd1kJBWHYYtXHVJyrIDjYMUg0BALBtwP36Jd1zid73Bh0QIW+qpx7co0tGtVXVYdB27b1LcDoVAIDguJ9NrRqPnNNEyBv208/tyjumAtiN5DJoNd1nmuB0KgAA/0buZ1OVs8cZm6/1T/i6KLMnqcWly6DVdZ9JeDr1FfUQAADT3M+m6m7TzS36po5xMuSNvc4rbQjuDHQrpwsHVnSfaU42s5xOBQDAtufOq7puR7siHcaTm25Hbo8W6Qjp/a9GWfeZKrKZ5XQqAACmeZxNbRjfnV0jQyY+4Otmm5H9ilv7ozF7B2ZvOZ3aRUUEAMCwX6xecHTqnTqWyZDfaJTaE9xXCoyt72EM3ZZMuU3ZzPZQEQEAMGzEeU1XPl535L+Dgwz5jYuoTZYY2y+u3N6O5nSfalc2sU+piAAAGPbMeU3fMd8Xg24n3xwTqLYruHMJk/dfQ8rvOsKLtx5REQEAMOyt85reNHjkr9UpKbLFUtQ2c4yu5xvmpO5TCdvKPKAiAgBg2KjVrCa4QoZG7q3q7QvudUbX72xqdKz7VMKbt4apiAAAGHbf6kaUPf/UcUGK/Nph1EZcU/vZtduATSlvk5KdS35IRQQAwK4h5yW9qpyHFvxTB/0gW9TaGdxp4fPJ+7zN/yiE5xsGqIkAAJj1m9mkJgge58TIr2yU2hncla/jsst1M/ms8nMty6b1F2oiAABm/W71c3ZBEDvz78mRiQ4J+Liml/tHroeoS8Ug/m8ZoSYCAGDWn84ruvLhuoYkdVySI79Yz7c3uNPL3fMEsPINTMJG7s+oiQAAmPXSajfIU0nqaJIjvzhuc26Pzvjk/v9DoGWjx3knZbP6lpoIAIBZw84r+pFu7hD1IJ8gSH42NtPu4B5tM8o+/dKVh+tINqmvqYkAAJj13HlFP9TNHeOS1MHp1GTj56c6xjB73BOm3Kz0VDapg9REAACsutdrtY276Gglp1MVP7irH3sIe4u7diP3A9mcdlMUAQCw6n/OC3pZORBtimLHKUnybxcKuT3Kb/CC5H4EWLmR+7pwUmnkDgCAVT3uRxGVE9GKKHWME9k/qpQ1gjs3XvkcxVBu5H4lnNP/UhUBADDqsdXvhQVZM8M9MvtHu5GOuawP9JT7WGk3che2A31DVQQAwKgRq5FY+Ed/uUho/6CRVwru5xlvCVlY9Bgs5Y1Fi7IpfUpVBADAqFdWd0UIe2KwyV1+slck453z53zGSrmRu2yzWfQrVREAAKPcL07dMbt3mE3uNxqK5NWCe7nBliSjLzkLshl9RFUEAMCoB1Zb/0nbkLPJ/YO9SE+2z6d6fdVWfvetyyb0BVURAACjXlr9lC3d7MEm91xuNdJ0kuGR9tvQtan7cGuy+XxLVQQAwKj/WP2fvy7NkauZz+3FM9XgPpvh+1N3/EZK9+Fqsvn8kaoIAIBRw87r+ZJu6qhKc+RE5oN7M9K1m91XJL/GLaWrEIL7z1RFAACMemf0S/aVOEZWM96gMFdZVA7upcusDvWJ50gdhhDcR6mKAAAY9dzoVTuX8hx5mfHgvhNpO8/quQLfaLwUQnAfpCoCAGDUQ6PBfUkeIy+yndsPS+rBXbvjkBVjvl0350MI7j9RFQEAMKrbaHCfl6fI60zn9sKyfm6PSnOZHGvvwwRTqo83JZvMh1RFAACM6jV6JWktQYzcyHJwn4w6IZudZby79yyEENzvUxUBADCq32hwP0+QIucznNsbMx0J7tFEBsd62v+SgUIAwb2bqggAgE33IpvBvVBO8vk3w31l1qIOOWGsHawHENz7KYsAANjUZbRZy36iEDmX2dx+1KncHi2uZ22s9wWngKdD2G52j7oIAIBJA0aD+zT7NkRtTqodC+7RXtb+5zgWDNJkCP++dFEXAQAguLezX0eLmauMBvepqIPGszXWV5J7rlTbytQJ7gAA/KtY3SqT8BKhpWzm9qNO5vas9YQUte9RbSuzIJzI76iLAACEHtxPQ/hY+Ek9k7m9Uu1ocI+qWdrmXhQNdl7zjtkz4Tyyxx0AgOCD+6pmLFpMmCEPsxjc96IOq2dom7twM9eB4iMK3+NKlEUAAGz6zn09P1KMHA3aivvbjjouOx30i7P2N3EJW/r3URYBADCqz3k931KMHKtJE2S5krncvl/ufHAvrfKWdLdjxWcsyR6xl6oIAIBRvc7reVMxcownjpCTWcvtxeXIgJmNjIz2X+zd+24bxxXHccQxYsuO7diu3ThyY7tO7SZuhuAFJECCpHi/SaR4EQgQpAABFAEKIkHoLfTWLQL0rxoNd3Zm9szq+3mC0XA1+9vdM2eOdZtmuhvjheYQD1gVAQAQ6kBkt79C6AR5505PnSoRru7Gpw7tdqV5d2McaA7xMasiAABC/bj3/XzjQT+MiEryBVgpIUbpOzDbIQ66cvdgs9Mc4SGrIgAAQh3ufT+fOixEyIQPkNd36pX7vCMluLu8TiKz0Z+eqvhnuVesigAACPUviY1adiYC5IoC92hMYj/dp0kfNl/o7p/9jVURAAChPu59P++7C0ZjE/mxfYdeuZ8Jyu0qGfsTVCshZqfibJQtzRF+ZlUEAEColxJPazez0fLOtCZMdJUotUW8p3sXppLrytkwy5oj/CurIgAAQv28f58Wd8mobiQ/9u5Kbj/PygruKj+P83SnwtUlFYVVw24AACAASURBVF2NU/cg3UesigAACPV2/woId6UnhnZa3pFX7oOGkibWTSG34ebG2e7UtuYAn7MqAgAg1O/739AHzlqkmIqPd6EzYSJdV/K0b+K7M7UWbmqcnYeg27LyCasiAABCvd//hn7uXcn25C4E97KSaBbbh6Z+yJlxtclbu6fqP1kVAQAQ6pPAypNLU+mxU4x/bj9SMlVi2tRnGXoDgKOBLnQH+IZVEQAAoX4V+P7aXO3HJva5/SQjNLgny7FM7rl86Jk5Ff6E8QurIgAAQv1l/xt6y1XXDnNNUpLzmOf285oSK5bJvRB+XpZuRlrSHd/3rIoAAAj1OkAQcxVGDYbHQrxz+zyvBJvGb8LH/nwG0j4l6imrIgAAUt3f+4ZedxSOJibD4yrOuT13pRTJ3aGhiY9BIzdj1e02f481EQAAsQ733+rpY5uURoz3p970lCK5O5Q2MuE1NyVEuochvGJNBABArM/739IdnapzbTQ7XsY2t6f6Srx4zf7GzKQsnHyN0R3dS9ZEAADE+rL/LX3t5j2y2T4pmV1cc3tFeSBOO1Srhq5MJ+2Z1rqje8SaCACAWD/tf0sfO4lHTcPR8TqeRwGlzpQXCrGZ/nnH0JRURO8U4eBUAADk+oe0uoeS6ejYimVwnypPzG5isqOgbWzfheidIpy/BACAXAFOYHJzWHvBdHLMrGOY2zfKG/VY7A9OGbwuXZwuoP2Y8YE1EQAAsZ7tf0u/cpKQzLcmPy6S26PUHsRgxk1+CHJQc5ZO6g7uNWsiAAByHex/DumFg4A0tJAcK3HL7S3llcbC+xk/Mblluix4b+pjVkQAAAT7TVZbmYmN5Nglt0cqe+L5jO+yJqfDwaerre7YPrMiAgAgWIB+kFsHEclKk8PaPEaxPTVV3slsvZ7yoeH6rYHcfyO6QQIAINkTWSUnDSvB8fYmPrm9rHw09bihe+7Yuy9AV7pDe8+KCACAYG9EfeI/tZQb+3E5CChdUX7qe/vsVGybnosz60PWLsl/wYoIAIBg3wcoeLDfnqVrKzeWYpLb+8pXt0M/p/ymbnwqrm2Puao9tGesiAAACPZg/7Yyqmk9JVmrA8lU45Dbi3Xlr+zSy9w+snAx5iwPWrtd6AELIgAAon3c/7Z+JLc29091hv7n9vmV8tplitz+B9uPMD3dgf2N9RAAANHe7n9bL1jfBmgxNR4PfM/t53nluVHOt9xu5xNH2fKHGe3jl56zHgIAINrfA5ykYzsnLW2mxrbnJ6ieZJX3Gmtyu/1/pBPtgX1iPQQAQLRvA9zXbZeb2G1RXk/7nNsnGRUDmZZH5TK5nq1pGAr9N/qW9RAAANEe3pNzBJPlGu6Kv00h01MVEz1vNhtY3FJg9x/pWndY9x6yHgIAINtnMUXup7ZD46WvuT1XV7GRHbOloG/1YtH+NsPeVAAApHseoDWL3VfWE0Vy/3qGbKgYSVZ82G1gdUtB1mbVlv5hCL+zGgIAIFyAs1PVudWsVFAk968ZZ1W8NE7kbylIWp0Bm0ci6B+uy7mpAABI9y7And1qJ/dUR5Hcv1LefqnipyC7MaT1LQUWL8O09r9R5h2rIQAA0h3uf2uf2UxLazenAHmW20/rKo7yXclz3rP957ftDb6qPahD1kIAAMT7IqQ2t+UmMk696i2zrKmYKgykznnTwUlX9v74M+0xPWItBABAvE8B7u02i5N7rhLjhTex/WKq4qu2FfkIlSq56JhvrbVOSn8jM8cvAQAg37MA9/ayvcBUTLpKjHVfzlBd3KpYu27Km/PBzM3To63x77SHlHnGWggAgHwBitzz9l6SLt0FxttTH2J7aptUcdefSytN6rj5w7O2Pvvob2V+xUoIAIAHHgW4u6+tRaayy62R5/Jz+3xku59647reL1+WtpNut1utVpvV6rLbnUxKl+VCvd1w04MyW0oLmvNixdkluLL0J+gf9/qWlRAAAA8EKXK31pQl5fSQoexS/Ot2a8E52y5Mj5a7P90emTtfbS8rPduvoBtjMaXuVYfXYMVSdZX+iF48YCkEAEC+19/tf3c/llebq9kWUnRzmaGVJpCdevmoGrhMKNfcno1sNlq56or4LQYVl9dfx86XBv1KmftPWQkBAPDBxwD394Wl2LRxXV5dH8h93T4x/ro925uOQ/10xWapby2995oC5txx400rf3Ja/yf6zDoIAIAXfgpwf2+Jq83VrtFYC83t54YbYx6Xxwsz77Tny+m1nWaJs4h/jHXb9eU3tfFnnOiP5wnrIAAAXvgQpK7BUm1IBC1NkiWJ5TK5M5PRuFEZG26hk1ueWXnIqlcj3Ahcybh/brRx8RX0x/Mt6yAAAF548DjyvjKlSLoR1qV1I0ykJuY2gyZH26GlcvBxwcLe2euItqnmLiPpu2mhs1GIsxB+ZBkEAMATQRpClq2Ep14kwV1lJ3GtkqkVxlbPmUo3p+Z7sFxN3J9qe9OqRXPtWSg62+qPhmaQAAD44ocgidBGthpkVEQKOUGt201VbHTOmg5eXqd2G+PZvXPp9iNI8Sgf1ZV3K+rx91dWQQAAPPHNQYBbfDch6lVh6FfTEyGV7qYqNpKFlbtDjXZT033eM6OVsx8k1+pEd+GZb9AUoon7wUNWQQAAfPFzkAYgFhLUKML8pOoLAbH9pmSkYiMzs1sh85WamVXBdIn41ZGTVp3DcjLKy878YWYhDh9+xBoIAIA33gTJhqfGI1Qx2gSV3NxEHNvTEyNFJ/nWaRSjzx2Z7jOTmXUtV7unTvoZFa284S8LuRAbhl+wBgIA4I2n9wLc5EvGU9Q44giljldRxvaLrZHYPlqmo/oLUlXjr91rZYt1+vNWQ0XP8BlMrRCVMt+wBgIA4I8gtTLHxgPVLPoQ1YvsBKBiycT+yNrlMBGpQcv4Ns/8WdXGo8hFd5ZREpht0BTi1FT1hRUQAACPvAhymzf9enogIkf1Iyl1N7M/Ml8qJiKXnpg/malW6ZotY7pZVbJKiKzRPy3MZ6sfWAEBAPDIwyBnMNUNJ74jGTkqU3Z+HtOibCJFXk3SCRFSSwv9+LOzo3ND33iK435SCWK0QVNbfxyP6SkDAIBX3ga50Rs+9LEtJUglKwunMbduYtDtpZB+ln9oWil7ylfGYR+q0s1NL6Nk6Ruc+HWIcXD6EgAAfvkluuLchags1XSUcHMlI/sjb1cJYdZ1O79Mvl9qataW3KxLo6ySJ2nw9K9+iHF8YP0DAMArDw4jChyJxEZWmuo5aM6SXpmp2TjuphLyVK19Qslcl4+qgVpeptfbym1GCbU1NufnIUbxiuUPAADPPAlyq2+ZrBhpSItTecsdWhaXZhqw5KXUtv9vdL+2+fvUeuWj7nrw/59ZUvPqdjo7TirJ2iJeuL9n9QMAwDPPvgsSGQ0mxqbAQJUZdW1l4mHJUKjNli4SYqUmees/UvK4XjjblCbL6m63Wwz/43xXPemOjzaVWTsvO7H/11rAC/f771j9AADwzcsgN/uJuYxXlhmpOuWq+TKU85axjomF04Roxem/2bv3njaONY7jhIAgbULLyY1cmiY6DW1yEkZeW7Zky1eMr5iLbWQJGUuRACkWthDvIu/6pG2OTsNtdz0zuzs738//iT0eMf7t+JlnzIjO4SpHYMP9KWsfAADG8dXKfUvZhnRyM7Kp6mt2V7jvnqydbCt7a2c1EXlHXYK5668Gu0o+6nOZ9/Azax8AAMbx1cpd3ZZ7L9LBqlnuqYhWzqhwqLCtSXPqCBOcbhPNXRSUfNAyPTjXaOIOAICBnoey5d6OfLb6MujIXHGZHE1zTaVvKLcrDHExSJHNb/87csLecH/AygcAgIF+XQihk93IiHiVGpdL5zNErN3TuvIG4tljYZDRGeH8Vir68Mt0zudoKgAAZnoVwpZ70ZyItVkd9GteO9jvVabFalPDuyjmhVGSdQ6p3qYr/xG3ZF7/P6x7AAAYydftqWq23PNp04JWs12s909HN3QRTw5rrcJgp6HrxO12RRjnqEE8v4X0nQEXUhchcGsqAACGeu+rZONCQagrGZu3UtntRvUwVxwU/5brtsdZ3Y8h5bwwUHJCpfvNBrIfb13m1f/NqgcAgKHWfX3nK7g+1RkT3LxL94Shallm78ZZzch9tntST4vrrHoAABjqzpqf7/zEUDrQdcht3jX2hbHyOeZP0wOw1CdLL0gAAMz12te3fi7UCx+tK6lICpP10kzhDacmpGrOalKv/QdrHgAAxlq55+trX/b6ziG1z55b2nSE4UbcxqThmHdSqtjsxzuseQAAmOujr+/9M8nbYw4IbR592RfGy3SZx2vJdFadSL3yc1Y8AAAM9uu8ry/+vlySo3rCa1HShYgBp8BMKt5yH0k1yZ/n8iUAAIz20tc3f1aqPeGEyOZJquCIeDjlUU3plntSrkX+S9Y7AACM9tOCr6/+skynkU0im6fy9oqIjaMt5lPhlrtUC/eNhZ9Y7wAAsGnLfUPizGSdwObpV42RiJFdrlG9bo5nK4U6kiqU2VhdYrkDAMCqLffZi2XYcPdkvCdi5eKQOb2qHkKhDBvuAABYt+VeZMNdp2pexIxTZFavSO/O8EkO5F5zlbUOAADbttxnLZZhw93TGYKkiJ8S86ri+fdU7hXZcAcAIA5WfbbEmG1P+ISw5u7EEXHU5+Kty1K+TzIMJZ982XAHACAOntzTvln4NXYkCGvuuV3EVIvkflnD5zNasi33eveesNIBABAHD3xmgN4M0S1HVNNzYtGQhu48t13m8zIzyQL3jdescwAAxMKdNZ8n6/Z9B7dzgpqrkoixDsn9ks2Mn8/vWPLV1u6wzgEAEA9vfaaAL37bUDttgprVuZ3kftWOnw7uske711nlAACIieXHmnti9IlpbqYi5iok90ta3q+xkr2A9sMyqxwAAHHxs98g4K/MPdMkpbkoiNg75YTqpWIZr3dtXUhfP/uONQ4AgPh46jMIpI/8RLYyIc3WfjL/1CO5f6/rrbOMI3357CtWOAAAYuS+z1uYNrZ8XP14SkRzUXZsCO5iykx/z1sfoQPZl1m4zwoHAECcfPQbBhqeD6jmsyQ0l2OKduR2ISbM9XdSlUAunn3O+gYAQKz4bQm5sZHzmjZp4e5WMZEUtigy299pundWlT/YvbbC+gYAQLys66rLpqOMi3HemtwunJ14zmGiub2d3ZyhZ+PYrZt7X/5gwDNWNwAA4uah70DgqYPhKE00l910jZH8l3hNXrdYOB7t/a9sLLl33ikVG34aX1Y/6T7Q+5C1DQCA2Lk/73ubseMhqG0TzW//EGvCKsO4tAZNVCfHN/RzdEaFrufwfvhJb27nZCoAAHH0wH92ObW1NEKdnrDM5xhcxJQ6O6m4HM6+6OQ8DrR7obWB5mtWNgAAYmj5g//k7rbnzmFEFxNhnZbpqb069XZzUr7f9lYtc1Od+1RBbn98h5UNAIA4erPoP7nf3s+uTjJ3qZNw7AvuYmDyjLWnPm4wELWul/9z+9rrzJwTBW938TfWNQAAYmnp5Yba5F4gmd9uK2NhbhfJtqnz1Rwc+R3suZdisXT/6gPcJyVtVF+yrAEAEFMrL/wng3SF/XYOpvqzZ+YB1XZrpob7lbGXQvfhpX+VUfJ084JCGQAAYuu3xRnS5w3HK5MHJHMXJWGpSsq4uUrlPs/8C0PJQ4P3RPG76L6vpBvT4jvWNAAA4uvlLPGgcF1ayVQJ5i52HFuDu5gYNlXpwVDqJwYvfwyJw963yqlM71BN651VVjQAAGJslmKZjY3y1RKCTpZg7nYkMW9tbhdO1azYvis73oK3JJ6t5nJdZX86FMoAABBv7xZnSQiHlzLoMEcud629qAmL7W1aFNv/OqS6Ffgbp6MMAABxtzpTRjg7/2d9bjFBLnd1IqzWM+X5qryrZsD7gf8G9ZHVDACAmFt+P2Phx6TzZxnwXqV+Rij3YPzJ7uAudoyYpu5I2YDP08G+9fcUygAAEHuP5knVAWzknlue20XGgJ6QDaXlTJ1Ae+nMP2ItAwAg/t4Sq/WrC+sdR32ONkuK2/4EerHBOisZAAAWWHpFrta+lZskuIton2BOlZVfa+scBvf2n7KQAQBghSdrJGvNofAzsV2I3Sh3lmnoqGXKBHZA9cUT1jEAAOzwZoFsrdUBqf1PpchOULqg53KsTkDvf+ENqxgAALZ4TbbWqZkhtP9VOtKI6ARV93UNuRzMAP5gDQMAwB6UuevUI7N/65CYiuRzlcb5CaZYhgJ3AABssvKYeK1N2yGyf1OM4PR090y/eOrFCisYAAA2uRtemXtiu1ucFPqtTqXTarWmhUF5Z5yOUW5PHRHYo9vMPd3X+1jltPUXuN9l/QIAwC7rYaSm7GH9dHhtcNr93BtUN2MR3Ivk9eieT23v6x7xZ+1joIM7AAC2WV4NeqvzsOS6FT08HpylDM/tiT3i+v8ltyP1Y0ghgCom3e3rV1m8AACwL7k/DDK15zperyTKd07GJgf3CWk96Jpvr7YCaa+/n9A6iF+WWbsAALDPkxeBdd/r5f1ln+H0MGFobm/mCesRbQmZC2hqtJ7I5eYlAADs9Gg+kPKE3Ex3VOZ7O0Zm9xJZPZw7idxPpQY1Yp1b7vMcTAUAwFLPFvVXfB8MZw5A+X7XuIL3rSRR/ZJqJCZmHGCvH31b7ov/YtUCAMBWD3THpR3JJh7D+pZZwX1KUL+sYlOZzN9b7tqeN18vsWgBAGCtH7SmpUZNQY10Z8egbffsBUH9inbo05IoBXsn1o6mcfzAigUAgMW0tpYpKyobGZ4Y0+C9QEy/6jT0x6lawCOu0VAGAACot/JBX89sdUHoYmpGh8hNWspc96PJWbiz0t4NfMhaRvyYhjIAAFjupzVNuV1tEw/nuGFAcK+T0q/TCnVSyiGcF9bRvf7H+6xWAABYbumtKac0aztRz+3pDCH92qeuEK9PTYVSvfRJQ3HXWxYrAACsd9ec7iq1arSDe5GMfr1paFPSrIUz4gP1Q3nEWgUAgPWWdVzDNNDVWjDSBTMjIvoNHfnTIc3I9n5IIx4pH8o8J1MBAMDc7+rzUldfWXHlLLK5vUpCD/5KottnJO+ENWLlT5i/s1IBAIC5VeV5aUtncxWnn41ocG8R0IPbgPZUuhTiNbbKq4NWWakAAMDcuvLzgBW9meiinojk5UtJAvqNwriEKdQePxnV14Y9Y6UCAABz91UHpon2VDTMRTC4T4jnwfZHvF0i5B9AuorHQzNIAAAwN7d0T23CGAex81z7ErXcnhoSz2+WDPry281ayCPuqx3PPRYqAADw1S9qI0YlmCRYSkcruHM0NUrHU7Ohd/jJq63nesg6BQAAvvqo9qLKoJLRf9m7F54qzi0MwMFSi22PN7RUq9aaam176g4bAglG7verFAyJARITIYFUQvgX/den9ZyeaKvs+Wa+mT2X5/kHa/Zk5d0za9b3vFwHMm0L5+e+Iin0xzguweuPl1Eruq1PAQB/uBX19NCN4qLR2lx5cvugU1PPXwZU5G+1WIYfI+6szHV9CgD4w5XKrvI4OxguS3Bfl83Pd1Dcb/HrszIUvBH13ryiTwEAf/oi4jeBBT/rnD+2xN0q978Na5VkL2fMM5i+1qUAgLf64wWM8aLT0dlOKR66j5yJ5h0UtQfooF2SghciFjWgSwEAb92Pl1+7MKRwtFqC4P5UMC8yx5bpr+NHnUas6r4uBQC89V20fLHTlcV7U90P7luCecc/WIVs0y/RD9Eei1fXJ7oUAPBWX6wjmLp1CNHaWJdz+/CGYF5kjq1Cbm+14p3ve6lPlwIA/qu/6gMjG792N7ivyOWd5f9iZPCwVAXHWwhpxB0A+EusIfe17j3OnRzsZnAfF8s7e92w3N7aNeIOAEQXach9rJv7PE67+Y3qvlie4FuEnP9bjUyXreJoh04ZcQcA/hJpyP1Nd3Ph067l9jGpPInZhuX21oQRdwAgujhD7ntdzkkn3RqXsQyy+wshZ47KV/BWpNr6dSgA4P/+FSNe/Nb9zdlz3QnuJ0J5EvMNy+2tTSPuAEB0UYbcF7qflEa7s11mTyhP4lV+b0RmTku5AXPJiDsAEFuUIfcyfKHZXhguPrfPtIXyRFby+gWWSvp18Esj7gBAdBGG3FfLkZWWRwoP7usieTIHeeX2sr7yiDPVb8QdAHhXhE3uL0oSlvYLH3SfFMmTWcvpjUdpt3FOR6nvsf4EALzjRvZ48bosaWl0tuDgPi+SJ/Msnz2QpzUv+Ib+BAC865us6WJ4tDRxaehFobl9+JlInlAeL0NG5mte8E3dCQB4z52s8WKxTHnppMhPVFcF8qTW41/9wem6F3xHdwIA3nM9a7w4KFVgOizwE1XHLxX8seZ7uX2t9gVf1Z0AgPf09NZlxL3wT1QXBPKkXkcfU1oud8GH2Uu80KM7AQDvy7oQ8nnJItPz34oK7ocCeVKbDcvtrV3LIAGA+B5nixdj5dvoUdQpqrsCeVLtuBNMw1ulrzh7wQ/0JgDgb76s3SFEQ1OF5PYR56Ymtxj10p80oeAv9SYA4O+yLYQs46B3e6eI4H4sjif3tGkHX2X+82gZJADwT9kWQr4uZWyaLGAt5Lo4ntxBxAv/phF7dK7pTADAP1zNlC/2ypmbtgZzD+4vxPHkTuJd94lKFLxsGSQAEF/PpSzrtIdKGpzWck/uk+J4wM8R70VHNT4t2M9Y5qU+nQkA+Kd7tRz0ns/7KCbbIANE2wc5+6oaBZ9lrPNnfQkA+IBb9Rz0Pl3KN7jvi+MBm34ifXRwPFqVijPefdf1JQDgA3oupM8XOyWOTntjuQb3DXG8uBz7P3PVuejZ9kE6NhUA+LCBmg56767mGdyHpPEAxzEu+dJedQrOtgBzQFcCAD7oUV0HvfNM7jPCeIiVGEdenVao4GxnCTzSlQCAD/qqt66D3rtzuQX3VWE8xHr2Kz44XaWCMy3A7L2sKwEAH9Zf20Hv/J65rwjjITKfJPpkeLlSBR9mqbVfTwIAPuJB6jBV+kHv53kl95fCeIjsR6eeVKvg0yy1PtSTAICP+PZi2q8Fyx+g8kruU8J4iPGmHVS7m6HWT7/VkwCAj/mhducvvZPc85lznxDGQ0xmPXipakt8XmUo9gcdCQD4qMdp41QVItRmLvvcXwjjhX2r+eTJ6mjlKs5wcu9jHQkA+Ki0szLrrcYm9x1hPMR2tkWQe9WrOP2I1kWTMgDAOe7WetB7fyl+cD8QxkNsZVooc1jBitNvrr+rHwEA53hQ70Hv05nowf2NMB5iOcu1Xqhixek319spAwCcJ+UZTJV57Hw0Eju4LwjjIV5n2bzZrmLFqTfX936lHwEA5+mveXo9HI4c3MeF8aDrn/5Kz41WsuIXaesd0I0AgHM9qnt63fLEvZpP3AePqlnxm7QFP9KNAIBzXb5Q98fOJ4J7JWfcJytacdojpy5c1o0AgPMN1D5UHdgqU8EXHutVrTjtH8V7ehEA0MGt2gf39pTg3jXbzRpwz/CO4bpeBAB00JNmVuakUlFq6KWTUyv2/Hl4vmmf417q0YsAgE5+rn1wbz1bjBfcJ4TxEJONe6+xlq7iz3UiAKCjqw34cHBjLlpwnxLG8/9Uc3GouhVPp7uvftSJAICO+r5uwDLzvWhHqK4L47l/GTyyV+GK51PdVl/36UQAQGfXmrATcX4wUnCfFcZDTDyp/yTW+45S3VbX9CEAoLPPPmnEMvNY69yPhfEQ62n+G7WrXPF+qtvqE40IAEjiZiO+HZyIE9yXhPEQsykGZTYrXfFemrvq37oQAJDIvxqxE/FVnNUyw21pPMBxc45MzRLc7+tCAEAiVz5txGqV50tRkvuoNB5gLPj6rrSbF9w/vfKZNgQAJPJDM1arzA/HCO6b0nhy7eBvggerfn3TzLjf1YMAgIQeNGS1ykKM4D4tjge85aj/ptEYwf2hHgQAJPRVb+gBORV9/jsbIbhvi+MBLzmCl/YMVb3k0/BbqveyHgQAJDUQmDRWKxqqNsayB/cDcTy5rdCrO1/5klPscb+nAwEAid0KTBozVU1Va9mD+1NxPL/hpIlWE4P7dR0IAEis51Jg1HhV1Vi1kzm4L4rjyU0FLsmvwcqe6eA76lKPDgQAJPd5YNbYrWqsGvrdCUwFCvyoYKsGJR8G31F39B8AIMCPgVnjqLpLPwazJneL3JML+6Zgtg6HWy0H31Df6z8AQIDPvgnLGofNGbuu4feThRkNO5T2tA41b4feT984fAkACPJLY3YiDi1mDO6TAnk+894Ttah5MvR+uq37AABBboSFjTcVTlZ7GYdlpgTypMZDruvIRvNq/tMN3QcACPNTc8LreLbgbq1MPktlxutR85vA2+knvQcACHQ/7DPCKkerjMMyg0MSeULHIYd61eSyTgTeTvf1HgAg0LcXQ9LGWKWz1elwpuS+J5En/IcUMpR0WJOin4bdTBev6D0AQKi7QQtAqv14NNsxTNsieTJHTXmH867A1fX9Og8AEOxRUN7YrHS4OpvzdWrJPiY4qkvRgSd8PdJ5AIBgly+E5I21aqertSzBfVUkT2Y9+TVdr03RYWdOXbis8wAA4e41aZn5epbk/lwmT6K9lHz0qj7fDYQtG/1Z3wEAUrjepMNydrMsc18WypPYb+L00bOwW+mqvgMApND3RUDgWKl6wFrIENxfCOVJnCTfsFmfdxh7QXfSF336DgCQxp2AxLFU9YCV5fvU34XyJJIvRtypT9FhX0/c0XUAgFS+C4kco1VPWMuG3Msy4j6yUZ+qt4NupO90HQAgnZsBkWO68hFrNn1wt8k9gfkmPnAPG8G6qecAACndbtBamVZrP/35qetieWcHiSfca/TAvTUVch/d1nMAgJRuNOsUoqepg/vIK7m8o+MmPnAPe49zQ88BAFLq602eOY6rn7EyrIRck8s7Xt0mTri3WqsBd1GvnTIAQGoBQ+7D6svBaAAAIABJREFUZ9UPWTsWQubnpJEP3IcGjbgDAIUYCEgdR9VPWaMzaYP7XFsy7+DX5u1w/8NmyF00oOMAAKldC0gdJzWIWeOpH7kfSebn20j66e9ErcoOWuP+i44DAKT2sFlfp7bOlszK5GQy6cjVZq3KDvor+FDHAQBS+z4gdaw2Lme9a2ZINj/XSsIL+R/27kanrWMLw7Ao/yGBtIQGiJqkaZuQ0A7atmVLtowxBoMxmH8hIUBCAiQQIMRdcNetenSUckp7vGbP3vaseZ87mNFm6WO8Zk1J17IrPL8EAADS8b0kdmgYBnJfZK5MZ3u9lfUciaZBfk/FAQAA9oYFseMipI4O7SfFrrX7gOiSsnVL/hEcod4AAIAYfhLkjnMNQcv6yD1fJp3/i6swf7jYlHxCn6g3AAAghllB7tBxWGp95L5HOv9n9Xaf8VI2VlM0VOYZ9QYAAMTwXpA7onsNUct6sMw18fyflQKaKWp92fk99QYAAMTwWRI8FoPqxmaUe/sKbb4fWrsP9B+WP/1MvQEAADGM9guCx42OkJm3DO5VAnrcg+dzbQtfF3w//aPUGwAAEMeEIHk0dYStA8vgHm2S0J+WWW7z8aUjZQsvS76fCaoNAACI5a0geeR0DFbZiiyT+zwR/WkXbW5gK9Q7uX+apdoAAIBYJLdTdUxyn5urWgb3ZV5PfdpOUJckbO+mzlBtAABALD9Lose+jrh1bHs9dZeM/pSTNrdvPaNt5YfcTQUAAOkZHRBEj3UleWvJMrhfZUjpT2iF2mqUqQk+noEeqg0AAIhHcjvVHOsIXGe2R+5npPQnfsDItXm5t6Bu5ZJv51dqDQAAiEnydqpZCGsKyt8fYeLI3f7KQEndym95NxUAAKRpRhI+dkK8VKj6emV8R20euJt6sP+ycDcVAAA40SsaZa5jIKT9I0xLBPX/VQn3goDoh5teag0AAIhpcDjEJm/biZBmg6T+2HYU6tXUuW3JhzMySK0BAABxvZbEj6qSzHVpG9wf6HJ/rNTu611bYbe4v6bSAACA2ERPMNW0vEF0zSx3J+5Cux7xFy1a3AEAQLp6g2wVubUN7jyf+shSuP/wZEUXJV5RaQAAQGyDI5L8UVGSusq211O1jMR0Y6PdXcuX1a19UdTiTqEBAAAOiJrcG1p6vK2vpzYK5PX/ylyHdjniL84lX81b6gwAAHBANMldzSTzum1wN/sEdnnDkcIB+FeSj+YDdQYAADjwyoTYK2P9eqrJXZLY/2Oz1u6eFfUN4xENg6TFHQAAOCFrclczV+bG+sh9lZGQ0nYjhb9SiF7fnaTMAAAAJ2ZFsfUiyBPTR27J7MJuo7q+1a9KvphnVBkAAODElCi1loJMXo9/ddgktc/NZR9MwJ0yR6Iv5juqDAAAcGK0T5JBIi2D/Rbsj9yrxHZRr8hB4J0yfaNUGQAA4Ma4KLXuablambNP7hvk9uOo/e1SeJ1X9HvNODUGAAA4IhsIuaQley3ZB/di8MPcs4Lkuhx6pwzDIAEAgCtjsrPnbSXh69Y+uOvp9Le1YoLulJEs3+TGqDEAAMCVX0Wh9YZeGWPWws7tJ4JGGYWvL2XWJd/KFyoMAABwZlrWJ6JllHuMXhnTCHqyjGCijKLR/18tir6VaSoMAABw5kdZaNUyyj1Or4w5DPkZpvPA24pKok+llwoDAACcGZwUBZGWll6ZOMHdzIeb2zcC7yoqSxqFeDYVAAA49a0oieW2lASw1TjBPVcPNbdvNYIc/G/7U8231BcAAOCQsFdmJcTZIH/v9Q+0zT3bDHN86FfXdMoAAIDOmQjyeupdrOBulsJsc98PvaVIdjV1guoCAACcks2V0dK2nCnGS+4rIeb2NeEmnajbgZZo/S+oLgAAwKnnspnmTSURrBIvuOc2wsvtx3lhQ5G6nyWORH8ruedUFwAA4NZPsjh2pyODXcQL7iZ/ElpuL6wLt6iqbgsOROv/RG0BAACOzQQZx2Rz/Z6wHNgF1az40apdbVtQronW/4HaAgAAHHs3IIojUUFHCmvGDO6mmQ0quFfFG6TuP5sF0fL73lFbAACAa+NB3su8iRvcTSmk0TLz4u150LYFp7ILzeNUFgAA4NyULJDVdDyrU48d3EMaLbOWE+/OftgH7maKygIAAJwbGpElkgUdPdv52ME9ug0lty9a3AhYU7YHwgP3ySEqCwAAcO834bVMHc3dh/GP3HNrYeT2S5t/crS1uAsP3KepKwAAIAHP+0McFzIfP7ibKIhx7scNi61ZD/vAfWCMugIAAJIgvJ76oOJWpoMm9z+Se11/bt9attmZStgH7q+pKgAAIBHfCUOZinPm08hFcq+pf4hpc91qY5RNcS8Lf3V4SVUBAACJGJqUpZJVFVmsaZwk9zvluf3Kbl+2dW3DuWz1b7iaCgAAEjId4pH7gXGT3C9V98msW+6KriH328KfZ15QUwAAQELGBoRH7hpi2Zkhuf8/R5a53Rzq2oeWbPW8mgoAAJLzVpjLLjQ0gTgK7ia/qDa3L9vuyY2qfZBeZJ6logAAgMT05gI8ci+S3P/dsf0OXWjah8yqcL5/LxUFAAAk54cAg9mhq+BuIpUvMV027HdkU9NG3AoXP049AQAACXopzCbXCo7cb4w7K/py+0XefjuWVV3QlW7EZ+oJAABI0pfw5nSfOQzuZj+jLLfv5WLsRivgm6nmC9UEAAAk6qP0TDXr/9VLl8HdtO5VtXWvxNoMTXdT16SLn6KaAACARA29EcaTBf8jWcNpcm8W9ITV01K8vVDU81+QfiU8vgQAAJI2I8wnjbL3mazpNLibopqB7lurMbfiWE9wr0rX/oFaAgAAEjY6HFw7RMVtcDfRno6sWo87KDPKqsnt4osQIz3UEgAAkLQX0unl3o/8WzCuVTQk1r0o7jY86JkoU5Ou/T2VBAAAJK5nRPqsve+DVDacB3fT9P6/mdNq/F0oacnt2SYH7gAAoBu9l4YU3++nHrkP7qZY93tPjq+Zav+VfNT/DHUEAACkoGdS2sp84vnMwyiB5J478LldZjfvYg92leT2uniW/SQH7gAAIBXSwTLmyvPZ5VcmCavbvu5HueRmB5SM1ynIL+kyUgYAAKSjRzrL3VT8TmY7iQR3k/f0xPly2dEGbKrI7ZmWeOHMcAcAAGn5JbCXdiomIVUPh9xnb3Ku/nHRceA+L1/5x0GKCAAASMfQhDSp1I4Ci2bt3lE98+643V3f0LWK3H4ZceAOAAC62JR8/qHPVzHXTHJaWz7txP15zuHSA21wN1NUEAAAkJ5P4rCy7/PUkASDu6l59I5qfd3pM1QaGtwP5ev+RP0AAAAp6u0PafbftknUoSfjZQqOe/01jHG36KLq/5H6AQAA0jQrzivRnbfprJxscDfRgQeXVLN7DcfL3vM/t1s0uJtnVA8AAJCqsW/EgWW54G0+ixJO7qa4m+nyLVh8cL7ojSAb3L8Zo3oAAIB0TVu0hGR8DWhFk7jVrn6NaKuawJJPfM/t2SWLVb+gdgAAgJT1TAbU1HydfHA3uWrXjswsHCTyk8Om78F932LRb3qoHQAAIG0fLbLphacJbcekIap05WjI8nwtmfVmPc/tezaLZhQkAABI36B8JKTJe9od0TLpyB903Sl0di+pPqEowIup5gcKBwAA6IBXffLcsuxne0TJpKW20lVXeO9vk2vvL/qd2zdtdqbvFXUDAAB0wm82dzDvfQxpFZOe/EHX9LqXF5K8lXvldW4/XbVZ8zRVAwAAdETPhM079z6OljkwaYqqx11xpLxSS3SZTa+Du9WYHW6mAgCATvmcswgv5x6mtBuTssPFTv9/c1JNenj9js+5fd5mxbmX1AwAANAhg7M28WXXv5i2YlK3Pt/BZvfsWgpzdFoe5/Yzm39ZeTMVAAB00Lthm06QRYJ7W/tU6tBGbZ830lifx8G9bvVrxPA7KgYA4Hf27oU3bSUN47iS0qS0aZI2l02aXjZtmpxue4wACyRQwNwJ96uQUIgUCZBAASG+Rb71nr2co7PSbre1PfaM/f99Ag/WjB4P77wDuOezqeOXK4L7Dx7lXTq+7X7d7Tg0uKSyuX1krvj/kvUCAAC46cBMgrkZEdx/tCy60712bpyRbCbm2NCUDe7NgqnxHrBaAAAAV+2ZKZbRErcE9x//gyJTd+SO0cisf+PkuDKK5vbrB1PDDe6xWgAAAHddmuvhHSe4/0x2b4jed7/PDhIOD0rR4B41WUpEoQwAAHDdX8xVb1+rFNYmmuv0aqotanjxioMVMooH90jG3Gjfs1IAAADXfXhhKsjkowqltb4mhVq627J7aOvspKq7Mho1a9xNfsO9OGalAAAA7nttshugQsk9o0njcTC1rczoOrtwKbQr2w7S7FVcr1knAACADL6ayzJDdZJ7Q5NKolHKri1Wao+6g7Lu6ihUvDnVMDlWrl4CAABy2D3zenLvaNLRHzKpejtiYjCt7DJdDbs/grx6uX1pcqhnu6wSAABADucBj1fLVDVJhR+SpW6x/UO/Y/S2WEllyjFZnr2sXG7vmRxp4Jw1AgAAyOKvmrf33Aua5BLlRn9hdKfFUSse/+NHjcTjzdFs2jVK/WQ1oUv2zAXVcnvF7C/4CysEAACQxvaB5uU990hYU0wsl8tJ/4yK5fax2dx+sM0KAQAA5HF8Yja5rxWIbE0NAqz9sd9+8oH1AQAAyORiy+wRRQVuYloRskVoqZTbu2Zz+9YFqwMAAJDLS7Px7aEpfWibErJFWPmgn4ymvWRtAAAAknlmtsxdq916tXs3vmuqTm5PmR7kwTPWBgAAIJvdI9MtUe4kj21pQrYIhg9y+9kxKwMAAJDP4abZdJMr0sbdh/qKxPbIwPQQN5+wLgAAABmdmu4UHu5KndxuCNkiDNXI7VHzf7jop6wKAABATr+aD3GlCN0g/aamRG6/7pgf4RvWBAAAICnzB1Q1LSPvVUw0lREjrMLtW60H8wPkYCoAAJDX8Zn5lFOVti3khIwtxp38uX1UMD+8o11WBAAAIK+doPmcUxhJGt7yRGwxetLn9mzO/OiCh6wHAABAZl8C5pNObizn4cQwEVuMtOy5vWLh1Qe4MRUAAEjuUreQ5CYyHlGdkbAFeZC8DaSVGin9krUAAADI7o2VKJePy5ffSiRsUadT11K3kxlaGdtLVgIAACC97a9W8k5iJl2AeyBhi5KVOLe351ZG9pWFAAAAKGDjytIu7FK2foDka2EG8ub2aczKwK42WAcAAIAKjo8spbmGXOUyS/K1MHNpy9tTVo5qaN+OWQUAAIAaPpxZinMJqSooaAYpUEvO3B5vWBrV2R5rAAAAUMXOC0vBR5/Ic6fmrU689lsn92LB0qBe7LACAAAAdTwJWgt05bYsIW5BuhaoI2OZjGGtcX/wCfMfAACo5GLTWqKLLeVo6R5JkK4F0uWrlWl2rA2Ji5cAAIBq9gMWM11eik33KeFaqJRsuT1r8Utt6zVzHwAAqOZ0y2KmixkSbLpXydZ+6iuzHlg80rB1yswHAAA+TO5adeT6/ivRWrCiTLl9Nrc4mqeXzHsAAKCgbevJPVy6pxektzXkie33E53cDgAAfOryqeVcV5u62heQYC3cSJbcvrK63f5bbt9m0gMAAEV9tp7ctaF7h1SjD+Rq4TKSbLcvLDfsf/qZGQ8AANT10YbkHl6sXQpzBrFavLAU3YPqNY3cDgAA/O1yy4ZsV+i60l+mFSNW+6PKvdXQyO0AAMD3XgfsCHfzugt3LzUI1Y6ouxzboykbvtAC9IEEAACq2/6yaUu6y88olPFqL/eoq7m9+GjDGAL7THUAAKA+m5K71nC2/8gsTKR2iJvXp7Zt+V9l84J5DgAAvOA8aE++0xsr5wJdvECgdux86syt2B7v2/J5FjxnlgMAAG84PLEr4nWcinjrKnnaOYW4O8XtRs6Wxz85pH87AADwir1vtmW8fNaR3M6Vqc52lnGhbVC0Z9OfKkd7zHAAAOAdu+/sC3mPPeF93aNDsrSzSsrGdu1ql/kNAAC8ZOO9jSkvN7gVW/nMfrvHD6hGuzW7Hvz9BrMbAAB4y/YbW48zJrPiiitGNXK083rOxfb7pX0nj98+Y24DAADP+bhla9ArlARtu49zpGgX6EuH6tybixvbHnrrF+Y1AADwov2gzVGvU7G/2n1FmYxbhk0HYvtdxsb+/MF9ZjUAAPCmwyO7s14sObY1u98lyc/uuRmLLm0f2/pZdnbInAYAAF51fGV/2rMxu2c7hGeXN91F3o7bniRsfdhPH5jRAADAuzaei4h74Y7Rtt5KxnhUOPHGEvNyp5FMptPpfj/9b4PJZJFKpZa9VGoxGaTTyeSwU53f6BKPIzy5FnQgtWt3DdRzjqUCAABv+xwQk/hq/amF6zfX40ZYsaiuJx6GmcVynF2NWj8Zdq/bq3plWRpk8jX5Rp0r2X+NaiSbtvvEceAjcxkAAHjd+YmwKPvYr5g539jsKZTa9UI+XerV75r29GCJNGdjY5CsJiTahs8tbD2lGimmb2x/xpMLZjIAAPC+D+9Epr5Co1T/idzXqqTnaiT2cG3YN6ajqKhzm+1pKl29kWSsyaJdFTL1fkLAA37aYx4DAAA/ePZK9PZuotNf1m+/vyd9P6pMhgkVInusnDayt850OY8Xe5NGTYLt93nKepv+2+UwJuThnnNbKgAA8IvToDN71NXkwOjWi6NW/P5f28rxePsuWzEWmbwSkV2vNUrjtkMXE/255H+2zDy6nt6rhoXs3qwMRP2VEjxlBgMAAP/Y+UTrw//z1VHt92brkIvuZ8t02eXi//mg/vO/QaTdzdTEPdPfdpi/AADAT569eUo4/591+kljFg1JIboykgmXv2AGlR9u9hm96w7yMZGPo7+lTAYAAPjN/gsS+n+pZ89Pxq2QZEa9TMHdn+Umnza+e2gheptdDhpz4X8QBF8zcwEAgP/sXJHT/7MNYmO5ioYk1eq6335HT5Qb/VKqV5lmfzNbFeuV3jI1yXQeneqG845uMgAAwJe2PwZI679n0vIkK21o/+PAZzeZ8/NLCrzkslQAAOBXT74R2f8Z2qfXITVEi5OyX9/T0RNmLAAA8K+NV34/o1roj+MhtbSXnbD/XtTTV5xKBQAA/nZx5OPU/rhYhZS0Hidj/npVZ1+YqwAAwO/8uumu5412SGG+yu5bb3eZqQAAAH6sdA93jGZIefeVhu6L13V0ziwFAAD4h41ffdVeJpwcr0Me0UrNPf++Am+obgcAAPjd4TvfVMhUe9chT1mlvV0yc3XI/AQAAPiTU19cpPp39u5EJ4p0DcBwWG2arWkQEBBFIB6M0gE6kGAAWRVZZFhiYpSEZDSROIZwF971mbNMRmXpHruqupbnuYX6K3lT+f6vztMwIXPFwovd1D6xtkd3vJwAAD/oz6f9kur86loppWbX9tO5AzLf780EALiiaTzN2b5zdFlKs9PV9C13f+yXSwAA1ysOpvY+6udS6r1/m650H5w0JQMAcJOuocYUZvvm8kIpEw5SlO6NdskAANzqQU/aVkN+O5orZcbBSjo2u7fmu72LAAAV9A2k6Zbqxt5sKVM+pOCaasuAFZAAANVoGk1Luu+slbJnLeH/ZGrp9aNUAIBqdeRbZXtizb2Y97UdACAz6T6S9Fn3V1ulzPptI6mz7aOyHQDgH6d7Psnpvng8W8qw2eMkfnRvznd47wAAfkH/w+Gk/iR1+ayUcR++JW5v+9AD7xwAwC/KFQaSOOy+/77E2UqiRtvv38t53wAAatHR0560/y19Uu3/dZyY3zG1PzMjAwBQu1wh35agbj+5lOx/LYZMxKB7W77gYzsAQFDtPjGUkHZf9Ln9O6eLsa/2oQmvFwBAoDrGEzHdvqDWf9gLGfNyf2JEBgAgcLmh2P9Ptbws1X9eLrMd5+c10uC9AgAIQSHm11S3t4T6FRfxnXNvK3qnAADC0X0/zt3+5UCmX+Mors9rvNsbBQAQljiPy2wsifRrrRiTAQDIoNiOy+yfSfQb/sS0a0wGACCDHsRzXGZ/TqHfZC9+j+uxMRkAgNDFclxmQ7ffYt+YDABAJsVvXOaL+fZbN8vEbEym4B0CAIhG3MZltu2Tud2OMRkAgGzKPYvTuEx5T5rf7jg+D6t1KOf9AQCI0MRwfFrwozKv4CA2z2pwyrsDABCtrtG4tOCui6kVncfkWQ30e3MAACJ3ry0eMfi7Lq/oeSyeVOMjbw0AQD10jMdiE6Qsr+xtHJ7Ukz7vDABAfcRipbubqVVYrv9zaumxvB0AoH7qf0d1c1aWJyHc3UoFAKivut9RfanKq/CHW6kAAJlX5zuqF6q8CidupQIAUNc7qvN2QVZjw61UAADqekfVTpmqrLuVCgDAn6bqdkd1VZRX4X0du314wvsBABAfDSPl+mThiSqvwte6ZXs53+XtAACIlcJgXcLwoyqvwmG9ur296M0AAIib/nw9yvCtKq9sacYSSAAA/laPxZArsryyF/XJ9rZ73gkAgHjqHog8Dg9leUWz5/X53P7AGwEAEFuRf3SfnxXmlazVZbrd53YAgFiLfNL9VJhX8s7ndgAAripGu17mD2FewWef2wEAuE60H903zcpUsOFzOwAA14v0o/ueNI/XhPug3e0AAInR1dMSWSduaPPbzH2LNttb/CoVACBRxp5Glopb6jw+O9zvTjj7AADJknvY6JN7/b2ZjzLbm4canHwAgMTpux9RLv6uz2+0H2W3P+5z6gEAkujOZDS/Y9o8E+g3OIpyB+SkIw8AkFT9I5FcUrXL/QYH69FdSh21AxIAIMnGnkQQjTMXGv06s4eRdftTl1IBABIuF8W8zLlhmessR5XtbQ9zTjoAQOI9yJdDL8ePKv2qrXJE3T7Q7ZQDAKTCVPhL3T/p9J8tLEY0JTPlhAMApEVusj3ketw+UOp1GXA3JQMAkC79Pc3hBuTOnFb/wUkU2d460u9sAwCkTF9vuA25qtW/dxxFt99vcq4BAFKocDfUivyq1r+7mDoTfrYPF51pAIB0angY6mrINb3+lw/rEQy3NzjRAACp1TUU4qj7/Kli//8fUzfDzvZmw+0AACnXkW8JrSYX32v2/1j6EnK2lwc6nGQAgNRrCu+W6u4b1V4qXe6E3O2Px5xiAIBMKIZ2S/XVkm6fexdutt91JxUAIDNy94bDWuee+XKf2w812wcf+eESAECWNEwOhlTulxn/Yepz2Q4AQKDp/qg9lLY8PNPtYW2A7LQBEgAgi7o6Q1nrfpjhb+5zIXZ721CXMwsAkFH9z8JI940l8+0hZLvF7QAAWRbKV/dXCxndA3ko2wEACC3dHwY/6/4lk/vcl3ZkOwAAoaZ74BtmNj9kr9vfhPS/1PZOs+0AAPxPQ+Dpvr6VtW7/sBnOAsh/2SQDAMDfcsUnwQbn/Kdsdfvn7VD+kjop2wEA+MlUbznI5ix/zVK3v54JIdvHi3ccSwAArmoabQ2yO1fmMtPtL8qBV3tL75gTCQDADTpGGoP8FVNGFrrPrQae7Y35PqcRAIBbBLpi5vy3TKyTCXwN5GDnAycRAIAKcoXght3X99Lf7RdBr5MZv5dzCgEAqEZfcBMzH2dT3u1H84FWe/Nok/MHAEDVgpuYebeQ6vH2t4Fm+3Cnf6QCAPDP5Iq9weyY2T1Nb7e/fxVgtbf2Fs3IAADwC7o7h4MI0pnUbnTfC/CvS4M9HU4cAAC/KFcYCOKz+34qx2XmXgZ2ibflvgupAADUJpDP7pufUzgmsxPcZHu3cwYAQO3GRtpqHpd5mbbtMq8D2ibTOFq444gBABCMhmLNIzM7qfoZ09JqQCMyk11OFwAAQep/NF7jR/cX6fnovhbIT5fuGpEBACAMTT3Nta10f5OObL88CeJPSz3+tAQAQFgKtZX7+nEaPrpv7QbR7UWnCQCA2Jb79EbiJ90vP5Z1OwAAqS/3meVkf3TfC2S6XbcDABD3cp9+dZHcbH/zfFq3AwCQDMVay718spTMbJ893tbtAAAkxlRjreW6eJTEeZmLgH6V2lxwhgAASEa5T2+cJi3bF1bKwXR7o24HACAiY20152t5JVFL3We/BjMlMz3dNuH8AACQoHKfnn95lpw/pX6ZDqrbx5weAACi09QeQMRuvk7GqPvpYVDZPt3ud6kAAESqYziIjj1/Hf9sPwhquP1Pg31ODgAA0ep+GkjK7mzF/E7qy/nAsn36bve/2bu7nibSMADD6QctdKmlLf2gtKWARQWchLXBhA2I4CIKooIJiVETEzVZE83Gf7H/el2zB3uwybI6006n1/UT5n0P7kyeeca9AQBg2Oqr4dTsyxgvmNn9FGK2B6t1twYAgOG7Vg0paM9/i2m27x2GmO1BNeXOAAAwCtOFsJr2/CiOQzKPwsz2YEO3AwAwKsXQvtt8cBCzT1Ivt0PN9kHLbQEAYHT6udDS9o8XX2KT7a8ut0LN9iC34q4AADBKc+nw6nbn4d1YZPvRL4Nwsz1IV9wUAABGK9MMMXC37418xcyXFx+DsDX9dgkAgJErrYcauScXb0c5I/P+MPRsD9atbwcAIAZS3XA793BUr93vPD4bhJ/tQcM6GQAAYiFfnAq5dU8+D3/a/fXlowiqPRi08m4IAAAxsZYOu3e3zt7dGWK1P90/CSKRXnA7AACIj8xi+M17eO9gOO1+98WDQTTZHiz6LBUAgDjJ1ztRdO+j+x+i/lT17sXLrSAq1bqrAQBAzNI99EH3vzdE/vI4unn313sng8iqPRiUp90LAABiZyEdVQAffzoKf2hm98nlaRAl4+0AAMTT/GZ0Fbx9tv/7z6FF+9uDT1G+av9mc96NAAAgnlLtSFN4+/zhwe4PR/uzd+8fbAWR615zHwAAiK21dMQ9PPh4f+/ge4fenx3sne0Ew5BdcRcAAIizTG0YXbzz8vLzk+dXn3t/+/zJ/r2Tw2BYjMlMspx7AAAGg0lEQVQAABB3qfLUsPJ4cHp+//3+xcGbp/86QLP76s3Rh4v9y7PjnWCoBgVjMgAAxN/cT8HwbR3+enp8/PH0q8O/bAcjM1NxBwAAGAelTjDBOiU3AACA8ZBfSU9qtmeLfroEAMD4mF2dzG5f91UqAABjZbqYnbxsz7W8bgcAYNxkNifudXvGqQMAMH6me2nT7QAAEH+zE7ReZtV0OwAAYyu/MjMZ2T6zknfaAACMsXphkPxsH3SXnDQAAGPuVi3p3b4455QBABh/qWKiP1JN91LOGACARCgVppI7JVNyvgAAJMZyQv+kun7d2QIAkCT5tWbysr25ZpcMAABJk0raasiZouF2AACSqF7OJuhHqe26EwUAIKFmN3LJyPZcYdZpAgCQ5HQvJCDdpxrzThIAgMSn+5RsBwCA+JvfGONZ9+yGbAcAYFKUxvUz1XTbbDsAAJNk6fYYLoecub3k5AAAmDCpfm28sn2xd82pAQAwgfKVzmBcqn3QqfhLKgAAE2u22ByL0fZCxlkBADDRUgvVuK+HXO+nnBMAAJTi/Np9prDshAAA4JvpSjWWP1TNVRe8bAcAgH+o9+PW7lOrPdsfAQAg1u3+tdpLTgQAAOLc7qodAAD+S+lmNT3S1Y/VFRMyAABwBdPLxdXR7Iisled8jQoAAFe3tFAY8pLImcaKARkAAPjf8su9xpDivdntZfKeOAAAfK9SpdXJRrqrfbPdn/WcAQDgh6Wu9xq1CLbN5Grd3nUz7QAAEKLp2UqxuxnSy/fcYrXcX9bsAAAQjVRmrbXRWfzufs8udjZaaxnJDgAAw1BaXui1GzdqzSslfLZZu9Fo9xaWrY0BAIDRSJUytyr9m8Viq1xuFwrdxlfdQqFdLreKxZv9yq1Myft1AAAAAAAAAAAAAAAAAAAAAAAAAAAAAAAAAAAAAAAAAAAAAAAAAAAAAAAAAAAAAAAAAAAAAAAAAAAAAAAAAAAAAAAAAAAAAAAAAAAAAAAAAAAAAAAAAAAAAAAAAAAAAAAAAAAAAAAAAAAAAAAAAAAAAAAAAAAAAAAAAAAAAAAAAAAAAAAAAAAAAAAAAAAAAAAAAAAAAAAAAAAAAAAAAAAAAAAAAAAAAAAAAAAAAAAAAAAAAAAAAAAAAAD4kz04EAAAAAAA8n9tBFVVVVVVVVVVVVVVVVVVVVVVVVVVVVVVVVVVVVVVVVVVVVVVVVVVVVVVVVVVVVVVVVVVVVVVVVVVVVVVVVVVVVVVVVVVVVVVVVVVVVVVVVVVVVVVVVVVVVVVVVVVVVVVVVVVVVVVVVVVVVVVVVVVVVVVVVVVVVVVVVVVVVVVVVVVVVVVVVVVVVVVVVVVVVVVVVVVVVVVVVVVVVVVVVVVVVVVVVVVVVVVVVVVVVVVVVVVVVVVVVVVVVVVVVVVVVVVVVVVVVVVVVVVVVVVVVVVVVVVVVVVVVVVVVVVVVVVVVVVVVVVVVVVVVVVVVVVVVVVVVVVVVVVVVVVVVVVVVVVVVVVVVVVVVVVVVVVVVVVVVVVVVVVVVVVVVVVVVVVVVVVVVVVVVVVVVVVVVVVVVVVVVVVVVVVVVVVVVVVVVVVVVVVVVVVVVVVVVVVVVVVVVVVVVVVVVVVVVVVVVVVVVVVVVVVVVVVVVVVVVVVVVVVVVVVVVVVVVVVVVVVVVVVVVVVVVVVVVVVVVVVVVVVVVVVVVVVVVVVVVVVVVVVVVVVVVVVVVVVVVVVVVVVVVVVVVVVVVVVVVVVVVVVVVVVVVVVVVVVVVVVVVVVVVVVVVVVVVVVVVVVVVVVVVVVVVVVVVVVVVVVVVVVVVVVVVVVVVVVVVVVVVVVVVVVVVVVVVVVVVWV9uBAAAAAAECQv/UIC1QAAAAAAAAAAAAAAAAAAAAAAAAAAAAAAAAAAAAAAAAAAAAAAAAAAAAAAAAAAAAAAAAAAAAAAAAAAAAAAAAAAAAAAAAAAAAAAAAAAAAAAAAAAAAAAAAAAAAAAAAAAAAAAAAAAAAAAAAAAAAAAAAAAAAAAAAAAAAAAAAAAAAAAAAAAAAAAAAAAAAAAAAAAAAAAAAAAAAAAAAAAAAAAAAAAAAAAAAAAAAAAAAAAAAAAAAAAAAAAAAAAAAAAAAAAAAAAAAAAAAAAAAAAAAAAAAAAAAAAAAAAAAAAAAAAAAAAAAAAAAAAAAAAAAAAAAAAAAAAAAAAAAAAAAAAAAAAAAAAAAAAAAAAAAAAAAAAAAAAAAAALwA5kwzRCSc/W0AAAAASUVORK5CYII=;" parent="1" vertex="1">
          <mxGeometry x="541" y="502" width="45" height="30" as="geometry" />
        </mxCell>
        <mxCell id="yVWfJAT9jEzw2ERcWEyI-23" value="" style="fontColor=#0066CC;verticalAlign=top;verticalLabelPosition=bottom;labelPosition=center;align=center;html=1;outlineConnect=0;fillColor=#CCCCCC;strokeColor=#6881B3;gradientColor=none;gradientDirection=north;strokeWidth=2;shape=mxgraph.networks.desktop_pc;" parent="1" vertex="1">
          <mxGeometry x="470" y="470" width="30" height="50" as="geometry" />
        </mxCell>
        <mxCell id="yVWfJAT9jEzw2ERcWEyI-26" value="&lt;b&gt;Internet&lt;/b&gt;" style="ellipse;shape=cloud;whiteSpace=wrap;html=1;" parent="1" vertex="1">
          <mxGeometry x="20" y="80" width="120" height="80" as="geometry" />
        </mxCell>
        <mxCell id="yVWfJAT9jEzw2ERcWEyI-27" style="edgeStyle=orthogonalEdgeStyle;rounded=0;orthogonalLoop=1;jettySize=auto;html=1;entryX=0;entryY=0.5;entryDx=0;entryDy=0;entryPerimeter=0;" parent="1" source="yVWfJAT9jEzw2ERcWEyI-26" target="OKPv6l8iK5C8od6a9RTo-21" edge="1">
          <mxGeometry relative="1" as="geometry" />
        </mxCell>
      </root>
    </mxGraphModel>
  </diagram>
</mxfile>
